<?xml version="1.0" encoding="UTF-8" standalone="no"?>
<!-- Created with Inkscape (http://www.inkscape.org/) -->

<svg
   version="1.1"
   id="svg66318"
   width="672"
   height="384"
   viewBox="0 0 672 384"
   sodipodi:docname="accuracy_integrator.pdf"
   xmlns:inkscape="http://www.inkscape.org/namespaces/inkscape"
   xmlns:sodipodi="http://sodipodi.sourceforge.net/DTD/sodipodi-0.dtd"
   xmlns="http://www.w3.org/2000/svg"
   xmlns:svg="http://www.w3.org/2000/svg">
  <defs
     id="defs66322">
    <clipPath
       clipPathUnits="userSpaceOnUse"
       id="clipPath66338">
      <path
         d="M 50.6,44.84 H 493.2 V 277.2 H 50.6 Z"
         id="path66336" />
    </clipPath>
    <clipPath
       clipPathUnits="userSpaceOnUse"
       id="clipPath66482">
      <path
         d="M 50.6,44.84 H 493.2 V 277.2 H 50.6 Z"
         id="path66480" />
    </clipPath>
  </defs>
  <sodipodi:namedview
     id="namedview66320"
     pagecolor="#ffffff"
     bordercolor="#000000"
     borderopacity="0.25"
     inkscape:showpageshadow="2"
     inkscape:pageopacity="0.0"
     inkscape:pagecheckerboard="0"
     inkscape:deskcolor="#d1d1d1"
     showgrid="false">
    <inkscape:page
       x="0"
       y="0"
       id="page66324"
       width="672"
       height="384" />
  </sodipodi:namedview>
  <g
     id="g66326"
     inkscape:groupmode="layer"
     inkscape:label="Page 1"
     transform="matrix(1.3333333,0,0,-1.3333333,0,384)">
    <path
       d="M 50.6,44.84 H 493.2 V 277.2 H 50.6 Z"
       style="fill:#ffffff;fill-opacity:1;fill-rule:nonzero;stroke:none"
       id="path66330" />
    <g
       id="g66332">
      <g
         id="g66334"
         clip-path="url(#clipPath66338)">
        <path
           d="M 70.718182,90.607884 V 65.003472 l 0.402766,16.002758 0.402767,-25.604412 0.402766,19.203307 0.402766,12.802201 h 0.402767 l 0.402766,-19.203297 0.402767,12.802201 0.402766,25.6044 0.402766,-38.406601 0.402767,-6.401105 0.402766,-6.401106 0.402767,51.208812 h 0.402766 l 0.402766,25.6044 0.402767,-6.40109 0.402766,-57.609911 0.402767,12.802201 0.402766,25.6044 0.402766,32.00552 0.402767,-64.011025 0.402766,38.406615 h 0.402767 l 0.402766,-19.203309 0.402766,-38.406613 0.402767,76.813212 0.402766,-32.00549 0.402767,6.40109 h 0.402766 l 0.402766,44.80771 0.402767,-32.0055 0.402766,-6.4011 0.402767,12.8022 0.402766,25.6044 0.402767,19.20331 0.402766,-44.80771 0.402766,19.20331 0.402767,-32.00551 0.402766,6.4011 0.402767,-6.4011 0.402766,25.60441 0.402766,-25.60441 0.402767,19.20329 0.402766,6.40112 0.402767,38.40661 0.402766,-32.00551 h 0.402766 l 0.402767,12.80221 0.402766,-6.40112 0.402767,19.20331 0.402766,-51.20881 0.402766,32.0055 h 0.402767 l 0.402766,-6.40109 h 0.402767 l 0.402766,-19.20331 0.402766,19.20331 0.402767,6.40109 0.402766,-12.80219 0.402767,19.20331 0.402766,32.00549 0.402766,-38.40661 h 0.402767 0.402766 l 0.402767,-12.80219 0.402766,12.80219 0.402766,-19.20331 0.402767,38.40662 0.402766,-25.6044 0.402767,19.2033 0.402766,-6.40109 0.402766,12.80219 0.402767,12.80221 0.402767,-12.80221 0.40277,12.80221 0.40276,-64.01102 0.40277,32.0055 0.40277,-25.6044 0.40276,-6.4011 0.40277,76.81323 0.40276,-32.00552 0.40277,12.80221 0.40277,-32.00551 h 0.40276 l 0.40277,12.80221 0.40277,32.00549 0.40276,-51.2088 0.40277,19.20331 0.40277,57.6099 0.40276,-51.20881 0.40277,-25.6044 0.40276,-12.80221 0.40277,6.40109 0.40277,12.80222 0.40276,38.40661 0.40277,-25.6044 0.40277,12.80219 0.40276,-6.4011 0.40277,12.80221 h 0.40277 l 0.40276,-6.40111 0.40277,-19.20331 0.40276,-12.80219 0.40277,32.0055 0.40277,-19.20331 0.40276,-51.2088 0.40277,70.41211 0.40277,-25.6044 0.40276,38.40661 0.40277,-38.40661 0.40277,32.00551 0.40276,-25.60442 0.40277,-6.40109 0.40276,38.40661 0.40277,-19.20331 0.40277,12.80221 0.40277,-38.40661 0.40276,57.60992 0.40277,-44.80773 0.40276,-19.20331 0.40277,44.80773 0.40277,19.20331 0.40276,-44.80773 0.40277,-6.40109 0.40277,19.2033 0.40276,38.40662 0.40277,-38.40662 0.40277,-19.2033 h 0.40276 l 0.40277,38.40661 0.40276,19.20331 0.40277,-38.40662 0.40277,38.40662 0.40276,-44.80771 0.40277,38.40661 0.40277,-44.80773 0.40276,-25.6044 0.40277,19.20331 0.40277,38.40661 0.40276,-6.4011 0.40277,-6.40111 0.40277,6.40111 0.40276,-6.40111 0.40277,-12.80219 0.40276,12.80219 0.40277,-19.20331 0.40277,25.60442 0.40276,12.80219 0.40277,-12.80219 0.40277,-6.40111 0.40276,32.00552 0.40277,-44.80771 0.40276,19.2033 0.40277,-12.80221 h 0.40277 0.40276 l 0.40277,-25.6044 0.40277,25.6044 0.40276,6.4011 0.40277,32.00552 0.40277,-38.40662 0.40276,25.6044 0.40277,-12.80219 0.40276,12.80219 0.40277,-64.01101 0.40277,51.20882 0.40276,-19.2033 0.40277,32.00549 0.40277,-32.00549 0.40276,6.40109 0.40277,19.20331 0.40277,25.6044 0.40276,-51.2088 0.40277,-19.20331 0.40277,44.80771 0.40276,-25.6044 0.40277,25.6044 0.40276,-12.80221 0.40277,6.40111 0.40277,-12.80221 0.40276,-12.80221 0.40277,25.60442 h 0.40277 l 0.40276,6.4011 0.40277,-12.80221 h 0.40277 l 0.40276,19.2033 h 0.40277 l 0.40277,-32.00549 0.40276,19.2033 0.40277,19.20331 0.40276,-25.60442 0.40277,12.80221 h 0.40277 l 0.40276,-6.4011 0.40277,12.80219 0.40277,-6.40109 h 0.40276 0.40277 l 0.40277,12.80221 0.40276,-25.60442 0.40277,32.00552 0.40276,12.80219 0.40277,12.80221 0.40277,-44.80771 0.40276,-19.20331 0.40277,19.20331 0.40277,-6.4011 0.40276,-6.40111 0.40277,25.60442 0.40277,-25.60442 0.40276,-19.20331 h 0.40277 l 0.40277,25.60442 h 0.40276 l 0.40277,-19.2033 0.40276,19.2033 0.40277,-44.80773 0.40277,57.60992 h 0.40276 l 0.40277,-12.80219 h 0.40277 0.40276 l 0.40277,6.4011 0.40277,6.40109 0.40276,-25.6044 0.40277,19.20331 0.40276,6.40109 0.40277,6.40112 h 0.40277 l 0.40276,6.4011 0.40277,-6.4011 0.40277,-6.40112 0.40276,-6.40109 0.40277,-19.20331 0.40277,12.80221 h 0.40276 l 0.40277,51.20881 0.40277,-25.6044 h 0.40276 l 0.40277,6.40109 0.40276,-12.80219 0.40277,6.4011 0.40277,19.2033 0.40276,-32.00552 0.40277,25.60441 0.40277,-19.20329 0.40276,19.20329 0.40277,-6.4011 h 0.40277 l 0.40276,-25.6044 0.40277,12.80221 0.40276,-32.00552 0.40277,19.20331 h 0.40277 l 0.40276,-12.80221 0.40277,6.40111 0.40277,38.4066 0.40276,-38.4066 0.40277,32.0055 0.40277,-38.40661 0.40276,19.2033 0.40277,-12.80219 0.40277,19.20331 0.40276,19.20329 0.40277,-25.60441 0.40277,-19.2033 0.40276,38.40661 0.40277,-19.20331 0.40276,-12.80219 0.40277,25.60441 0.40277,6.40109 0.40276,-44.80771 0.40277,6.4011 0.40277,6.40111 0.40276,25.60441 0.40277,6.40109 0.40276,-25.6044 0.40277,6.40109 0.40277,19.20331 0.40276,-44.80771 0.40277,12.80221 0.40277,-19.2033 0.40276,32.00549 0.40277,12.80222 h 0.40277 l 0.40276,32.00549 0.40277,-64.01101 0.40277,12.80221 h 0.40276 l 0.40277,25.6044 h 0.40276 l 0.40277,-6.40109 0.40277,6.40109 h 0.40276 l 0.40277,-64.01101 0.40277,44.8077 0.40276,19.20331 0.40277,-19.20331 0.40277,6.40112 h 0.40276 l 0.40277,-25.60442 0.40276,32.00552 0.40277,-19.20331 0.40277,-25.6044 0.40276,51.2088 0.40277,-38.40661 0.40277,19.2033 0.40276,-19.2033 0.40277,6.40111 0.40277,19.20331 h 0.40276 l 0.40277,-12.80221 h 0.40277 l 0.40276,-6.4011 h 0.40277 l 0.40276,57.6099 0.40277,-57.6099 h 0.40277 l 0.40276,-12.80221 0.40277,32.00552 0.40277,-6.40112 0.40276,-19.2033 0.40277,25.60442 h 0.40277 0.40276 l 0.40277,12.80219 0.40277,-12.80219 0.40276,6.4011 0.40277,-6.4011 h 0.40276 l 0.40277,-12.80221 0.40277,32.0055 h 0.40276 l 0.40277,-12.80219 0.40277,-12.80222 0.40276,44.80771 0.40277,-57.6099 0.40277,19.20331 0.40276,-12.80221 0.40277,32.0055 0.40276,-12.80219 0.40277,-19.20331 0.40277,12.80221 0.40276,6.4011 0.40277,-25.60441 0.40277,19.20331 0.40276,-38.40661 0.40277,38.40661 0.40277,-25.60442 0.40276,32.00552 0.40277,-25.60441 0.40277,12.80219 0.40276,-32.00549 0.40277,64.01101 0.40276,-76.81322 0.40277,83.21432 0.40277,-19.20331 0.40276,-25.6044 h 0.40277 l 0.40277,38.40661 0.40276,-25.6044 0.40277,-6.40112 0.40277,19.20331 0.40276,-38.40661 0.40277,-12.80219 0.40276,44.80771 0.40277,-25.60441 0.40277,25.60441 0.40276,-19.20331 0.40277,-6.4011 0.40277,25.60441 0.40276,-51.20883 0.40277,44.80773 0.40277,-6.40112 0.40276,6.40112 0.40277,6.4011 0.40277,-25.60441 0.40276,6.4011 0.40277,51.2088 0.40276,-32.00549 0.40277,-32.00552 0.40277,19.2033 0.40276,-12.80219 0.40277,6.4011 0.40277,6.40109 0.40276,19.20331 0.40277,-32.0055 0.40277,6.4011 0.40276,-6.4011 h 0.40277 l 0.40276,19.20331 0.40277,19.20329 0.40277,-32.0055 0.40277,6.40109 0.40276,19.20331 0.40277,-6.40109 0.40276,-19.20331 0.40277,19.20331 0.40277,-6.4011 0.40276,25.6044 0.40277,12.80219 0.40277,-32.00549 0.40276,32.00549 0.40277,-32.00549 0.40276,19.2033 0.40277,-19.2033 0.40277,25.6044 0.40276,-57.60992 0.40277,38.40661 0.40277,-6.40109 h 0.40276 l 0.40277,-19.20331 0.40277,32.0055 0.40276,-25.60441 0.40277,-19.2033 0.40276,44.80771 0.40277,-25.60441 0.40277,12.80222 0.40276,6.40109 0.40277,-12.80219 0.40277,-12.80221 0.40276,-25.6044 0.40277,51.2088 h 0.40277 l 0.40276,-25.6044 0.40277,32.0055 0.40277,-38.4066 0.40276,19.20331 0.40277,12.80219 0.40276,-12.80219 0.40277,12.80219 0.40277,-12.80219 0.40276,-6.40112 0.40277,6.40112 0.40277,25.6044 0.40276,-38.40661 0.40277,19.20331 h 0.40277 l 0.40276,-6.4011 0.40277,-6.40112 0.40276,-25.6044 0.40277,12.80221 0.40277,25.60441 0.40276,-44.80771 0.40277,57.6099 0.40277,-12.80219 0.40276,-6.4011 0.40277,-6.40112 0.40277,19.20331 0.40276,6.4011 h 0.40277 l 0.40277,-32.0055 0.40276,25.6044 0.40277,-19.20331 0.40276,12.80222 0.40277,12.80219 h 0.40277 l 0.40276,-19.20329 h 0.40277 l 0.40277,6.4011 0.40276,12.80219 0.40277,19.2033 0.40277,-44.80771 0.40276,6.40112 0.40277,-12.80221 0.40277,6.40109 0.40276,6.40112 0.40277,-12.80221 0.40277,6.40109 0.40276,19.20331 0.40277,-19.20331 0.40276,32.00552 0.40277,-19.2033 0.40277,-6.4011 0.40276,6.4011 0.40277,12.80219 0.40277,-6.4011 0.40276,12.80221 h 0.40277 l 0.40276,-12.80221 0.40277,-12.80219 0.40277,12.80219 0.40276,-19.20331 h 0.40277 0.40277 l 0.40276,-19.2033 0.40277,57.60992 0.40277,-38.40662 0.40276,38.40662 0.40277,-57.60992 0.40277,25.60442 0.40276,12.80219 0.40277,-6.40109 0.40277,6.40109 0.40276,12.80221 0.40277,-44.80771 0.40276,6.4011 0.40277,6.40109 0.40277,38.40662 0.40276,-25.6044 0.40277,-6.4011 0.40277,32.0055 0.40276,-19.20331 0.40277,-19.20331 0.40276,25.60441 0.40277,-19.20329 0.40277,6.4011 0.40276,-12.80222 0.40277,-19.2033 0.40277,19.2033 0.40276,-19.2033 0.40277,64.01101 0.40277,-32.00549 h 0.40276 l 0.40277,25.6044 0.40277,-6.4011 0.40276,-25.6044 0.40277,-12.80221 0.40276,12.80221 0.40277,6.4011 0.40277,-12.80222 0.40276,19.20331 0.40277,-38.40661 0.40277,25.60442 0.40276,32.0055 0.40277,-25.6044 0.40277,-25.60441 0.40276,19.20331 0.40277,12.80219 0.40276,-32.0055 0.40277,25.60441 0.40277,-6.4011 0.40276,6.4011 0.40277,12.80219 0.40277,-19.20329 0.40276,6.4011 0.40277,-25.60441 0.40277,6.4011 0.40276,32.0055 0.40277,-25.60441 0.40277,-51.2088 0.40276,76.81321 0.40277,-12.80219 0.40276,-12.80222 0.40277,-6.40109 0.40277,38.40661 0.40276,6.4011 0.40277,-51.20881 0.40277,25.60441 0.40276,12.80219 0.40277,-12.80219 0.40277,-6.4011 0.40276,-6.40112 h 0.40277 l 0.40276,-19.2033 0.40277,19.2033 0.40277,-12.80219 0.40276,-12.80221 0.40277,12.80221 0.40277,44.80771 h 0.40276 l 0.40277,-25.6044 0.40277,19.20329 0.40276,-32.0055 0.40277,44.80771 0.40277,-32.0055 0.40276,-6.40112 0.40277,25.60441 h 0.40276 l 0.40277,-32.0055 0.40277,32.0055 0.40276,-19.20329 0.40277,12.80219 0.40277,-32.0055 0.40276,12.80219 0.40277,-19.2033 0.40277,19.2033 0.40276,6.40112 0.40277,25.6044 0.40276,-6.40111 0.40277,-6.4011 0.40277,-12.80219 0.40276,-32.00552 0.40277,25.6044 0.40277,32.00552 0.40276,12.80219 0.40277,-19.2033 0.40277,-32.0055 0.40276,32.0055 0.40277,19.2033 0.40277,-25.6044 0.40276,12.80221 0.40277,-6.40111 0.40276,-32.0055 0.40277,-6.4011 0.40277,32.0055 0.40276,6.4011 0.40277,-25.60441 0.40277,-25.6044 0.40276,38.40662 0.40277,-19.20331 0.40277,32.0055 0.40276,-19.20329 0.40277,6.4011 0.40276,-6.4011 0.40277,25.6044 0.40277,-25.6044 h 0.40276 l 0.40277,-25.60442 0.40277,32.00552 0.40276,-12.80222 0.40277,44.80771 0.40277,-6.40109 h 0.40276 l 0.40277,-12.80221 0.40277,-32.0055 0.40276,12.80221 0.40277,25.6044 0.40276,-19.2033 0.40277,6.40109 0.40277,-6.40109 0.40276,-19.20331 0.40277,12.80221 0.40277,-25.60442 0.40276,51.20882 0.40277,-12.80221 0.40277,6.4011 0.40276,-25.60441 0.40277,12.80222 0.40277,-25.60441 0.40276,-19.2033 0.40277,38.40661 0.40276,19.20329 0.40277,12.80221 0.40277,-25.6044 0.40276,12.80219 0.40277,-12.80219 0.40277,-6.4011 0.40276,-6.40112 0.40277,32.00552 0.40277,-25.6044 0.40276,6.4011 0.40277,6.40109 h 0.40276 l 0.40277,6.4011 0.40277,-6.4011 0.40276,6.4011 0.40277,-25.60441 0.40277,12.80222 h 0.40276 l 0.40277,-19.20331 0.40277,19.20331 0.40276,12.80219 0.40277,-12.80219 0.40277,-32.00552 0.40276,57.60992 0.40277,-6.4011 0.40276,-83.21432 0.40277,76.81321 h 0.40277 l 0.40276,-25.60441 0.40277,19.20331 0.40277,6.4011 0.40276,-12.80219 h 0.40277 0.40277 l 0.40276,-12.80222 0.40277,32.00552 0.40276,-12.80221 0.40277,19.20331 0.40277,-51.20881 0.40276,19.20331 h 0.40277 l 0.40277,-12.80221 0.40276,38.40661 0.40277,-32.00552 0.40277,-6.40109 0.40276,32.0055 0.40277,-12.80219 0.40277,25.6044 0.40276,-12.80221 0.40277,-25.60441 0.40276,6.40112 0.40277,32.0055 0.40277,-25.6044 0.40276,12.80219 h 0.40277 l 0.40277,-19.20329 0.40276,-25.60442 0.40277,38.40661 0.40277,-6.40109 h 0.40276 l 0.40277,25.6044 0.40276,-19.20331 0.40277,-19.20331 0.40277,19.20331 0.40276,-12.80219 0.40277,-6.40112 0.40277,-6.40109 0.40276,19.20331 0.40277,-6.4011 0.40277,6.4011 0.40276,-12.80222 h 0.40277 l 0.40277,32.00552 0.40276,-51.20882 0.40277,12.80221 0.40276,12.80221 0.40277,-12.80221 0.40277,25.6044 h 0.40276 0.40277 l 0.40277,-25.6044 0.40276,44.80771 0.40277,-44.80771 0.40277,25.6044 0.40276,25.6044 0.40277,-25.6044 0.40277,-19.20331 0.40276,12.80222 h 0.40277 0.40276 l 0.40277,-6.4011 0.40277,25.6044 0.40276,-6.40111 0.40277,-12.80219 h 0.40277 l 0.40276,19.2033 0.40277,-12.80221 0.40277,-12.80219 0.40276,-12.80221 0.40277,6.40109 h 0.40276 l 0.40277,25.60441 0.40277,-12.80219 0.40276,-6.4011 0.40277,6.4011 0.40277,-12.80222 0.40276,-19.2033 0.40277,44.80771 0.40277,-12.80219 h 0.40276 l 0.40277,-6.4011 0.40276,38.40659 0.40277,-19.2033 0.40277,-32.0055 0.40277,38.40661 0.40276,-12.80221 0.40277,6.4011 0.40276,-19.20329 0.40277,6.4011 0.40277,25.6044 0.40276,-25.6044 0.40277,-12.80222 0.40277,-6.40109 0.40276,38.40661 0.40277,-6.40111 0.40276,-38.4066 0.40277,12.80219 0.40277,19.20331 0.40276,-6.40109 h 0.40277 l 0.40277,-6.4011 0.40276,32.0055 0.40277,-6.4011 h 0.40277 l 0.40276,12.80219 0.40277,-25.6044 0.40277,6.4011 0.40276,-6.4011 0.40277,6.4011 0.40277,-6.4011 0.40276,6.4011 h 0.40277 l 0.40276,-12.80219 0.40277,-12.80222 0.40277,-6.40109 0.40276,12.80221 0.40277,-12.80221 0.40277,12.80221 0.40276,25.6044 0.40277,-19.2033 0.40276,6.40109 h 0.40277 l 0.40277,-19.20331 0.40276,12.80222 0.40277,32.00549 0.40277,-19.2033 0.40276,-6.4011 0.40277,-6.40109 0.40277,6.40109 0.40276,6.4011 0.40277,-12.80219 0.40277,-25.60441 0.40276,38.4066 0.40277,-25.60441 0.40276,19.20331 0.40277,-19.20331 0.40277,19.20331 0.40276,6.4011 0.40277,-32.0055 0.40277,25.6044 h 0.40276 l 0.40277,-6.40109 0.40277,-12.80222 0.40276,-6.40109 0.40277,19.20331 0.40276,-6.4011 0.40277,-12.80221 0.40277,-6.4011 0.40276,25.60441 0.40277,-6.4011 0.40277,-6.40112 0.40276,6.40112 0.40277,25.6044 0.40277,6.4011 h 0.40276 l 0.40277,-25.6044 0.40277,-19.20331 0.40276,19.20331 0.40277,-12.80222 0.40276,32.00552 0.40277,-19.2033 0.40277,25.6044 0.40276,-19.20331 0.40277,6.4011 0.40277,-6.4011 h 0.40276 l 0.40277,-19.20331 0.40277,25.60441 0.40276,-6.4011 h 0.40277 l 0.40276,-6.40109 h 0.40277 l 0.40277,-12.80222 0.40276,19.20331 0.40277,-6.40109 0.40277,-6.4011 0.40276,6.4011 0.40277,6.40109 0.40277,-6.40109 h 0.40276 l 0.40277,19.2033 h 0.40277 l 0.40276,-12.80221 0.40277,12.80221 0.40276,-19.2033 0.40277,-6.4011 0.40277,19.20329 0.40276,-6.4011 0.40277,12.80221 h 0.40277 l 0.40276,-6.40111 h 0.40277 l 0.40277,-19.20329 0.40276,25.6044 0.40277,-25.6044 0.40276,12.80219 0.40277,6.4011 0.40277,19.2033 0.40276,-51.2088 0.40277,19.20331 0.40277,-12.80222 h 0.40276 l 0.40277,25.60441 0.40277,6.40111 0.40276,-6.40111 0.40277,-25.60441 0.40277,38.40662 0.40276,-12.80221 0.40277,-19.20329 0.40276,6.4011 0.40277,19.2033 0.40277,-19.2033 0.40276,6.40109 0.40277,-19.20331 0.40277,-12.80219 0.40276,32.0055 0.40277,-38.40661 0.40277,32.00552 h 0.40276 l 0.40277,6.40109 0.40276,12.80221 0.40277,-51.20882 0.40277,38.40661 h 0.40276 l 0.40277,25.6044 h 0.40277 l 0.40276,-12.80219 0.40277,-6.40111 0.40277,-6.4011 h 0.40276 l 0.40277,32.00552 0.40277,-32.00552 0.40276,12.80221 0.40277,-19.2033 h 0.40276 l 0.40277,12.80219 0.40277,-51.20881 0.40276,64.01102 0.40277,-12.80221 0.40277,-12.80219 0.40276,12.80219 0.40277,-12.80219 0.40277,19.2033 0.40276,-25.6044 h 0.40277 l 0.40277,12.80219 h 0.40276 0.40277 l 0.40276,6.4011 h 0.40277 l 0.40277,-44.80771 0.40276,19.2033 0.40277,32.00552 0.40277,-6.40111 h 0.40276 l 0.40277,12.80221 h 0.40277 l 0.40276,-6.4011 0.40277,6.4011 0.40276,-6.4011 h 0.40277 l 0.40277,-44.80771 0.40276,25.60441 0.40277,19.2033 0.40277,-19.2033 h 0.40276 0.40277 l 0.40277,6.40109 0.40276,44.80771 0.40277,-51.2088 0.40277,-19.20331 0.40276,44.80771 0.40277,-25.6044 0.40276,-19.20331 0.40277,38.40661 0.40277,6.4011 h 0.40276 l 0.40277,-44.80771 0.40277,12.80221 0.40276,25.6044 0.40277,-12.80221 0.40277,-12.80219 0.40276,6.4011 0.40277,6.40109 h 0.40276 l 0.40277,-12.80219 0.40277,19.20329 0.40276,-12.80219 h 0.40277 l 0.40277,32.00549 0.40276,-25.6044 0.40277,19.20331 0.40277,-25.6044 0.40276,-6.4011 0.40277,6.4011 0.40277,25.6044 0.40276,-32.0055 0.40277,12.80219 0.40276,6.4011 0.40277,-25.60441 0.40277,19.20331 0.40276,-25.6044 0.40277,12.80221 h 0.40277 l 0.40276,6.4011 0.40277,19.2033 0.40277,-6.40111 0.40276,-6.4011 0.40277,32.00552 0.40276,-12.80221 0.40277,-25.6044 0.40277,19.2033 0.40276,-12.80221 0.40277,-12.80219 0.40277,32.0055 0.40276,6.40109 0.40277,-25.6044 0.40277,-12.80219 0.40276,25.6044 0.40277,6.4011 0.40277,-25.6044 h 0.40276 0.40277 l 0.40277,12.80219 h 0.40276 l 0.40277,-25.60441 0.40276,19.20331 h 0.40277 l 0.40277,-25.6044 0.40276,32.0055 0.40277,-6.4011 0.40277,-12.80219 0.40276,12.80219 0.40277,-6.40109 0.40276,6.40109 0.40277,25.6044 0.40277,-19.2033 v 12.80221 0 l -0.40277,6.40109 -0.40277,-6.40109 -0.40276,-19.20331 -0.40277,32.00552 -0.40276,-19.20331 -0.40277,-6.40111 -0.40277,19.2033 -0.40276,-25.6044 -0.40277,12.80221 -0.40277,-6.40111 -0.40276,25.60442 -0.40277,-19.20331 -0.40276,19.20331 -0.40277,-6.40112 -0.40277,-12.80219 -0.40276,32.0055 -0.40277,-12.80219 -0.40277,-12.80221 -0.40276,6.40109 -0.40277,-12.80219 -0.40277,12.80219 -0.40276,12.80221 -0.40277,-6.40109 h -0.40277 l -0.40276,-6.40112 -0.40277,-12.80219 -0.40277,25.6044 -0.40276,-6.40109 h -0.40277 l -0.40276,-25.60442 -0.40277,19.2033 -0.40277,-12.80219 h -0.40276 l -0.40277,-6.40111 -0.40277,32.00551 -0.40276,-19.2033 -0.40277,25.6044 -0.40277,12.80221 -0.40276,-44.80771 -0.40277,25.6044 -0.40276,-6.40109 -0.40277,-25.60442 -0.40277,-6.4011 -0.40276,19.20331 -0.40277,6.40109 -0.40277,-12.80219 -0.40276,19.20331 -0.40277,-12.80221 h -0.40277 -0.40276 l -0.40277,-6.4011 -0.40277,19.20331 -0.40276,-6.40112 -0.40277,-12.80219 -0.40276,25.6044 -0.40277,-12.80221 -0.40277,-6.40109 -0.40276,-19.20331 -0.40277,32.00552 -0.40277,-12.80221 h -0.40276 l -0.40277,-6.4011 -0.40277,-6.40111 -0.40276,19.2033 H 446.902 l -0.40276,-25.6044 -0.40277,25.6044 -0.40277,19.20331 -0.40276,-25.6044 -0.40277,-12.80221 -0.40277,6.40111 -0.40276,19.20331 -0.40277,-6.40112 -0.40277,-19.2033 -0.40276,19.2033 h -0.40277 -0.40277 l -0.40276,-6.40109 -0.40277,12.80221 -0.40276,-6.40112 -0.40277,6.40112 h -0.40277 l -0.40276,-12.80221 h -0.40277 l -0.40277,6.40109 -0.40276,-12.80219 -0.40277,-6.40111 -0.40277,19.2033 h -0.40276 -0.40277 l -0.40276,-12.80219 -0.40277,-6.40111 -0.40277,6.40111 -0.40276,6.4011 h -0.40277 -0.40277 -0.40276 l -0.40277,-6.4011 -0.40277,6.4011 -0.40276,-12.80221 -0.40277,12.80221 -0.40277,6.40109 -0.40276,-6.40109 h -0.40277 l -0.40276,6.40109 -0.40277,12.80221 -0.40277,-19.2033 -0.40276,-6.4011 -0.40277,12.80219 h -0.40277 -0.40276 l -0.40277,12.80221 -0.40277,-19.2033 -0.40276,-12.80221 h -0.40277 l -0.40277,38.40661 -0.40276,-32.0055 -0.40277,-6.40111 h -0.40276 l -0.40277,32.00551 -0.40277,-38.40661 -0.40276,6.4011 -0.40277,12.80221 -0.40277,-12.80221 -0.40276,19.2033 h -0.40277 l -0.40277,-19.2033 -0.40276,6.40111 -0.40277,12.80219 -0.40276,12.80221 -0.40277,6.4011 -0.40277,-19.20331 -0.40276,-6.40109 h -0.40277 l -0.40277,-12.80221 -0.40276,-6.4011 -0.40277,6.4011 -0.40277,-12.80219 -0.40276,38.40661 -0.40277,12.80219 -0.40277,-12.80219 -0.40276,-32.00552 -0.40277,19.20331 -0.40276,-12.80221 -0.40277,19.2033 -0.40277,6.40112 -0.40276,-12.80221 -0.40277,-6.4011 -0.40277,25.6044 -0.40276,-19.2033 -0.40277,-6.4011 -0.40277,25.6044 -0.40276,6.4011 -0.40277,6.40112 h -0.40276 l -0.40277,-32.00552 h -0.40277 l -0.40276,6.40109 -0.40277,-12.80219 -0.40277,19.20331 -0.40276,-19.20331 -0.40277,6.4011 h -0.40277 l -0.40276,-25.6044 -0.40277,6.40109 -0.40277,32.00552 -0.40276,-25.60442 -0.40277,6.40111 h -0.40276 l -0.40277,-6.40111 -0.40277,6.40111 -0.40276,38.40662 -0.40277,-32.00552 -0.40277,6.40109 -0.40276,-6.40109 -0.40277,6.40109 h -0.40277 l -0.40276,-6.40109 -0.40277,-12.80221 -0.40276,6.40111 -0.40277,6.4011 -0.40277,6.40109 -0.40276,-6.40109 -0.40277,6.40109 h -0.40277 l -0.40276,-25.6044 -0.40277,32.00552 -0.40277,-25.60442 h -0.40276 l -0.40277,19.2033 -0.40277,-6.40109 h -0.40276 l -0.40277,-6.4011 -0.40276,19.20331 -0.40277,6.40109 -0.40277,-19.2033 -0.40276,12.80221 -0.40277,-19.20331 -0.40277,6.4011 -0.40276,6.40109 -0.40277,-6.40109 H 391.723 l -0.40276,-19.20331 -0.40277,12.80221 -0.40276,-6.40111 -0.40277,-6.4011 -0.40277,19.20331 -0.40276,12.80221 -0.40277,-32.00552 -0.40277,6.4011 -0.40276,12.80221 -0.40277,25.6044 -0.40277,-44.80771 -0.40276,6.4011 -0.40277,32.00551 -0.40277,-12.80221 -0.40276,-12.80219 -0.40277,6.4011 -0.40276,-6.4011 -0.40277,-6.40111 -0.40277,19.2033 -0.40276,19.20331 -0.40277,-44.80771 -0.40277,19.20331 h -0.40276 l -0.40277,19.2033 -0.40276,-12.80221 h -0.40277 l -0.40277,-12.80219 -0.40276,6.4011 h -0.40277 l -0.40277,6.40109 -0.40276,-6.40109 -0.40277,12.80221 -0.40277,6.40109 -0.40276,-19.2033 h -0.40277 l -0.40277,-19.20331 h -0.40276 l -0.40277,25.6044 -0.40277,-38.40659 -0.40276,51.2088 -0.40277,-19.2033 -0.40276,-32.0055 -0.40277,44.80771 -0.40277,6.40109 -0.40276,6.4011 -0.40277,-6.4011 -0.40277,-19.2033 -0.40276,6.40109 -0.40277,-6.40109 h -0.40276 l -0.40277,-38.40662 -0.40277,38.40662 -0.40277,12.80221 -0.40276,-32.00552 h -0.40277 l -0.40276,38.40661 -0.40277,-12.80221 -0.40277,-19.2033 -0.40276,-25.60441 -0.40277,44.80771 -0.40277,6.40112 -0.40276,-19.20331 -0.40277,6.4011 -0.40277,-25.6044 -0.40276,25.6044 -0.40277,-19.20331 -0.40276,25.6044 -0.40277,-25.6044 -0.40277,12.80221 -0.40276,25.6044 -0.40277,-38.40661 -0.40277,19.20331 -0.40276,6.40109 -0.40277,-6.40109 -0.40277,25.6044 -0.40276,-44.80771 -0.40277,12.80221 -0.40276,19.20331 -0.40277,-12.80221 -0.40277,12.80221 -0.40276,-6.40112 -0.40277,-38.40659 -0.40277,32.0055 -0.40276,19.2033 -0.40277,-12.80221 h -0.40277 l -0.40276,6.40112 -0.40277,-12.80221 -0.40277,6.40109 -0.40276,12.80221 -0.40277,-12.80221 -0.40276,-6.40109 -0.40277,6.40109 h -0.40277 l -0.40276,6.40112 h -0.40277 l -0.40277,-19.20331 -0.40276,-6.40111 -0.40277,25.60442 -0.40277,-12.80221 -0.40276,-12.80221 -0.40277,19.2033 -0.40277,-25.6044 -0.40276,32.00552 -0.40277,-25.60442 -0.40276,32.00551 -0.40277,-6.40109 -0.40277,-25.60442 -0.40276,25.60442 -0.40277,-19.20331 -0.40277,12.80219 -0.40276,6.40112 h -0.40277 l -0.40277,-12.80221 h -0.40276 l -0.40277,6.40109 -0.40276,25.60443 -0.40277,-25.60443 -0.40277,25.60443 -0.40276,-12.80222 -0.40277,-51.2088 -0.40277,44.80771 -0.40276,-6.40112 h -0.40277 l -0.40277,-32.00549 -0.40276,44.8077 h -0.40277 l -0.40277,-25.6044 h -0.40276 l -0.40277,-19.2033 -0.40276,25.6044 -0.40277,12.80221 -0.40277,-32.00552 -0.40276,19.20331 -0.40277,19.2033 -0.40277,-38.40661 -0.40276,12.80221 -0.40277,19.20331 -0.40277,-12.80221 h -0.40276 -0.40277 l -0.40276,-32.0055 -0.40277,19.20329 -0.40277,12.80221 -0.40276,-12.80221 -0.40277,19.2033 -0.40277,6.40112 h -0.40276 l -0.40277,-25.60442 -0.40277,25.60442 -0.40276,-25.60442 -0.40277,12.80221 -0.40277,12.80221 -0.40276,6.40109 -0.40277,-44.8077 -0.40276,25.6044 -0.40277,12.80221 -0.40277,-12.80221 -0.40276,-19.20331 -0.40277,12.80221 -0.40277,-6.40111 -0.40276,44.80773 -0.40277,-19.20331 -0.40277,-12.80221 -0.40276,-19.20331 -0.40277,6.4011 -0.40276,32.00551 -0.40277,-12.80221 -0.40277,19.20331 -0.40276,12.80221 -0.40277,-51.20882 -0.40277,25.60442 -0.40276,-12.80221 h -0.40277 l -0.40277,-12.80221 -0.40276,19.2033 -0.40277,6.40112 -0.40277,-25.60442 -0.40276,25.60442 -0.40277,-38.40661 -0.40276,32.00549 -0.40277,-12.80219 -0.40277,19.20331 -0.40276,12.80219 -0.40277,-19.20331 -0.40277,-12.80219 h -0.40276 -0.40277 l -0.40277,-12.80221 -0.40276,19.20331 -0.40277,12.80221 -0.40277,-6.40112 -0.40276,-19.2033 -0.40277,12.80221 -0.40276,19.2033 h -0.40277 l -0.40277,-44.8077 -0.40276,12.80219 h -0.40277 l -0.40277,6.40111 -0.40276,32.0055 -0.40277,-38.40661 -0.40277,19.2033 -0.40276,-6.40109 h -0.40277 l -0.40276,19.2033 h -0.40277 l -0.40277,-32.00551 -0.40276,19.2033 -0.40277,-19.2033 -0.40277,19.2033 h -0.40276 l -0.40277,6.40112 -0.40277,-25.60442 -0.40276,-6.4011 -0.40277,19.20331 -0.40277,12.80221 -0.40276,-19.20331 -0.40277,-19.2033 -0.40276,6.40109 -0.40277,32.00552 -0.40277,-32.00552 -0.40276,25.6044 -0.40277,-6.40109 -0.40277,-12.80221 -0.40276,6.40111 -0.40277,25.6044 -0.40277,-6.40109 -0.40276,-12.80221 -0.40277,-32.0055 -0.40276,12.80219 -0.40277,32.00552 -0.40277,-32.00552 -0.40276,12.80221 -0.40277,-12.80221 -0.40277,32.00552 -0.40276,-6.40112 -0.40277,-19.2033 -0.40277,19.2033 -0.40276,-6.40109 -0.40277,-12.80221 -0.40277,32.00551 -0.40276,-25.6044 -0.40277,19.20331 h -0.40276 l -0.40277,-32.00552 -0.40277,12.80221 h -0.40276 -0.40277 l -0.40277,25.6044 -0.40276,-25.6044 h -0.40277 l -0.40277,19.20331 -0.40276,-19.20331 -0.40277,6.4011 -0.40276,-19.20331 h -0.40277 l -0.40277,38.40661 -0.40276,-38.40661 h -0.40277 l -0.40277,38.40661 -0.40276,-12.80221 -0.40277,12.80221 -0.40277,-38.40661 h -0.40276 l -0.40277,12.80221 -0.40277,-32.00552 -0.40276,38.40662 -0.40277,-32.0055 -0.40276,12.80219 -0.40277,-6.40109 -0.40277,32.00549 h -0.40276 l -0.40277,12.80221 -0.40277,6.4011 -0.40276,-19.20331 -0.40277,-32.00549 h -0.40277 l -0.40276,44.8077 -0.40277,-12.80221 -0.40276,-6.40109 h -0.40277 l -0.40277,-19.20331 -0.40276,6.4011 -0.40277,25.60442 -0.40277,6.40109 -0.40276,-44.8077 -0.40277,25.6044 -0.40277,-12.80221 -0.40276,-12.80219 -0.40277,12.80219 h -0.40277 l -0.40276,32.00551 -0.40277,-38.40661 -0.40276,19.20331 -0.40277,19.2033 -0.40277,-25.6044 -0.40276,19.20331 -0.40277,-25.60442 -0.40277,-12.80219 -0.40276,32.00549 -0.40277,-6.40109 -0.40276,-6.4011 -0.40277,6.4011 -0.40277,-19.20331 h -0.40276 l -0.40277,-12.80219 -0.40277,44.80771 -0.40276,6.40109 -0.40277,-6.40109 -0.40277,-57.60992 -0.40276,32.0055 -0.40277,19.2033 -0.40277,-12.80219 -0.40276,19.20331 -0.40277,-19.20331 h -0.40277 l -0.40276,6.4011 -0.40277,12.80221 -0.40276,-32.00552 -0.40277,6.4011 -0.40277,19.2033 -0.40276,-19.2033 -0.40277,-6.4011 -0.40277,12.80221 -0.40276,19.20331 -0.40277,-19.20331 -0.40276,-6.40111 -0.40277,6.40111 -0.40277,-19.2033 h -0.40276 l -0.40277,12.80219 -0.40277,19.2033 -0.40276,-25.6044 -0.40277,25.6044 -0.40277,19.20331 -0.40276,-12.80219 -0.40277,-12.80221 -0.40277,6.40109 -0.40276,-19.2033 h -0.40277 l -0.40277,-12.80219 -0.40276,-6.4011 -0.40277,19.20329 -0.40276,32.00551 -0.40277,-25.6044 h -0.40277 -0.40276 l -0.40277,-25.6044 h -0.40277 l -0.40276,25.6044 h -0.40277 l -0.40277,-51.20882 -0.40276,44.80771 -0.40277,25.60442 -0.40277,-44.80771 -0.40276,6.4011 -0.40277,6.40109 -0.40276,32.00552 -0.40277,-25.60442 -0.40277,44.80773 -0.40276,-32.00552 -0.40277,-19.20331 -0.40277,19.20331 h -0.40276 l -0.40277,-12.80221 -0.40277,19.2033 -0.40276,-12.80219 -0.40277,32.0055 -0.40276,-19.20331 -0.40277,-12.80219 -0.40277,12.80219 -0.40276,6.40112 -0.40277,-12.80221 h -0.40277 l -0.40276,-32.0055 -0.40277,57.6099 -0.40277,-38.40661 -0.40276,12.80221 -0.40277,-12.80221 H 238.269 l -0.40276,-6.4011 -0.40277,-6.40109 -0.40276,25.6044 -0.40277,-12.80221 -0.40277,12.80221 -0.40276,-6.4011 h -0.40277 l -0.40277,12.80219 -0.40276,-6.40109 -0.40277,-6.4011 -0.40277,6.4011 -0.40276,-19.20331 -0.40277,25.6044 -0.40276,-12.80219 -0.40277,19.20331 -0.40277,-19.20331 -0.40276,12.80219 -0.40277,-6.40109 -0.40277,6.40109 -0.40276,-25.6044 -0.40277,6.4011 -0.40276,-19.20329 -0.40277,25.6044 -0.40277,6.4011 -0.40277,-25.6044 -0.40276,32.00549 -0.40277,-25.6044 -0.40276,19.20331 -0.40277,-6.4011 h -0.40277 l -0.40276,32.0055 -0.40277,-25.6044 h -0.40277 l -0.40276,6.40109 -0.40277,12.80221 -0.40277,-38.40661 -0.40276,32.00552 -0.40277,6.40109 -0.40276,-32.00551 -0.40277,12.80221 -0.40277,-6.4011 -0.40276,-12.80221 -0.40277,-12.80219 -0.40277,51.2088 -0.40276,-38.40661 -0.40277,12.80221 -0.40277,-19.2033 -0.40276,12.80219 -0.40277,6.40111 -0.40277,-12.80221 h -0.40276 l -0.40277,25.6044 h -0.40276 l -0.40277,-32.00549 -0.40277,19.2033 -0.40276,6.4011 -0.40277,-25.6044 -0.40277,32.00549 -0.40276,-6.40109 h -0.40277 l -0.40277,-32.0055 -0.40276,32.0055 -0.40277,-6.4011 -0.40276,-19.2033 -0.40277,19.2033 -0.40277,25.6044 -0.40276,-57.60992 -0.40277,44.80771 -0.40277,-6.40109 -0.40276,-12.80221 -0.40277,-12.80219 -0.40277,19.2033 -0.40276,-12.80221 -0.40277,-19.20331 -0.40277,19.20331 -0.40276,12.80221 -0.40277,-6.40111 -0.40276,6.40111 -0.40277,-25.6044 -0.40277,44.80771 -0.40276,-44.80771 -0.40277,6.4011 -0.40277,12.80219 -0.40276,6.40111 -0.40277,12.80219 -0.40277,-32.00549 -0.40276,-6.4011 -0.40277,12.80219 -0.40276,25.6044 -0.40277,-19.2033 h -0.40277 l -0.40276,25.60442 -0.40277,-25.60442 -0.40277,12.80221 -0.40276,-6.4011 -0.40277,-12.80221 -0.40277,25.6044 -0.40276,-19.2033 -0.40277,-12.80219 -0.40277,38.40661 -0.40276,-32.00552 -0.40277,6.4011 -0.40276,12.80221 -0.40277,6.40109 -0.40277,-12.80219 -0.40276,-12.80221 -0.40277,19.20331 -0.40277,-6.4011 -0.40276,-6.40111 -0.40277,19.2033 -0.40277,-6.40109 -0.40276,-38.40662 -0.40277,19.20331 -0.40277,6.4011 h -0.40276 -0.40277 l -0.40276,25.60442 -0.40277,-51.20883 -0.40277,51.20883 -0.40276,-6.40112 -0.40277,-19.2033 h -0.40277 l -0.40276,12.80221 -0.40277,-19.20331 -0.40277,25.6044 -0.40276,-25.6044 -0.40277,6.4011 -0.40276,-12.80219 -0.40277,-25.60441 -0.40277,57.6099 -0.40276,-25.6044 h -0.40277 l -0.40277,-12.80219 -0.40276,57.6099 -0.40277,-57.6099 -0.40277,-19.20331 -0.40276,32.0055 -0.40277,-12.80219 -0.40277,12.80219 -0.40276,6.4011 h -0.40277 l -0.40276,-19.20329 -0.40277,12.80219 -0.40277,12.80221 -0.40276,12.80219 h -0.40277 l -0.40277,-19.2033 -0.40276,19.2033 -0.40277,-19.2033 h -0.40276 l -0.40277,-12.80219 -0.40277,32.00549 -0.40276,-25.6044 -0.40277,6.4011 -0.40277,-6.4011 -0.40276,19.20331 -0.40277,-19.20331 -0.40277,19.20331 -0.40276,-12.80221 -0.40277,-25.60441 -0.40277,32.00552 -0.40276,6.4011 -0.40277,-32.0055 h -0.40277 l -0.40276,32.0055 -0.40277,-32.0055 -0.40276,32.0055 -0.40277,-19.20331 -0.40277,12.80221 -0.40276,-12.80221 -0.40277,6.4011 -0.40277,-19.20329 -0.40276,32.0055 -0.40277,-12.80221 -0.40277,19.2033 -0.40276,-6.40109 h -0.40277 l -0.40276,-19.20331 -0.40277,19.20331 -0.40277,-25.6044 -0.40276,32.00549 -0.40277,-12.80219 h -0.40277 l -0.40276,12.80219 -0.40277,-32.00549 h -0.40277 l -0.40276,19.2033 -0.40277,-19.2033 h -0.40277 l -0.40276,38.40661 -0.40277,-25.60442 -0.40276,-6.4011 h -0.40277 -0.40277 l -0.40276,-19.20331 -0.40277,12.80222 -0.40277,12.80219 -0.40276,6.40111 -0.40277,-6.40111 -0.40277,-19.20329 h -0.40276 l -0.40277,25.6044 -0.40276,-44.80771 -0.40277,38.4066 -0.40277,-25.60441 -0.40276,12.80222 h -0.40277 l -0.40277,-6.4011 h -0.40276 l -0.40277,-6.40112 -0.40277,-12.80219 -0.40276,57.6099 -0.40277,-6.40109 -0.40277,25.6044 -0.40276,-19.20331 -0.40277,-38.40659 -0.40276,12.80219 -0.40277,-6.40109 h -0.40277 -0.40276 l -0.40277,19.2033 -0.40277,-32.00552 -0.40276,25.60441 -0.40277,32.00551 -0.40277,-51.2088 h -0.40276 l -0.40277,-19.20331 -0.40276,38.4066 -0.40277,-19.20329 -0.40277,19.20329 -0.40276,6.40111 -0.40277,-19.2033 -0.40277,19.2033 -0.40276,6.4011 -0.40277,-25.6044 -0.40277,-51.20883 -0.40276,64.01102 -0.40277,6.40111 -0.40277,-38.40661 -0.40276,44.80771 -0.40277,-44.80771 -0.40276,25.6044 -0.40277,-32.0055 -0.40277,6.4011 -0.40276,25.6044 -0.40277,19.20331 -0.40277,-6.4011 -0.40276,-6.40111 -0.40277,-19.20329 -0.40277,-12.80221 -0.40276,44.80771 -0.40277,-12.80221 -0.40277,-6.4011 -0.40276,-12.80219 h -0.40277 -0.40276 l -0.40277,19.20329 -0.40277,6.40111 -0.40276,-12.80221 -0.40277,-6.40109 -0.40277,-19.20331 -0.40276,38.40661 -0.40277,-6.40111 -0.40277,-25.60441 -0.40276,32.00552 -0.40277,-12.80221 h -0.40276 l -0.40277,12.80221 -0.40277,-12.80221 -0.40276,-19.20331 h -0.40277 l -0.40277,12.80222 -0.40276,12.80219 -0.40277,-32.0055 -0.40276,6.40109 -0.40277,12.80222 h -0.40277 l -0.40276,-19.20331 -0.40277,44.80771 -0.40277,-19.20331 -0.40276,-19.20331 -0.40277,32.00552 -0.40277,-51.20882 -0.40276,32.00552 -0.40277,6.40109 h -0.40277 l -0.40276,6.4011 -0.40277,-12.80219 -0.40276,-25.60441 -0.40277,25.60441 -0.40277,32.00549 -0.40276,-25.6044 -0.40277,6.4011 -0.40277,32.00551 -0.40276,-44.8077 -0.40277,-19.20331 -0.40277,6.40109 -0.40276,-6.40109 -0.40277,25.6044 -0.40276,-32.0055 -0.40277,57.6099 -0.40277,-44.80771 -0.40277,12.80222 -0.40276,-44.80771 -0.40277,6.40109 -0.40276,64.01102 -0.40277,-44.80771 h -0.40277 l -0.40276,12.80221 h -0.40277 l -0.40277,-6.40112 -0.40276,19.20331 -0.40277,6.4011 -0.40277,-25.60441 -0.40276,-6.40109 h -0.40277 l -0.40276,25.6044 -0.40277,-25.6044 -0.40277,25.6044 -0.40276,12.80221 -0.40277,-25.6044 h -0.40277 l -0.40276,-6.40112 -0.40277,32.00552 h -0.40277 l -0.40276,-57.60992 -0.40277,44.80771 -0.40276,12.80221 -0.40277,-44.80771 -0.40277,6.4011 -0.40276,12.80221 -0.40277,-25.60442 -0.40277,32.00552 -0.40276,-19.20331 -0.40277,19.20331 -0.40277,-25.60441 -0.40276,25.60441 -0.40277,-32.00552 -0.40276,-32.0055 -0.40277,76.81321 -0.40277,-32.0055 h -0.40276 -0.40277 l -0.402767,19.20331 -0.402767,-19.20331 -0.402766,-6.4011 -0.402766,32.0055 -0.402767,-38.40661 -0.402766,25.60442 -0.402767,-12.80221 -0.402766,32.0055 -0.402766,-51.20881 h -0.402767 l -0.402766,12.80221 -0.402767,-12.80221 -0.402766,25.6044 -0.402766,-12.80219 -0.402767,19.20331 h -0.402766 l -0.402767,-6.40112 -0.402766,-32.00549 -0.402766,38.40661 -0.402767,-25.60442 -0.402766,-12.80219 -0.402767,44.80771 -0.402766,19.2033 -0.402766,-44.80771 -0.402767,-6.40111 -0.402766,12.80221 -0.402767,-32.00552 -0.402766,25.60442 h -0.402766 l -0.402767,-12.80221 -0.402766,32.00552 -0.402767,-19.20331 -0.402766,-25.60442 -0.402766,-25.6044 -0.402767,51.20882 -0.402766,6.4011 -0.402767,6.40109 -0.402766,-32.00549 -0.402766,12.80219 -0.402767,32.00552 h -0.402766 l -0.402767,12.80219 -0.402766,-51.20881 -0.402767,12.80221 -0.402766,-6.40111 -0.402766,12.80221 h -0.402767 l -0.402766,32.0055 -0.402767,-19.20329 -0.402766,-64.01104 -0.402766,12.80222 -0.402767,-19.20331 -0.402766,-19.20331 -0.402767,44.80771 -0.402766,51.20883 -0.402766,-51.20883 -0.402767,12.80221 -0.402766,19.20331 -0.402767,-19.20331 -0.402766,25.6044 -0.402766,6.40112 -0.402767,-51.20882 h -0.402766 l -0.402767,-25.60441 -0.402766,19.20331 -0.402766,-44.807719 -0.402767,6.401109 -0.402766,-6.401109 -0.402767,57.609909 -0.402766,-51.2088 -0.402766,-25.604415 -0.402767,25.604415 z"
           style="fill:#ff0000;fill-opacity:0.5;fill-rule:nonzero;stroke:none"
           id="path66340" />
      </g>
    </g>
    <g
       id="g66342">
      <path
         d="m 70.718182,44.84 v -3.5"
         style="fill:#000000;fill-opacity:1;fill-rule:nonzero;stroke:#000000;stroke-width:0.8;stroke-linecap:butt;stroke-linejoin:round;stroke-miterlimit:10;stroke-dasharray:none;stroke-opacity:1"
         id="path66344" />
      <g
         id="g66346"
         transform="translate(67.538494,30.24625)">
        <text
           xml:space="preserve"
           transform="scale(1,-1)"
           style="font-variant:normal;font-weight:normal;font-size:10px;font-family:'DejaVu Sans';-inkscape-font-specification:DejaVuSans;writing-mode:lr-tb;fill:#000000;fill-opacity:1;fill-rule:nonzero;stroke:none"
           id="text66350"><tspan
             x="0"
             y="0"
             id="tspan66348">0</tspan></text>
      </g>
      <path
         d="m 151.27146,44.84 v -3.5"
         style="fill:#000000;fill-opacity:1;fill-rule:nonzero;stroke:#000000;stroke-width:0.8;stroke-linecap:butt;stroke-linejoin:round;stroke-miterlimit:10;stroke-dasharray:none;stroke-opacity:1"
         id="path66352" />
      <g
         id="g66354"
         transform="translate(141.7324,30.24625)">
        <text
           xml:space="preserve"
           transform="scale(1,-1)"
           style="font-variant:normal;font-weight:normal;font-size:10px;font-family:'DejaVu Sans';-inkscape-font-specification:DejaVuSans;writing-mode:lr-tb;fill:#000000;fill-opacity:1;fill-rule:nonzero;stroke:none"
           id="text66358"><tspan
             x="0 6.3600001 12.72"
             y="0"
             sodipodi:role="line"
             id="tspan66356">200</tspan></text>
      </g>
      <path
         d="m 231.82474,44.84 v -3.5"
         style="fill:#000000;fill-opacity:1;fill-rule:nonzero;stroke:#000000;stroke-width:0.8;stroke-linecap:butt;stroke-linejoin:round;stroke-miterlimit:10;stroke-dasharray:none;stroke-opacity:1"
         id="path66360" />
      <g
         id="g66362"
         transform="translate(222.28568,30.24625)">
        <text
           xml:space="preserve"
           transform="scale(1,-1)"
           style="font-variant:normal;font-weight:normal;font-size:10px;font-family:'DejaVu Sans';-inkscape-font-specification:DejaVuSans;writing-mode:lr-tb;fill:#000000;fill-opacity:1;fill-rule:nonzero;stroke:none"
           id="text66366"><tspan
             x="0 6.3600001 12.72"
             y="0"
             sodipodi:role="line"
             id="tspan66364">400</tspan></text>
      </g>
      <path
         d="m 312.37802,44.84 v -3.5"
         style="fill:#000000;fill-opacity:1;fill-rule:nonzero;stroke:#000000;stroke-width:0.8;stroke-linecap:butt;stroke-linejoin:round;stroke-miterlimit:10;stroke-dasharray:none;stroke-opacity:1"
         id="path66368" />
      <g
         id="g66370"
         transform="translate(302.83896,30.24625)">
        <text
           xml:space="preserve"
           transform="scale(1,-1)"
           style="font-variant:normal;font-weight:normal;font-size:10px;font-family:'DejaVu Sans';-inkscape-font-specification:DejaVuSans;writing-mode:lr-tb;fill:#000000;fill-opacity:1;fill-rule:nonzero;stroke:none"
           id="text66374"><tspan
             x="0 6.3600001 12.72"
             y="0"
             sodipodi:role="line"
             id="tspan66372">600</tspan></text>
      </g>
      <path
         d="m 392.9313,44.84 v -3.5"
         style="fill:#000000;fill-opacity:1;fill-rule:nonzero;stroke:#000000;stroke-width:0.8;stroke-linecap:butt;stroke-linejoin:round;stroke-miterlimit:10;stroke-dasharray:none;stroke-opacity:1"
         id="path66376" />
      <g
         id="g66378"
         transform="translate(383.39224,30.24625)">
        <text
           xml:space="preserve"
           transform="scale(1,-1)"
           style="font-variant:normal;font-weight:normal;font-size:10px;font-family:'DejaVu Sans';-inkscape-font-specification:DejaVuSans;writing-mode:lr-tb;fill:#000000;fill-opacity:1;fill-rule:nonzero;stroke:none"
           id="text66382"><tspan
             x="0 6.3600001 12.72"
             y="0"
             sodipodi:role="line"
             id="tspan66380">800</tspan></text>
      </g>
      <path
         d="m 473.48458,44.84 v -3.5"
         style="fill:#000000;fill-opacity:1;fill-rule:nonzero;stroke:#000000;stroke-width:0.8;stroke-linecap:butt;stroke-linejoin:round;stroke-miterlimit:10;stroke-dasharray:none;stroke-opacity:1"
         id="path66384" />
      <g
         id="g66386"
         transform="translate(460.76583,30.24625)">
        <text
           xml:space="preserve"
           transform="scale(1,-1)"
           style="font-variant:normal;font-weight:normal;font-size:10px;font-family:'DejaVu Sans';-inkscape-font-specification:DejaVuSans;writing-mode:lr-tb;fill:#000000;fill-opacity:1;fill-rule:nonzero;stroke:none"
           id="text66390"><tspan
             x="0 6.3600001 12.72 19.08"
             y="0"
             sodipodi:role="line"
             id="tspan66388">1000</tspan></text>
      </g>
      <g
         id="g66392"
         transform="translate(246.43906,15.043125)">
        <text
           xml:space="preserve"
           transform="scale(1,-1)"
           style="font-variant:normal;font-weight:normal;font-size:12px;font-family:'DejaVu Sans';-inkscape-font-specification:DejaVuSans;writing-mode:lr-tb;fill:#000000;fill-opacity:1;fill-rule:nonzero;stroke:none"
           id="text66396"><tspan
             x="0 3.54 8.2440004 15.624 20.556 27.912001 32.616001 35.952 43.296001"
             y="0"
             sodipodi:role="line"
             id="tspan66394">Iteration</tspan></text>
      </g>
      <path
         d="M 50.6,55.401824 H 47.1"
         style="fill:#000000;fill-opacity:1;fill-rule:nonzero;stroke:#000000;stroke-width:0.8;stroke-linecap:butt;stroke-linejoin:round;stroke-miterlimit:10;stroke-dasharray:none;stroke-opacity:1"
         id="path66398" />
      <g
         id="g66400"
         transform="translate(27.69375,51.604949)">
        <text
           xml:space="preserve"
           transform="scale(1,-1)"
           style="font-variant:normal;font-weight:normal;font-size:10px;font-family:'DejaVu Sans';-inkscape-font-specification:DejaVuSans;writing-mode:lr-tb;fill:#000000;fill-opacity:1;fill-rule:nonzero;stroke:none"
           id="text66404"><tspan
             x="0 6.3600001 9.54"
             y="0"
             sodipodi:role="line"
             id="tspan66402">0.3</tspan></text>
      </g>
      <path
         d="M 50.6,87.407334 H 47.1"
         style="fill:#000000;fill-opacity:1;fill-rule:nonzero;stroke:#000000;stroke-width:0.8;stroke-linecap:butt;stroke-linejoin:round;stroke-miterlimit:10;stroke-dasharray:none;stroke-opacity:1"
         id="path66406" />
      <g
         id="g66408"
         transform="translate(27.69375,83.610459)">
        <text
           xml:space="preserve"
           transform="scale(1,-1)"
           style="font-variant:normal;font-weight:normal;font-size:10px;font-family:'DejaVu Sans';-inkscape-font-specification:DejaVuSans;writing-mode:lr-tb;fill:#000000;fill-opacity:1;fill-rule:nonzero;stroke:none"
           id="text66412"><tspan
             x="0 6.3600001 9.54"
             y="0"
             sodipodi:role="line"
             id="tspan66410">0.4</tspan></text>
      </g>
      <path
         d="M 50.6,119.41284 H 47.1"
         style="fill:#000000;fill-opacity:1;fill-rule:nonzero;stroke:#000000;stroke-width:0.8;stroke-linecap:butt;stroke-linejoin:round;stroke-miterlimit:10;stroke-dasharray:none;stroke-opacity:1"
         id="path66414" />
      <g
         id="g66416"
         transform="translate(27.69375,115.61597)">
        <text
           xml:space="preserve"
           transform="scale(1,-1)"
           style="font-variant:normal;font-weight:normal;font-size:10px;font-family:'DejaVu Sans';-inkscape-font-specification:DejaVuSans;writing-mode:lr-tb;fill:#000000;fill-opacity:1;fill-rule:nonzero;stroke:none"
           id="text66420"><tspan
             x="0 6.3600001 9.54"
             y="0"
             sodipodi:role="line"
             id="tspan66418">0.5</tspan></text>
      </g>
      <path
         d="M 50.6,151.41835 H 47.1"
         style="fill:#000000;fill-opacity:1;fill-rule:nonzero;stroke:#000000;stroke-width:0.8;stroke-linecap:butt;stroke-linejoin:round;stroke-miterlimit:10;stroke-dasharray:none;stroke-opacity:1"
         id="path66422" />
      <g
         id="g66424"
         transform="translate(27.69375,147.62148)">
        <text
           xml:space="preserve"
           transform="scale(1,-1)"
           style="font-variant:normal;font-weight:normal;font-size:10px;font-family:'DejaVu Sans';-inkscape-font-specification:DejaVuSans;writing-mode:lr-tb;fill:#000000;fill-opacity:1;fill-rule:nonzero;stroke:none"
           id="text66428"><tspan
             x="0 6.3600001 9.54"
             y="0"
             sodipodi:role="line"
             id="tspan66426">0.6</tspan></text>
      </g>
      <path
         d="M 50.6,183.42386 H 47.1"
         style="fill:#000000;fill-opacity:1;fill-rule:nonzero;stroke:#000000;stroke-width:0.8;stroke-linecap:butt;stroke-linejoin:round;stroke-miterlimit:10;stroke-dasharray:none;stroke-opacity:1"
         id="path66430" />
      <g
         id="g66432"
         transform="translate(27.69375,179.62699)">
        <text
           xml:space="preserve"
           transform="scale(1,-1)"
           style="font-variant:normal;font-weight:normal;font-size:10px;font-family:'DejaVu Sans';-inkscape-font-specification:DejaVuSans;writing-mode:lr-tb;fill:#000000;fill-opacity:1;fill-rule:nonzero;stroke:none"
           id="text66436"><tspan
             x="0 6.3600001 9.54"
             y="0"
             sodipodi:role="line"
             id="tspan66434">0.7</tspan></text>
      </g>
      <path
         d="M 50.6,215.42937 H 47.1"
         style="fill:#000000;fill-opacity:1;fill-rule:nonzero;stroke:#000000;stroke-width:0.8;stroke-linecap:butt;stroke-linejoin:round;stroke-miterlimit:10;stroke-dasharray:none;stroke-opacity:1"
         id="path66438" />
      <g
         id="g66440"
         transform="translate(27.69375,211.6325)">
        <text
           xml:space="preserve"
           transform="scale(1,-1)"
           style="font-variant:normal;font-weight:normal;font-size:10px;font-family:'DejaVu Sans';-inkscape-font-specification:DejaVuSans;writing-mode:lr-tb;fill:#000000;fill-opacity:1;fill-rule:nonzero;stroke:none"
           id="text66444"><tspan
             x="0 6.3600001 9.54"
             y="0"
             sodipodi:role="line"
             id="tspan66442">0.8</tspan></text>
      </g>
      <path
         d="M 50.6,247.43488 H 47.1"
         style="fill:#000000;fill-opacity:1;fill-rule:nonzero;stroke:#000000;stroke-width:0.8;stroke-linecap:butt;stroke-linejoin:round;stroke-miterlimit:10;stroke-dasharray:none;stroke-opacity:1"
         id="path66446" />
      <g
         id="g66448"
         transform="translate(27.69375,243.63801)">
        <text
           xml:space="preserve"
           transform="scale(1,-1)"
           style="font-variant:normal;font-weight:normal;font-size:10px;font-family:'DejaVu Sans';-inkscape-font-specification:DejaVuSans;writing-mode:lr-tb;fill:#000000;fill-opacity:1;fill-rule:nonzero;stroke:none"
           id="text66452"><tspan
             x="0 6.3600001 9.54"
             y="0"
             sodipodi:role="line"
             id="tspan66450">0.9</tspan></text>
      </g>
      <g
         id="g66454"
         transform="rotate(90,-34.225625,55.419375)">
        <text
           xml:space="preserve"
           transform="scale(1,-1)"
           style="font-variant:normal;font-weight:normal;font-size:12px;font-family:'DejaVu Sans';-inkscape-font-specification:DejaVuSans;writing-mode:lr-tb;fill:#000000;fill-opacity:1;fill-rule:nonzero;stroke:none"
           id="text66458"><tspan
             x="0 7.0328751 11.714875 19.094875 26.714874 30.050875 36.650875 41.354874 44.690876 52.034874 59.642876 63.458874 71.463753 78.063751 84.66375 92.271751 97.203751 104.55975 111.15975 118.26375 122.07975 126.75975 138.15974"
             y="0"
             sodipodi:role="line"
             id="tspan66456">Prediction Accuracy (%)</tspan></text>
      </g>
      <path
         d="M 50.6,44.84 V 277.2"
         style="fill:none;stroke:#000000;stroke-width:0.8;stroke-linecap:square;stroke-linejoin:miter;stroke-miterlimit:10;stroke-dasharray:none;stroke-opacity:1"
         id="path66460" />
      <path
         d="M 493.2,44.84 V 277.2"
         style="fill:none;stroke:#000000;stroke-width:0.8;stroke-linecap:square;stroke-linejoin:miter;stroke-miterlimit:10;stroke-dasharray:none;stroke-opacity:1"
         id="path66462" />
      <path
         d="M 50.6,44.84 H 493.2"
         style="fill:none;stroke:#000000;stroke-width:0.8;stroke-linecap:square;stroke-linejoin:miter;stroke-miterlimit:10;stroke-dasharray:none;stroke-opacity:1"
         id="path66464" />
      <path
         d="M 50.6,277.2 H 493.2"
         style="fill:none;stroke:#000000;stroke-width:0.8;stroke-linecap:square;stroke-linejoin:miter;stroke-miterlimit:10;stroke-dasharray:none;stroke-opacity:1"
         id="path66466" />
      <path
         d="m 426.74687,264.10625 h 10 10"
         style="fill:none;stroke:#ff0000;stroke-width:1.5;stroke-linecap:square;stroke-linejoin:round;stroke-miterlimit:10;stroke-dasharray:none;stroke-opacity:1"
         id="path66468" />
      <g
         id="g66470"
         transform="translate(454.74687,260.60625)">
        <text
           xml:space="preserve"
           transform="scale(1,-1)"
           style="font-variant:normal;font-weight:normal;font-size:10px;font-family:'DejaVu Sans';-inkscape-font-specification:DejaVuSans;writing-mode:lr-tb;fill:#000000;fill-opacity:1;fill-rule:nonzero;stroke:none"
           id="text66474"><tspan
             x="0 6.3499999 14.22 21.700001"
             y="0"
             sodipodi:role="line"
             id="tspan66472">SONG</tspan></text>
      </g>
    </g>
    <g
       id="g66476">
      <g
         id="g66478"
         clip-path="url(#clipPath66482)">
        <path
           d="m 70.718182,77.805678 0.402766,12.802206 0.402767,-25.604412 0.402766,22.403859 0.402766,32.005499 0.402767,-28.804951 0.402766,-6.401096 0.402767,3.200548 0.402766,35.206059 0.402766,-28.804954 0.402767,9.601654 0.402766,-3.20056 0.402767,51.20882 0.402766,-3.20056 h 0.402766 l 0.402767,6.40111 0.402766,-38.40661 h 0.402767 l 0.402766,38.40661 0.402766,-9.60165 0.402767,-54.409371 0.402766,28.804961 0.402767,9.60165 0.402766,-16.00276 0.402766,12.80221 0.402767,48.00826 0.402766,-32.0055 0.402767,3.20055 0.402766,-6.40111 0.402766,25.60441 0.402767,-22.40385 0.402766,22.40385 h 0.402767 l 0.402766,12.8022 0.402767,-6.4011 0.402766,-28.80495 0.402766,25.6044 0.402767,-19.2033 h 0.402766 l 0.402767,-28.80496 0.402766,25.60441 h 0.402766 l 0.402767,19.2033 0.402766,-12.8022 0.402767,25.60441 0.805532,-28.80497 0.402767,22.40387 0.402766,-9.60167 0.402767,12.80222 0.402766,-3.20055 0.402766,6.40109 0.402767,-22.40385 0.402766,3.20055 0.402767,12.80221 0.402766,-28.80496 0.402766,25.6044 0.402767,6.40111 0.402766,-6.4011 H 94.4814 l 0.402766,22.40384 0.402766,-32.0055 0.402767,6.4011 0.805533,-12.8022 0.402766,32.0055 0.402766,-25.6044 0.402767,25.60441 0.402766,-25.60441 0.402767,28.80496 0.402766,-19.2033 0.402766,9.60164 0.402767,16.00276 0.402767,-16.00276 0.40277,6.40111 0.40276,-32.00551 0.40277,32.0055 0.40277,-51.20881 0.40276,12.80221 0.40277,54.40937 0.40276,-28.80496 0.40277,19.2033 0.40277,-25.60441 0.40276,9.60166 0.40277,-9.60166 0.40277,28.80496 0.40276,-32.00551 0.40277,6.40111 0.40277,51.2088 0.80553,-67.21156 0.40276,22.40386 0.40277,3.20054 0.40277,-9.60165 0.40276,22.40386 0.40277,-12.8022 0.40277,19.2033 0.40276,-9.60165 0.40277,-6.4011 0.40277,12.8022 0.40276,-16.00276 0.40277,-9.60165 0.40276,-3.20055 0.40277,28.80495 0.40277,-12.8022 0.40276,-35.20605 0.40277,38.40661 0.40277,-12.8022 0.40276,12.8022 0.40277,-19.20331 0.40277,38.40662 0.40276,-44.80772 0.40277,-6.4011 0.40276,41.60716 0.40277,-16.00276 0.40277,28.80496 0.40277,-48.00825 0.40276,44.80771 0.40277,-35.20607 0.40276,-6.40111 0.80554,38.40663 0.40276,-1e-5 0.40277,-19.20331 0.40277,6.40111 0.40276,32.0055 0.40277,-35.20605 0.40277,-22.40386 0.40276,12.80221 0.40277,25.6044 0.40276,6.4011 0.40277,-19.2033 0.40277,16.00276 0.40276,-38.40662 0.40277,44.80772 0.40277,-38.40662 0.40276,-3.20055 0.40277,19.20331 0.40277,-3.20055 0.40276,6.4011 0.80554,-6.4011 0.40276,-6.40111 0.40277,9.60166 h 0.40276 l 0.40277,-16.00276 0.80553,28.80496 0.40277,1e-5 0.40277,-9.60167 0.40276,16.00276 0.40277,-16.00275 0.40276,-6.4011 0.40277,6.40109 0.40277,3.20056 0.40276,-19.2033 0.40277,-3.20055 0.40277,16.00275 0.40276,9.60165 0.40277,12.8022 0.40277,-28.80495 0.40276,12.8022 0.40277,-6.40109 0.40276,12.80219 0.40277,-28.80496 0.40277,32.00552 0.40276,-32.00551 0.40277,22.40385 0.40277,-6.4011 0.40276,6.4011 0.40277,12.8022 0.40277,3.20055 0.40276,-38.4066 0.40277,-12.8022 0.40277,38.4066 0.40276,-25.6044 0.40277,35.20605 0.40276,-28.80496 0.40277,22.40387 0.40277,-9.60167 0.40276,-38.40661 0.40277,38.40662 0.40277,12.80221 h 0.40276 l 0.40277,-16.00276 0.40277,9.60165 0.40276,6.4011 0.40277,-9.60165 0.40277,-6.4011 0.40276,-9.60165 0.40277,19.20331 0.40276,-12.80221 0.40277,32.00551 0.80553,-32.00551 0.40277,22.40385 0.40277,-12.8022 h 0.80553 l 0.40277,9.60166 0.40276,-19.20331 0.40277,35.20605 0.40276,16.00275 0.40277,-6.40109 0.40277,-19.20331 0.40276,-38.4066 0.40277,16.00275 0.40277,10e-6 0.40276,-3.20056 0.40277,16.00276 0.80553,-28.80497 0.40277,12.8022 0.40277,-6.40109 0.40276,22.40386 0.40277,-22.40386 0.40276,9.60166 0.40277,-12.80222 0.40277,32.00551 0.40276,-3.20055 0.40277,-12.8022 0.40277,-6.4011 0.40276,9.60165 0.80554,6.4011 0.40276,-9.60166 0.40277,22.40387 0.40276,-16.00276 0.40277,3.20056 0.40277,9.60165 0.40276,-6.4011 0.40277,-3.20055 0.40277,12.80219 0.80553,-19.2033 0.40277,12.8022 0.40276,-16.00275 0.40277,38.40661 0.40277,-22.40386 0.40276,9.60166 0.40277,3.20054 0.40276,-3.20054 0.40277,-6.40111 0.40277,16.00276 0.40276,-32.00551 0.40277,22.40385 0.40277,-12.80219 0.40276,16.00274 0.40277,-9.60165 0.40277,9.60165 0.40276,-28.80495 0.40277,22.40386 0.40276,-32.00551 0.40277,9.60165 0.40277,16.00275 0.40276,-9.60165 0.40277,-12.8022 0.40277,32.0055 0.40276,-12.80219 0.40277,6.40109 0.40277,-9.60165 h 0.40276 l 0.40277,-3.20055 0.40277,6.40111 0.40276,22.40384 0.40277,-28.80495 0.40277,-3.20056 0.40276,19.20331 h 0.40277 l 0.40276,-16.00275 0.40277,22.40385 0.40277,3.20055 0.40276,-28.80495 0.80554,-6.40109 0.40276,22.40384 0.40277,3.20055 0.40276,-16.00275 0.40277,-3.20055 0.40277,16.00275 0.40276,-38.4066 0.80554,35.20605 0.40276,-12.8022 0.40277,12.8022 h 0.40277 l 0.40276,28.80495 0.40277,-60.81045 0.40277,19.2033 0.40276,6.4011 0.40277,9.60165 0.40276,12.8022 0.40277,-16.00275 0.40277,12.8022 0.40276,-6.4011 0.40277,-32.00551 0.40277,32.00551 0.40276,12.80221 0.40277,-35.20607 0.40277,28.80497 0.80553,-25.60442 0.40276,16.00276 0.40277,-12.8022 0.40277,-22.40385 0.40276,44.8077 0.40277,-16.00275 h 0.40277 l 0.40276,-6.4011 0.40277,6.40111 h 0.40277 l 0.40276,6.4011 0.40277,-1e-5 0.40277,-3.20055 0.40276,-9.60165 0.40277,-3.20055 0.40276,44.80771 0.40277,-48.00826 0.40277,6.4011 1.2083,9.60165 0.40276,-6.4011 0.40277,6.4011 0.40277,12.80221 0.40276,-12.80221 0.40277,6.4011 0.40277,3.20056 0.80553,-19.2033 0.40276,3.20055 0.80554,19.20329 0.40276,-3.20055 0.80554,-22.40385 0.40276,44.80771 0.40277,-51.2088 0.40277,22.40385 0.40276,-9.60166 0.40277,19.2033 0.40276,-12.8022 0.40277,-19.2033 0.40277,16.00276 0.40276,9.60165 0.40277,-22.40386 0.40277,16.00275 0.40276,-12.8022 0.40277,22.40386 0.40277,-35.20607 0.40276,44.80772 0.40277,-25.6044 0.40277,-3.20056 0.40276,-6.4011 0.40277,35.20606 0.40276,-54.40936 0.40277,57.60991 0.80553,-19.20331 0.40277,-16.00275 0.40277,32.00551 0.80553,-28.80496 0.40277,25.6044 0.80553,-38.4066 0.40276,22.40385 0.40277,-6.40109 0.40277,9.60164 0.40276,-16.00275 0.80554,12.8022 0.40276,-6.4011 0.40277,-3.20054 0.40277,3.20054 0.40276,9.60166 0.40277,6.4011 0.40277,-19.20331 0.80553,41.60716 0.40276,-32.00551 0.80554,6.4011 0.40276,-9.60164 0.40277,3.20054 0.40277,16.00275 0.40276,-6.40109 0.40277,-16.00275 0.40277,6.40109 0.40276,-12.8022 0.40277,12.8022 0.40276,-6.40109 0.40277,22.40384 0.40277,-19.20329 0.40277,-9.60166 0.40276,19.2033 0.40277,-6.4011 0.40276,3.20055 0.40277,6.40111 h 0.40277 l 0.40276,6.4011 0.40277,16.00275 0.40277,-25.6044 0.40276,22.40384 0.40277,-28.80495 0.40276,19.20331 0.40277,-12.8022 0.40277,16.00275 0.40276,-25.60441 0.40277,12.80221 0.40277,-3.20055 0.40276,3.20055 0.40277,-16.00276 0.40277,22.40385 0.40276,-25.6044 0.40277,-6.40111 0.40276,25.60441 0.40277,-12.8022 0.40277,12.80221 0.40276,-3.20056 0.40277,12.80221 0.40277,-35.20606 0.40276,3.20055 0.40277,25.6044 0.40277,6.40111 0.40276,-16.00276 0.40277,9.60165 0.40277,-12.8022 0.40276,19.20331 0.40277,-9.60165 h 0.40276 l 0.40277,-3.20056 0.40277,1e-5 0.40276,-3.20056 0.40277,-6.40109 0.40277,22.40385 0.40276,-3.20055 0.40277,-12.80221 0.40277,12.80221 0.40276,-19.2033 0.40277,-6.40111 0.40276,-16.00275 0.40277,28.80496 0.40277,-1e-5 0.40276,-44.80771 0.40277,54.40936 0.40277,-6.40109 0.40276,-16.00275 0.40277,-3.20056 0.40277,22.40386 0.40276,3.20054 h 0.40277 l 0.80553,-6.4011 0.40277,-19.2033 0.40276,9.60166 0.40277,12.80219 0.80553,1e-5 0.40277,-3.20055 0.40277,9.60165 0.40276,12.80219 h 0.40277 l 0.40277,-35.20605 0.40276,16.00276 0.40277,-16.00276 0.40277,-3.20055 0.80553,6.40111 0.40277,-1e-5 0.40276,12.80221 h 0.40277 l 0.40276,6.4011 0.40277,-16.00276 h 0.40277 l 0.40276,12.8022 0.40277,-3.20055 0.40277,-6.4011 0.40276,22.40387 0.40277,-6.40111 0.40276,-9.60165 0.40277,-6.4011 0.40277,16.00275 0.40276,-19.20331 0.40277,6.4011 0.40277,-9.60165 0.40276,-25.60441 0.40277,57.60992 0.40277,-16.00276 0.40276,16.00276 0.40277,-51.20881 0.40277,19.20331 0.80553,12.8022 h 0.40277 l 0.40276,9.60165 0.40277,-19.20331 0.40276,-12.8022 0.40277,9.60165 0.40277,32.00551 0.40276,-22.40385 0.40277,9.60165 0.40277,6.4011 0.40276,-19.20331 0.40277,9.60165 0.40276,-3.20055 0.40277,-9.60165 0.40277,-3.20054 0.40276,-1e-5 0.80554,-6.4011 0.40276,12.8022 0.40277,28.80496 0.40277,-28.80496 0.40276,-3.20055 0.40277,22.40386 0.40277,-3.20055 0.40276,-9.60165 h 0.40277 l 0.40276,-16.00275 0.40277,3.20055 0.40277,9.60164 0.40276,19.20331 0.40277,-22.40386 0.40277,6.40111 0.40276,16.00275 0.40277,-28.80495 0.40277,-9.60166 0.40276,3.20056 0.40277,22.40384 0.40276,-35.20605 0.40277,28.80496 0.40277,-9.60165 0.40276,3.20054 0.40277,25.60441 0.40277,-16.00275 0.40276,9.60165 0.40277,-32.00551 0.40277,3.20055 0.40276,35.20606 0.80554,-57.60991 0.40276,48.00825 0.40277,-9.60164 0.40276,3.20055 0.40277,-12.8022 0.80553,35.20605 0.40277,-38.4066 0.40277,12.8022 0.40276,6.40109 0.40277,-12.8022 0.40277,12.80221 0.40276,-3.20055 0.40277,-9.60166 0.40276,3.20055 0.40277,-6.4011 0.40277,1e-5 0.80553,-6.40111 0.40277,32.00551 0.40276,3.20056 0.40277,-28.80496 0.40277,16.00274 0.40276,-22.40385 0.40277,38.40661 0.40277,-32.0055 0.40276,-9.60166 0.40277,28.80495 0.40276,6.40111 0.40277,-12.8022 0.40277,3.20054 0.40276,-12.8022 0.40277,12.8022 0.40277,-12.8022 0.40276,-6.4011 0.40277,6.4011 0.40277,-6.4011 0.40276,1e-5 0.40277,22.40385 0.40276,6.4011 0.40277,-9.60166 0.80553,-28.80496 0.40277,25.60442 0.40277,12.8022 0.40276,6.40109 0.40277,-19.2033 0.40277,-6.4011 0.40276,6.4011 0.40277,25.60441 0.40277,-12.8022 0.80553,-6.40111 0.80553,-25.6044 0.40277,35.20606 1.2083,-41.60717 1.2083,41.60717 0.40276,-19.2033 0.40277,-3.20056 0.40276,6.40111 0.40277,16.00276 0.40277,-19.20331 0.40276,-9.60165 0.40277,-6.40111 0.40277,16.00276 0.40276,-6.40111 0.40277,28.80495 0.40277,6.40111 0.40276,-6.4011 0.40277,-16.00276 0.80553,-19.20329 0.40277,32.00551 0.40276,-22.40387 0.40277,16.00276 0.40277,-6.40111 0.40276,-19.2033 0.40277,12.80221 0.40277,-12.80221 0.40276,32.00552 0.40277,-19.20332 0.40277,28.80496 0.40276,-19.20331 0.40277,-3.20055 0.40277,-6.40109 0.40276,-25.60441 1.2083,48.00826 0.40277,-3.20054 0.40276,-16.00277 0.40277,-3.20054 0.40277,-9.60165 0.40276,6.40109 0.40277,22.40387 0.40277,-19.20331 0.40276,-9.60165 0.40277,25.6044 0.80553,-6.40111 0.40277,-9.60165 0.40276,16.00276 0.40277,-25.60441 0.40277,19.20331 h 0.40276 l 0.40277,-12.80221 h 0.40277 l 0.40276,12.8022 0.40277,-12.8022 0.40277,-25.6044 0.40276,44.80771 0.40277,-3.20055 0.40276,-41.60716 0.40277,44.80771 0.40277,-9.60166 0.40276,-19.2033 0.40277,28.80496 0.40277,-6.40111 0.40276,-16.00275 0.40277,16.00276 0.40277,-6.4011 0.40276,-19.20331 0.40277,25.60441 0.40276,-6.4011 0.40277,22.40385 0.40277,-25.6044 0.40276,-12.8022 0.40277,16.00275 0.40277,-6.40111 0.40276,22.40387 0.40277,-38.40662 0.80553,44.80771 0.40277,-19.20331 0.40277,25.60442 0.80553,-35.20607 0.40276,3.20056 0.40277,22.40385 0.40277,-12.8022 0.40276,3.20054 0.40277,-6.4011 0.40277,1e-5 0.40276,-25.60442 0.40277,32.00552 h 0.40277 l 0.40276,-16.00276 0.40277,25.60441 0.40276,-25.60441 0.40277,3.20055 0.80553,1e-5 0.40277,3.20055 0.40277,-16.00276 0.40276,12.80221 0.40277,6.4011 0.40277,3.20055 0.40276,-9.60166 h 0.40277 l 0.40277,12.80221 0.40276,-22.40386 0.40277,12.80221 h 0.40276 l 0.40277,-9.60166 0.40277,19.20331 0.40276,-3.20056 h 0.40277 l 0.40277,-6.40109 0.40276,12.8022 0.40277,-38.40661 0.40277,32.0055 0.40276,16.00276 0.40277,-19.20331 0.80553,-6.40109 0.40277,-6.40111 0.40276,22.40386 0.40277,-16.00275 0.40277,16.00275 0.40276,-6.40111 0.40277,-16.00275 0.40277,19.20331 0.40276,-3.20055 0.40277,-12.80221 0.40277,6.40111 0.40276,-19.20331 0.40277,12.8022 0.40276,-12.8022 0.40277,25.6044 0.40277,-9.60164 0.40276,6.4011 0.40277,-1e-5 0.40277,-28.80496 0.40276,3.20055 0.40277,32.00551 0.40277,1e-5 0.40276,-19.20331 0.40277,-3.20054 0.40276,35.20605 0.40277,-16.00276 0.40277,-35.20605 0.40277,38.40661 0.40276,-6.40111 0.40277,6.4011 0.40276,-12.80219 0.80554,28.80495 0.40276,-16.00275 0.40277,-9.60165 0.40277,-25.60441 0.40276,35.20606 0.40277,6.4011 0.40276,-44.8077 0.40277,25.60439 0.80553,-6.4011 0.40277,9.60166 0.40277,-3.20055 0.40276,25.6044 0.80554,-12.8022 0.40276,9.60164 0.40277,-16.00275 0.40277,3.20055 0.40276,-6.40109 0.40277,9.60164 0.40277,-3.20055 0.40276,9.60166 0.40277,-9.60166 0.40276,-6.40109 0.40277,-16.00276 0.40277,19.2033 0.40276,-3.20054 0.40277,-16.00276 0.40277,9.60166 0.40276,16.00275 0.40277,-12.8022 0.40276,9.60164 0.40277,6.40111 0.40277,-25.60441 0.40276,3.20055 0.40277,38.40661 0.40277,-22.40386 0.40276,-9.60165 0.40277,-6.4011 0.40277,19.20331 0.40276,-3.20056 0.40277,-16.00275 0.40277,-9.60165 0.40276,22.40385 0.40277,-19.2033 0.40276,19.2033 0.40277,-9.60165 0.40277,12.8022 h 0.40276 l 0.40277,-19.20329 0.40277,22.40385 0.40276,-6.40111 0.40277,6.40111 0.40277,-9.60165 0.40276,-12.8022 0.40277,12.8022 0.80553,-6.40111 0.40277,-12.8022 0.80553,22.40386 0.40277,-19.20331 0.80553,28.80496 h 0.40277 l 0.40276,3.20055 0.80554,-28.80495 0.40276,6.40109 h 0.40277 l 0.40276,19.20331 0.40277,-9.60166 0.40277,9.60166 0.40276,-6.40111 h 0.40277 l 0.40277,12.80221 0.40276,-19.2033 0.40277,-12.80221 0.40277,16.00275 0.80553,-6.4011 0.40276,9.60166 0.40277,-16.00276 0.40277,-9.60165 0.40276,22.40385 0.40277,-3.20054 0.40277,-6.4011 0.40276,12.8022 0.40277,-6.4011 0.40277,3.20054 0.40276,-3.20054 0.40277,9.60165 0.40277,16.00276 0.40276,-6.40111 0.40277,3.20055 0.80553,-28.80495 0.40277,12.80219 0.40276,6.40111 0.40277,-6.4011 0.80553,6.4011 0.40277,-3.20056 0.40277,-19.2033 0.40276,19.20331 0.40277,-22.40385 0.40276,22.40385 0.40277,9.60164 0.40277,3.20056 0.40276,-44.80771 0.40277,16.00275 0.40277,-9.60165 0.40276,3.20055 0.40277,19.2033 0.40277,3.20056 0.40276,-1e-5 0.40277,-3.20055 0.40277,16.00276 0.80553,-28.80495 0.40276,-1e-5 0.40277,19.20331 0.40277,-9.60166 0.40276,-6.4011 0.40277,-3.20055 0.40277,-12.8022 0.40276,12.8022 h 1.2083 l 0.40277,6.40111 0.40276,22.40385 0.40277,-44.80772 0.40277,19.20331 0.40276,6.4011 0.40277,22.40386 0.80553,-12.8022 0.40277,-3.20056 0.40277,-9.60164 0.40276,3.20054 0.40277,25.60442 0.40277,-22.40387 0.40276,3.20056 0.40277,-9.60165 0.80553,6.40109 0.40277,-32.00551 0.40276,38.40662 0.40277,-9.60166 0.40277,-3.20054 0.40276,6.40109 0.40277,-6.40109 0.40277,9.60165 0.40276,-16.00275 0.40277,-3.20056 0.40277,9.60166 0.40276,6.40109 h 0.40277 l 0.40276,3.20055 0.40277,-9.60165 0.40277,-19.2033 0.80553,28.80496 0.40277,-3.20056 0.80553,12.80221 0.40277,-3.20055 0.40276,1e-5 0.40277,-3.20056 h 0.80553 l 0.40277,-22.40386 0.40276,3.20055 0.40277,19.20331 0.40277,-6.4011 0.40276,-9.60165 0.40277,-3.20056 0.40277,9.60165 0.40276,35.20606 0.40277,-35.20606 0.40277,-22.40385 0.40276,35.20606 0.40277,-12.80221 0.40276,-19.2033 0.40277,22.40386 0.40277,6.4011 h 0.40276 l 0.40277,-16.00275 0.40277,-9.60165 0.40276,22.40385 0.40277,-3.20056 0.40277,1e-5 0.40276,-9.60165 0.40277,9.60164 0.40276,3.20056 0.40277,-16.00275 0.40277,12.80219 0.40276,-6.40109 h 0.40277 l 0.40277,22.40385 0.40276,-22.40385 0.40277,16.00275 0.80553,-28.80495 0.40277,6.40109 0.40277,25.60441 0.40276,-12.8022 0.40277,-6.4011 0.40276,25.6044 0.40277,-19.20331 0.80553,-6.40109 0.40277,-9.60166 0.80553,6.40111 0.40277,16.00275 0.40277,-12.80221 0.40276,9.60166 0.40277,16.00276 0.40276,-3.20056 0.40277,-25.6044 0.40277,16.00275 0.40276,-3.20055 0.40277,-6.4011 0.40277,19.2033 0.40276,-3.20056 0.40277,-19.20329 h 0.40277 l 0.80553,19.2033 0.40277,-6.4011 0.40276,-16.00275 0.40277,6.40109 0.40277,9.60166 0.40276,-9.60166 0.80553,-6.4011 0.40277,3.20056 0.40277,-19.20331 0.40276,28.80495 0.40277,-12.8022 0.40277,-3.20054 0.40276,16.00275 0.40277,-19.20331 0.80553,28.80495 0.40277,-12.8022 v 0"
           style="fill:none;stroke:#ff0000;stroke-width:1.5;stroke-linecap:square;stroke-linejoin:round;stroke-miterlimit:10;stroke-dasharray:none;stroke-opacity:1"
           id="path66484" />
      </g>
    </g>
  </g>
</svg>
