<?xml version="1.0" encoding="UTF-8" standalone="no"?>
<!-- Created with Inkscape (http://www.inkscape.org/) -->

<svg
   version="1.1"
   id="svg195095"
   width="672"
   height="384"
   viewBox="0 0 672 384"
   sodipodi:docname="accuracy_integrator.pdf"
   xmlns:inkscape="http://www.inkscape.org/namespaces/inkscape"
   xmlns:sodipodi="http://sodipodi.sourceforge.net/DTD/sodipodi-0.dtd"
   xmlns="http://www.w3.org/2000/svg"
   xmlns:svg="http://www.w3.org/2000/svg">
  <defs
     id="defs195099">
    <clipPath
       clipPathUnits="userSpaceOnUse"
       id="clipPath195115">
      <path
         d="M 50.6,44.84 H 493.2 V 277.2 H 50.6 Z"
         id="path195113" />
    </clipPath>
    <clipPath
       clipPathUnits="userSpaceOnUse"
       id="clipPath195243">
      <path
         d="M 50.6,44.84 H 493.2 V 277.2 H 50.6 Z"
         id="path195241" />
    </clipPath>
  </defs>
  <sodipodi:namedview
     id="namedview195097"
     pagecolor="#ffffff"
     bordercolor="#000000"
     borderopacity="0.25"
     inkscape:showpageshadow="2"
     inkscape:pageopacity="0.0"
     inkscape:pagecheckerboard="0"
     inkscape:deskcolor="#d1d1d1"
     showgrid="false">
    <inkscape:page
       x="0"
       y="0"
       id="page195101"
       width="672"
       height="384" />
  </sodipodi:namedview>
  <g
     id="g195103"
     inkscape:groupmode="layer"
     inkscape:label="Page 1"
     transform="matrix(1.3333333,0,0,-1.3333333,0,384)">
    <g
       id="g195109">
      <g
         id="g195111"
         clip-path="url(#clipPath195115)">
        <path
           d="m 70.718182,95.885858 v -40.48404 l 0.406428,0.999857 0.406428,1.716171 0.406428,6.180268 0.406427,5.173806 0.406428,7.892645 0.406428,7.760947 0.406428,1.72149 0.406428,1.047381 0.406428,1.846369 0.406428,7.918778 0.406428,0.530482 0.406428,5.343708 0.406428,1.58319 0.406428,-2.23642 0.406428,-7.041079 0.406427,1.14333 0.406428,3.706139 0.406428,3.83376 0.406428,-0.33545 0.406428,2.16465 0.406428,6.53773 0.406428,1.94089 0.406428,2.84343 0.406428,7.49984 0.406428,11.25338 0.406428,-0.55172 0.406428,4.42702 0.406427,0.66311 0.406428,1.45871 0.406428,-5.46067 0.406428,1.55925 0.406428,-0.52608 0.406428,-0.21468 0.406428,-1.97748 0.406428,0.82401 0.406428,1.53548 0.406428,-1.34269 0.406428,4.64175 0.406428,2.95278 0.406427,6.60131 0.406428,-0.28992 0.406428,4.27108 0.406428,1.2236 0.406428,0.67591 0.406428,-2.54195 0.406428,-1.52842 0.406428,1.70764 0.406428,-0.44407 0.406428,-1.81903 0.406428,-1.82641 0.406428,3.264 0.406427,-1.09867 0.406428,0.88364 0.406428,0.59188 0.406428,-1.6524 0.406428,3.86839 0.406428,-2.06669 0.406428,2.14045 0.406428,1.30238 0.406428,1.32538 0.406428,-0.30031 0.406428,2.67762 0.406427,3.13511 0.406428,2.4813 0.406428,4.56326 0.406428,-3.7758 0.406428,2.62321 0.406428,-6.61814 0.406428,-2.60476 0.406428,4.5408 0.406428,0.46174 0.406428,1.31638 0.406428,-3.74409 0.40643,-1.99915 0.40643,-3.36644 0.40642,6.03353 0.40643,-1.21668 0.40643,4.62381 0.40643,7.05704 0.40643,-3.16746 0.40642,-2.8331 0.40643,-5.15973 0.40643,-0.59918 0.40643,-0.42455 0.40643,4.35147 0.40642,-2.36401 0.40643,1.02055 0.40643,0.52459 0.40643,-0.87231 0.40642,1.12866 0.40643,2.76215 0.40643,1.91209 0.40643,0.27277 0.40643,3.48767 0.40642,-3.88555 0.40643,-6.55253 0.40643,2.60405 0.40643,-2.21594 0.40643,0.10394 0.40642,-3.93294 0.40643,1.52265 0.40643,-0.95605 0.40643,-1.23184 0.40643,0.0915 0.40642,1.648 0.40643,9.78609 0.40643,-3.7751 0.40643,6.44096 0.40643,-2.73961 0.40642,-0.78813 0.40643,0.12535 0.40643,5.91834 0.40643,3.25178 0.40642,-2.72025 0.40643,-0.15298 0.40643,-0.6783 0.40643,2.95038 0.40643,-5.89162 0.40642,-0.18748 0.40643,4.90885 0.40643,2.985 0.40643,-4.80265 0.40643,4.8639 0.40642,-0.18824 0.40643,1.64801 0.40643,-2.86751 0.40643,-3.63571 0.40643,-0.0104 0.40642,3.15463 0.40643,-0.0334 0.40643,-3.00974 0.40643,2.59561 0.40642,-4.3841 0.40643,0.76533 0.40643,-0.35629 0.40643,0.0715 0.40643,4.74366 0.40642,4.58551 0.40643,-1.76734 0.40643,-0.51868 0.40643,3.32076 0.40643,-1.2393 0.40642,1.43372 0.40643,1.19982 0.40643,-0.63873 0.40643,0.824 0.40642,-3.58201 0.40643,-2.29613 0.40643,1.74781 0.40643,1.81055 0.40643,-4.15637 0.40642,1.43371 h 0.40643 l 0.40643,2.61283 0.40643,-3.65794 0.40643,2.03996 0.40642,1.65076 0.40643,2.78865 0.40643,-2.12363 0.40643,-2.2479 0.40643,-0.19277 0.40642,3.3193 0.40643,-2.12638 0.40643,-6.18896 0.40643,5.06587 0.40643,-2.793 0.40642,3.79142 0.40643,-2.4813 0.40643,2.68398 0.40643,-0.7457 0.40642,-3.56533 0.40643,-2.97368 0.40643,2.08303 0.40643,4.62072 0.40643,-0.80927 0.40642,-0.032 0.40643,0.15877 0.40643,2.40105 0.40643,-2.95865 0.40643,0.81564 0.40642,5.03018 0.40643,-0.99312 0.40643,0.25765 0.40643,0.46957 0.40643,0.35808 0.40642,4.72677 0.40643,-0.824 0.40643,-0.41227 0.40643,3.28127 0.40643,-1.8533 0.40642,-0.78455 0.40643,2.53381 0.40643,3.21028 0.40643,3.54919 0.40642,1.76555 0.40643,-4.00341 0.40643,-0.7622 0.40643,-1.23574 0.40643,-2.19734 0.40642,3.88005 0.40643,0.28235 0.40643,-4.51961 0.40643,-5.68229 0.40643,-5.05779 0.40642,-2.06496 0.40643,0.0617 0.40643,-0.92525 0.40643,-3.67766 0.40643,3.30369 0.40642,0.54075 0.40643,0.71078 0.40643,2.51717 0.40643,2.60131 0.40643,1.93765 0.40642,2.08448 0.40643,0.39196 0.40643,2.38049 0.40643,3.90911 0.40642,-0.0943 0.40643,-1.37404 0.40643,1.94165 0.40643,1.5697 0.40643,-1.96317 0.40642,0.20005 0.40643,-2.74183 0.40643,-0.46495 0.40643,-2.06637 0.40643,2.97407 0.40642,1.00874 0.40643,2.6325 0.40643,-5.01519 0.40643,-1.58634 0.40643,3.22438 0.40642,2.78303 0.40643,1.58634 0.40643,6.45215 0.40643,2.84483 0.40643,0.99473 0.40642,0.63927 0.40643,0.18028 0.40643,3.43579 0.40643,1.19507 0.40642,-2.73982 0.40643,-3.86918 0.40643,-1.43584 0.40643,-6.67819 0.40643,-2.77143 0.40642,0.67279 0.40643,-2.71907 0.40643,0.11377 0.40643,-0.84063 0.40643,0.62395 0.40642,1.24302 0.40643,2.22118 0.40643,2.76721 0.40643,3.70397 0.40643,0.25606 0.40642,-2.77387 0.40643,1.38435 0.40643,-3.03387 0.40643,3.88762 0.40643,2.7317 0.40642,-1.88875 0.40643,-3.18802 0.40643,-2.23561 0.40643,1.47742 0.40642,-0.10276 0.40643,-2.85223 0.40643,-4.94402 0.40643,3.26141 0.40643,-5.44609 0.40642,-4.41797 0.40643,-0.0439 0.40643,1.88635 0.40643,3.37626 0.40643,0.01 0.40642,3.23788 0.40643,-0.16912 0.40643,3.57919 0.40643,-2.79183 0.40643,0.82386 0.40642,2.2683 0.40643,3.47265 0.40643,1.18556 0.40643,-3.90786 0.40643,-5.80706 0.40642,-3.07403 0.40643,5.20073 h 0.40643 l 0.40643,1.52772 0.40642,3.51588 0.40643,-2.31166 0.40643,0.54934 0.40643,-1.90471 0.40643,-1.15276 0.40642,5.61897 0.40643,-1.06921 0.40643,-2.72872 0.40643,-1.82842 0.40643,-2.55363 0.40642,-0.37093 0.40643,1.71465 0.40643,-2.1796 0.40643,0.89741 0.40643,2.30465 0.40642,-2.4102 0.40643,8.27307 0.40643,-0.97722 0.40643,1.56601 0.40643,-0.55727 0.40642,0.17058 0.40643,-0.50096 0.40643,-0.97449 0.40643,0.43648 0.40642,2.90703 0.40643,2.11758 0.40643,-4.12002 0.40643,-1.00857 0.40643,0.94936 0.40642,2.61323 0.40643,-0.99459 0.40643,-0.74635 0.40643,3.60528 0.40643,1.48711 0.40642,-0.96538 0.40643,-1.46023 0.40643,4.12971 0.40643,0.84767 0.40643,1.12197 0.40642,-1.03006 0.40643,3.3057 0.40643,2.41263 0.40643,-2.09918 0.40643,-1.30396 0.40642,-0.1881 0.40643,-3.02205 0.40643,-8.37332 0.40643,-1.40357 0.40643,-0.50167 0.40642,-1.80656 0.40643,-4.73086 0.40643,-2.15873 0.40643,0.90425 0.40642,-3.06863 0.40643,-1.25745 0.40643,-1.56965 0.40643,4.07289 0.40643,4.18969 0.40642,-0.74564 0.40643,1.51525 0.40643,3.44411 0.40643,0.9934 h 0.40643 l 0.40642,2.7867 0.40643,-1.25534 0.40643,1.20856 0.40643,0.0905 0.40643,-2.88492 0.40642,0.67469 0.40643,0.24075 0.40643,-3.77194 0.40643,1.43029 0.40642,-5.49136 0.40643,0.32634 0.40643,0.29748 0.40643,4.98277 0.40643,-1.027 0.40642,0.58148 0.40643,-0.96293 0.40643,-0.42606 0.40643,-1.9917 0.40643,-3.36398 0.40642,5.38637 0.40643,-1.50663 0.40643,-1.75936 0.40643,-2.6053 0.40643,1.55251 0.40642,0.0581 0.40643,0.37024 0.40643,-1.42041 0.40643,2.75703 0.40643,-0.21529 0.40642,-0.64994 0.40643,1.01667 0.40643,3.33875 0.40643,1.00567 0.40642,-1.26926 0.40643,0.40532 0.40643,0.89065 0.40643,1.86704 0.40643,0.97783 0.40642,4.94402 0.40643,0.83324 0.40643,1.56911 0.40643,0.18473 0.40643,0.99065 0.40642,1.01842 0.40643,1.84767 0.40643,-3.20592 0.40643,0.854 0.40643,1.98932 0.40642,-6.08594 0.40643,-0.18329 0.40643,0.16103 0.40643,-0.19442 0.40643,-2.472 0.40642,-3.33937 0.40643,-1.10635 0.40643,3.20591 0.40643,2.11904 0.40642,-1.09381 0.40643,2.24916 0.40643,-3.47701 0.40643,0.18028 0.40643,0.719 0.40642,1.09168 0.40643,3.96895 0.40643,-1.63327 0.40643,-0.94106 0.40643,-0.37875 0.40642,-1.91528 0.40643,3.03103 0.40643,1.49567 0.40643,-5.5615 0.40643,-1.3918 0.40642,2.0377 0.40643,-2.53998 0.40643,0.7913 0.40643,-0.86298 0.40643,-1.26926 0.40642,0.12535 0.40643,-6.2231 0.40643,-4.63724 0.40643,3.73322 0.40642,-3.7566 0.40643,1.85101 0.40643,0.71357 0.40643,1.14383 0.40643,-1.33875 0.40642,0.15121 0.40643,2.09919 0.40643,3.24038 0.40643,4.12792 0.40643,0.21972 0.40642,4.25098 0.40643,-7.68692 0.40643,0.50989 0.40643,1.14579 0.40643,1.60005 0.40642,0.5678 0.40643,-0.87196 0.40643,1.66137 0.40643,0.2552 0.40642,-1.94064 0.40643,-0.32262 0.40643,3.3639 0.40643,-1.16478 0.40643,-1.07483 0.40642,0.49119 0.40643,-1.00225 0.40643,0.03 0.40643,-1.49752 0.40643,2.99374 0.40642,2.39371 0.40643,-1.46362 0.40643,-0.75993 0.40643,-1.48765 0.40643,0.91394 0.40642,1.34119 0.40643,-1.81344 0.40643,2.11904 0.40643,-0.22145 0.40643,-2.93722 0.40642,-0.47104 0.40643,1.85966 0.40643,1.68877 0.40643,-1.08007 0.40642,1.78953 0.40643,-1.2697 0.40643,-0.45731 0.40643,-4.40326 0.40643,1.8085 0.40643,4.60475 0.40642,1.11664 0.40643,1.67275 0.40643,4.03345 0.40643,-0.24615 0.40642,-3.91825 0.40643,0.0895 0.40643,5.17722 0.40643,1.40967 0.40643,-0.35681 0.40642,0.48269 0.40643,0.73743 0.40643,-3.73852 0.40643,-0.93777 0.40643,3.15463 0.40642,0.64162 0.40643,-2.99359 0.40643,-5.85757 0.40643,0.59989 0.40643,-7.19709 0.40642,0.20927 0.40643,-2.05582 0.40643,3.73851 0.40643,-0.77687 0.40642,3.52355 0.40643,1.19346 0.40643,1.6031 0.40643,3.05594 0.40643,-0.57082 0.40643,7.29769 0.40642,-1.9766 0.40643,-2.85602 0.40643,-2.59736 0.40643,0.0484 0.40642,-2.81332 0.40643,-2.4713 0.40643,1.79832 0.40643,0.25671 0.40643,-2.65229 0.40642,-0.0734 0.40643,-3.61317 0.40643,4.27257 0.40643,4.40391 0.40642,-0.49244 0.40643,-0.82956 0.40643,-0.18778 0.40643,-0.92941 0.40643,2.11046 0.40642,3.06455 0.40643,-6.69961 0.40643,5.49427 0.40643,-0.41228 0.40643,-2.92069 0.40642,-1.81291 0.40643,2.43044 0.40643,6.57053 0.40643,-1.04493 0.40643,-1.03327 0.40642,-1.35561 0.40643,6.87803 0.40643,-2.19826 0.40643,-2.70284 0.40643,0.25378 0.40642,-0.9402 0.40643,-2.15022 0.40643,-6.03044 0.40643,-1.65785 0.40642,-2.81333 0.40643,5.17712 0.40643,1.12642 0.40643,0.105 0.40643,0.77166 0.40642,-1.03903 0.40643,1.29677 0.40643,0.32233 0.40643,0.76463 0.40643,2.96817 0.40642,1.89053 0.40643,-4.25746 0.40643,1.26534 0.40643,-0.0802 0.40643,3.60068 0.40642,-0.43071 0.40643,-0.0455 0.40643,-3.80947 0.40643,0.32179 0.40643,0.929 0.40642,0.9228 0.40643,-0.90897 0.40643,-1.74617 0.40643,-2.67572 0.40643,-5.66737 0.40642,1.46274 0.40643,-0.12535 0.40643,6.62225 0.40643,1.48711 0.40642,-0.61185 0.40643,-0.16089 0.40643,5.69639 0.40643,-0.32263 0.40643,0.65928 0.40642,5.23415 0.40643,-0.38844 0.40643,-2.5509 0.40643,-3.66055 0.40643,1.48711 0.40642,0.28023 0.40643,-5.32021 0.40643,-2.8882 0.40643,-1.11383 0.40643,2.24776 0.40642,-1.48946 0.40643,1.48725 0.40643,4.12002 0.40643,4.07281 0.40642,-2.12873 0.40643,-0.0471 0.40643,0.824 0.40643,0.59646 0.40643,0.50761 0.40642,4.52798 0.40643,-0.0452 0.40643,-0.25621 0.40643,1.66753 0.40643,-4.41015 0.40642,-0.35297 0.40643,2.10506 0.40643,4.4962 0.40643,0.20927 0.40643,1.64801 0.40642,-5.66671 0.40643,0.31982 0.40643,-2.95105 0.40643,-2.6053 0.40643,0.74131 0.40642,-0.69138 0.40643,-2.9656 0.40643,0.18238 0.40643,-2.78992 0.40642,-5.4231 0.40643,0.0834 0.40643,1.74029 0.40643,4.23302 0.40643,0.63823 0.40643,2.54633 0.40642,1.02286 0.40643,1.39051 0.40643,-1.12867 0.40643,-1.93233 0.40642,3.7751 0.40643,-0.41227 0.40643,-0.45454 0.40643,-0.63622 0.40643,1.05312 0.40642,-0.43556 0.40643,0.48323 0.40643,-1.15362 0.40643,1.31574 0.40643,4.8889 0.40642,-0.22879 0.40643,2.29174 0.40643,1.00388 0.40643,-2.03755 0.40642,-4.49284 0.40643,-2.33064 0.40643,-3.57271 0.40643,-4.24187 0.40643,-2.97891 0.40642,-1.16047 0.40643,0.0195 0.40643,-1.73755 0.40643,-2.28963 0.40643,1.41655 0.40642,4.05151 0.40643,1.31853 0.40643,2.08521 0.40643,8.27531 0.40643,1.14383 0.40642,2.74667 0.40643,-2.50224 0.40643,0.58394 0.40643,-0.74424 0.40643,-1.49869 0.40642,2.52256 0.40643,-1.86087 0.40643,-1.3905 0.40643,-2.51641 0.40643,1.64801 0.40642,-1.31854 0.40643,2.04716 0.40643,0.22671 0.40643,-0.3288 0.40642,4.49621 0.40643,-2.28494 0.40643,3.19476 0.40643,3.08173 0.40643,-1.01566 0.40642,-3.96563 0.40643,-0.87113 0.40643,2.0043 0.40643,-1.34335 0.40643,0.13603 0.40642,-2.81333 0.40643,-2.29305 0.40643,-0.59646 0.40643,-0.29941 0.40643,-1.87033 0.40642,1.79392 0.40643,0.12875 0.40643,-0.54933 0.40643,1.28521 0.40642,-1.67582 0.40643,-0.77688 0.40643,1.46976 0.40643,-3.8219 0.40643,-1.76218 0.40642,3.07876 0.40643,-0.42059 0.40643,-0.12875 0.40643,1.29186 0.40643,2.15021 0.40642,0.91966 0.40643,-1.48711 0.40643,-2.03755 0.40643,2.97962 0.40643,2.57458 0.40642,1.29358 0.40643,1.29171 0.40643,0.0905 0.40643,-3.07629 0.40643,-2.86374 0.40642,-0.4128 0.40643,3.7278 0.40643,3.96881 0.40643,0.29294 0.40642,0.16491 0.40643,-2.83481 0.40643,1.6204 0.40643,-1.40969 0.40643,-0.21972 0.40642,-0.49192 0.40643,0.9197 0.40643,-1.41654 0.40643,-2.14053 0.40643,-3.33875 0.40642,-1.59237 0.40643,-0.36892 0.40643,-3.72884 0.40643,1.86086 0.40643,1.3732 0.40642,1.64801 0.40643,-0.071 0.40643,2.51522 0.40643,1.76178 0.40643,0.67864 0.40642,0.43681 0.40643,3.20373 0.40643,4.62381 0.40643,-2.18967 0.40642,0.44658 0.40643,3.08099 0.40643,-0.22912 0.40643,-3.86082 0.40643,-3.66296 0.40642,4.85745 0.40643,0.17825 0.40643,-4.17057 0.40643,-2.24069 0.40643,1.648 0.40642,0.42078 0.40643,-3.29601 0.40643,1.84077 0.40643,4.41015 0.40643,1.44611 0.40642,-2.49029 0.40643,2.08449 0.40643,2.24789 0.40643,-0.43502 0.40643,0.34131 0.40642,-2.97414 0.40643,1.92267 0.40643,1.84291 0.40643,-1.39717 0.40642,-1.29172 0.40643,-0.99382 0.40643,-4.58304 0.40643,-0.46957 0.40643,-0.65664 0.40642,-1.11805 0.40643,5.5264 0.40643,-1.39663 0.40643,-2.00956 0.40643,-2.31962 0.40642,1.08369 0.40643,1.19683 0.40643,3.30395 0.40643,2.86328 0.40643,2.08758 0.40642,0.28152 0.40643,-0.99473 0.40643,-0.39078 0.40643,-1.17034 0.40643,-1.98081 0.40642,0.70256 0.40643,-1.21479 0.40643,0.0434 0.40643,-3.3053 0.40642,-0.60623 0.40643,2.20986 0.40643,-3.95858 0.40643,0.0798 0.40643,2.47201 0.40642,1.98081 0.40643,-0.30187 0.40643,-0.87455 0.40643,-1.35005 0.40643,0.11323 0.40642,-1.15259 0.40643,-4.2423 0.40643,1.57705 0.40643,0.0746 0.40643,-2.31346 0.40642,-1.648 0.40643,0.47098 0.40643,1.33576 0.40643,0.48969 0.40642,0.93777 0.40643,-0.16385 0.40643,2.59429 0.40643,-1.57759 0.40643,2.98308 0.40642,1.94831 0.40643,5.18007 0.40643,0.50167 0.40643,0.98504 0.40643,1.39423 0.40643,0.52604 0.40642,0.49173 0.40643,1.47742 0.40643,3.30585 0.40643,-2.10741 0.40642,-1.9783 0.40643,-3.03104 0.40643,-1.71451 0.40643,0.18028 0.40643,-0.78525 0.40642,-0.37282 0.40643,1.64801 0.40643,-1.72826 0.40643,-1.10725 0.40642,-2.79835 0.40643,2.34346 0.40643,2.77442 0.40643,0.77345 0.40643,1.85727 0.40642,-0.99341 0.40643,-3.21332 0.40643,0.20371 0.40643,-0.42078 0.40643,1.94095 0.40642,4.72102 0.40643,0.45118 0.40643,-1.61895 0.40643,-0.59316 0.40643,0.0183 0.40642,-0.52858 0.40643,4.20715 0.40643,1.20666 0.40643,-2.75653 0.40643,-3.82729 0.40642,-2.4034 0.40643,-3.61013 0.40643,-2.31111 0.40643,0.84549 0.40642,0.27467 0.40643,1.1079 0.40643,-1.88094 0.40643,1.26534 0.40643,5.09999 0.40643,1.83797 0.40642,0.11612 0.40643,3.11573 0.40643,-1.75471 0.40643,1.11663 0.40642,-3.24404 0.40643,-2.502 0.40643,1.67168 0.40643,-6.57974 0.40643,-1.76412 0.40642,0.52604 0.40643,0.78079 0.40643,1.5751 0.40643,-0.16283 0.40643,-0.6456 0.40642,1.09382 0.40643,2.49277 0.40643,2.31111 0.40643,6.03041 0.40642,1.76412 0.40643,0.80017 0.40643,-0.23146 0.40643,-0.36155 0.40643,3.29089 0.40642,1.01842 0.40643,-0.93778 0.40643,0.58421 0.40643,-0.80017 0.40643,-7.15682 0.40643,1.30238 0.40642,-0.80017 0.40643,-0.59255 0.40643,-0.9195 0.40643,-1.32496 0.40642,1.18861 0.40643,-0.39612 0.40643,-1.55753 0.40643,-0.84783 0.40643,3.07508 0.40642,-2.1696 0.40643,0.45118 0.40643,1.00428 0.40643,-4.35311 0.40642,-0.30807 h 0.40643 l 0.40643,2.65041 0.40643,2.92319 0.40643,-1.09958 0.40642,1.95607 0.40643,-1.29186 0.40643,1.8361 0.40643,1.48711 0.40643,5.55587 0.40642,-0.68137 0.40643,-2.05583 0.40643,-1.93196 0.40643,-2.02823 0.40643,-2.0646 0.40642,-2.03755 0.40643,0.64813 0.40643,1.30669 0.40643,-4.96354 0.40643,-4.63621 0.40642,5.39271 0.40643,0.20176 0.40643,-2.10975 0.40643,2.10255 0.40642,5.08686 0.40643,3.9785 0.40643,-1.60417 0.40643,-4.44181 0.40643,3.96895 0.40642,3.35913 0.40643,-3.41961 0.40643,-0.84549 0.40643,3.36891 0.40643,-0.55025 0.40642,-5.39856 0.40643,-3.58966 0.40643,1.4239 0.40643,-0.45384 0.40643,-0.28325 0.40642,-0.74968 0.40643,3.15463 0.40643,0.31412 0.40643,-1.79922 0.40643,-2.44726 0.40642,5.39857 0.40643,0.98436 0.40643,0.67279 0.40643,2.90633 0.40643,-1.94714 0.40642,0.68116 0.40643,-4.64589 0.40643,-0.31412 0.40643,0.15121 0.40642,1.05532 0.40643,-0.82401 0.40643,1.6204 0.40643,-0.72006 0.40643,2.33063 0.40642,3.38588 0.40643,-0.79494 0.40643,1.96784 0.40643,0.59646 0.40643,-1.09882 0.40642,0.97536 0.40643,1.87554 0.40643,-0.52158 0.40643,-0.11377 0.40643,-4.41296 0.40642,0.49252 0.40643,-0.94333 0.40643,0.018 0.40643,0.24903 0.40642,3.96037 0.40643,-2.23368 0.40643,-4.91641 0.40643,-0.41618 0.40643,1.00441 0.40642,-2.36716 0.40643,-1.29504 0.40643,0.93482 0.40643,-0.68757 0.40643,-0.24903 0.40642,-2.18876 0.40643,1.43874 0.40643,4.91641 0.40643,1.24019 v 27.81284 0 l -0.40643,-3.15449 -0.40643,0.52173 -0.40643,-0.20927 -0.40642,4.40327 -0.40643,-0.24903 -0.40643,-1.23692 -0.40643,-0.16385 -0.40643,-0.7457 -0.40642,3.12619 -0.40643,2.10309 -0.40643,2.33049 -0.40643,-0.52173 -0.40643,2.71035 -0.40642,-2.08232 -0.40643,0.24903 -0.40643,0.56729 -0.40643,-2.59133 -0.40642,0.49252 -0.40643,1.62973 -0.40643,-0.6631 -0.40643,-2.1696 -0.40643,-0.32179 -0.40642,0.42602 -0.40643,-1.64815 -0.40643,-2.15022 -0.40643,1.4185 -0.40643,2.50107 -0.40642,1.18854 -0.40643,2.33063 -0.40643,-1.81874 -0.40643,3.81775 -0.40643,0.824 -0.40642,-4.43804 -0.40643,-1.49679 -0.40643,0.78455 -0.40643,-1.34989 -0.40642,-3.16418 -0.40643,-1.3978 -0.40643,-4.78437 -0.40643,0.6728 -0.40643,-2.31166 -0.40642,-2.84146 -0.40643,5.24343 -0.40643,3.14481 -0.40643,-0.78456 -0.40643,1.50663 -0.40642,1.997 -0.40643,-1.93126 -0.40643,-1.55251 -0.40643,2.52257 -0.40643,0.25569 -0.40642,2.84147 -0.40643,-2.7476 -0.40643,-2.67377 -0.40643,1.90119 -0.40643,-0.67294 -0.40642,0.61246 -0.40643,0.1236 -0.40643,5.99556 -0.40643,-2.70284 -0.40643,-2.06419 -0.40642,-2.60384 -0.40643,0.45454 -0.40643,2.83427 -0.40643,-0.89691 -0.40642,-0.10065 -0.40643,-0.79086 -0.40643,1.07915 -0.40643,-3.63732 -0.40643,1.7468 -0.40642,2.90647 -0.40643,2.87942 -0.40643,0.71845 -0.40643,-0.8333 -0.40643,0.14152 -0.40642,-1.23071 -0.40643,-1.03616 -0.40643,-0.71023 -0.40643,0.18809 -0.40643,-0.74252 -0.40642,-0.79061 -0.40643,-2.19825 -0.40643,-3.66884 -0.40643,-1.19493 h -0.40643 l -0.40642,-0.8574 -0.40643,0.0416 -0.40643,-0.64373 -0.40643,-1.19682 -0.40642,-0.52159 -0.40643,-2.41828 -0.40643,1.34951 -0.40643,3.38649 -0.40643,0.70255 -0.40642,0.0899 -0.40643,0.87238 -0.40643,2.92584 -0.40643,-0.0432 -0.40642,0.2985 -0.40643,0.75305 -0.40643,3.82988 -0.40643,0.2985 -0.40643,1.13355 -0.40643,0.16089 -0.40642,-1.72825 -0.40643,1.09354 -0.40643,0.18778 -0.40643,0.86722 -0.40643,-0.2985 -0.40642,-0.43322 -0.40643,-0.0123 -0.40643,-1.53424 -0.40643,-3.00058 -0.40642,2.74182 -0.40643,2.10108 -0.40643,-1.2615 -0.40643,-2.27025 -0.40643,-1.41655 -0.40642,0.52604 -0.40643,0.43322 -0.40643,0.56162 -0.40643,2.77035 -0.40643,0.79401 -0.40642,-2.14537 -0.40643,-0.53137 -0.40643,-1.20538 -0.40643,-3.47629 -0.40642,1.21479 -0.40643,-0.90871 -0.40643,1.80398 -0.40643,0.71601 -0.40643,-1.33162 -0.40643,1.10791 -0.40642,-0.27467 -0.40643,-1.90118 -0.40643,1.53423 -0.40643,4.08057 -0.40642,-0.20605 -0.40643,0.56739 -0.40643,-1.10853 -0.40643,-3.18802 -0.40643,-2.38487 -0.40642,0.0207 -0.40643,2.76495 -0.40643,4.90019 -0.40643,3.32508 -0.40643,-1.19683 -0.40642,-0.77233 -0.40643,0.84227 -0.40643,-2.61812 -0.40643,1.85172 -0.40643,0.63202 -0.40642,-0.9934 -0.40643,-3.08675 -0.40643,-4.71991 -0.40643,-5.46561 -0.40643,0.69545 -0.40642,-1.15034 -0.40643,-1.10725 -0.40643,1.01842 -0.40643,-1.64801 -0.40642,-0.37282 -0.40643,3.0601 -0.40643,0.18028 -0.40643,2.13084 -0.40643,2.46232 -0.40642,0.76836 -0.40643,3.38595 -0.40643,0.01 -0.40643,-1.26925 -0.40642,0.49174 -0.40643,0.52604 -0.40643,-2.45112 -0.40643,0.98504 -0.40643,0.50167 -0.40643,-0.86262 -0.40642,-2.44637 -0.40643,-0.31294 -0.40643,-1.02825 -0.40643,0.94628 -0.40643,0.93482 -0.40642,-0.16089 -0.40643,-1.70765 -0.40643,-1.96026 -0.40643,1.02032 -0.40642,1.64801 -0.40643,0.98255 -0.40643,-0.47471 -0.40643,0.47838 -0.40643,0.70172 -0.40642,-1.1526 -0.40643,0.11323 -0.40643,0.29796 -0.40643,0.22411 -0.40643,-2.4992 -0.40642,-2.41388 -0.40643,-2.47201 -0.40643,-1.0189 -0.40643,3.73211 -0.40643,0.56186 -0.40642,2.14045 -0.40643,0.54005 -0.40643,3.33936 -0.40643,-0.11612 -0.40642,-0.39611 -0.40643,2.41387 -0.40643,2.67501 -0.40643,-0.94012 -0.40643,-1.54407 -0.40642,-1.91581 -0.40643,-2.85644 -0.40643,0.1166 -0.40643,-1.09073 -0.40643,-0.45118 -0.40642,0.53436 -0.40643,-1.22095 -0.40643,1.83579 -0.40643,2.44871 -0.40643,0.0331 -0.40642,-0.0194 -0.40643,0.44202 -0.40643,-0.46957 -0.40643,-0.73768 -0.40643,1.75285 -0.40642,2.0043 -0.40643,1.89884 -0.40643,-0.90377 -0.40643,-1.92267 -0.40642,-1.87547 -0.40643,1.98932 -0.40643,1.76231 -0.40643,-1.59745 -0.40643,0.43648 -0.40642,-0.29294 -0.40643,-3.49792 -0.40643,-1.0832 -0.40643,0.19277 -0.40643,3.29601 -0.40642,2.61812 -0.40643,-1.64801 -0.40643,-1.14202 -0.40643,3.52013 -0.40643,-1.46975 -0.40642,-2.83326 -0.40643,1.83039 -0.40643,0.53388 -0.40643,-4.07448 -0.40643,-1.86302 -0.40642,-0.10276 -0.40643,1.10634 -0.40643,-0.32021 -0.40643,-5.0363 -0.40642,-0.11253 -0.40643,3.42533 -0.40643,-0.9849 -0.40643,-1.87947 -0.40643,2.12639 -0.40642,-1.64801 -0.40643,-4.12016 -0.40643,-0.33647 -0.40643,-2.63017 -0.40643,3.47643 -0.40642,2.80231 -0.40643,-2.78941 -0.40643,1.15548 -0.40643,0.78079 -0.40643,-0.17896 -0.40642,2.8041 -0.40643,0.32961 -0.40643,-0.86036 -0.40643,3.81775 -0.40643,1.55987 -0.40642,-0.93376 -0.40643,2.49028 -0.40643,-2.62322 -0.40643,0.43179 -0.40642,2.33387 -0.40643,-0.66639 -0.40643,2.9664 -0.40643,1.73848 -0.40643,-2.0043 -0.40642,-0.35443 -0.40643,-0.1721 -0.40643,0.23295 -0.40643,2.90646 -0.40643,0.71024 -0.40642,-1.82702 -0.40643,-0.59646 -0.40643,0.74252 -0.40643,0.96992 -0.40643,-0.42059 -0.40642,-0.76658 -0.40643,-0.11418 -0.40643,-2.17389 -0.40643,-0.17825 -0.40643,-0.77688 -0.40642,2.16954 -0.40643,-2.56015 -0.40643,0.54934 -0.40643,-0.96992 -0.40642,-0.95275 -0.40643,0.32701 -0.40643,-2.49676 -0.40643,2.15022 -0.40643,1.5523 -0.40642,0.48269 -0.40643,-2.61066 -0.40643,3.05134 -0.40643,-1.29171 -0.40643,2.42488 -0.40642,2.6264 -0.40643,2.28035 -0.40643,1.98305 -0.40643,-1.19992 -0.40643,1.56041 -0.40642,-0.44781 -0.40643,0.76987 -0.40643,-2.51996 -0.40643,0.39915 -0.40642,-1.31854 -0.40643,-1.648 -0.40643,-3.06574 -0.40643,-3.03851 -0.40643,0.33647 -0.40642,-1.87212 -0.40643,-2.04803 -0.40643,-0.1949 -0.40643,2.78127 -0.40643,-3.05157 -0.40642,-2.74668 -0.40643,2.2425 -0.40643,2.23261 -0.40643,2.63455 -0.40643,1.31854 -0.40642,-5.28721 -0.40643,-0.78079 -0.40643,0.45705 -0.40643,-1.73754 -0.40643,3.86486 -0.40642,2.68488 -0.40643,0.3171 -0.40643,-4.24187 -0.40643,0.27263 -0.40643,-2.33063 -0.40642,3.74719 -0.40643,2.90647 -0.40643,1.55321 -0.40643,-2.65228 -0.40642,-2.42613 -0.40643,-0.0551 -0.40643,-0.33226 -0.40643,1.04373 -0.40643,-2.26345 -0.40642,1.21244 -0.40643,3.25047 -0.40643,0.46245 -0.40643,-2.10255 -0.40643,0.13706 -0.40642,-1.16892 -0.40643,0.26501 -0.40643,-0.57933 -0.40643,3.03851 -0.40642,4.86821 -0.40643,-1.29902 -0.40643,-1.5591 -0.40643,-1.26034 -0.40643,0.0923 -0.40643,3.92876 -0.40642,2.81693 -0.40643,-1.14192 -0.40643,-2.01496 -0.40643,-0.76826 -0.40642,-6.18473 -0.40643,1.83998 -0.40643,-2.05596 -0.40643,1.44363 -0.40643,3.06651 -0.40642,0.37598 -0.40643,-1.64801 -0.40643,-1.43874 -0.40643,-0.44781 -0.40643,-3.93763 -0.40642,2.3937 -0.40643,1.08321 -0.40643,2.21686 -0.40643,-1.90421 -0.40643,-3.34117 -0.40642,0.13329 -0.40643,2.70495 -0.40643,-2.15022 -0.40643,-0.824 -0.40643,1.60088 -0.40642,-0.48072 -0.40643,0.7768 -0.40643,-4.12002 -0.40643,2.03659 -0.40642,0.15855 -0.40643,-1.04826 -0.40643,-0.5645 -0.40643,4.8025 -0.40643,1.27182 -0.40642,2.47757 -0.40643,-0.71024 -0.40643,-0.91386 -0.40643,3.49178 -0.40643,-0.38844 -0.40642,-1.90721 -0.40643,-3.18607 -0.40643,-1.97063 -0.40643,-0.89563 -0.40643,0.93777 -0.40642,-3.90786 -0.40643,-0.71023 -0.40643,-1.06844 -0.40643,-3.42136 -0.40642,-0.73461 -0.40643,3.67134 -0.40643,0.62029 -0.40643,1.00051 -0.40643,0.1897 -0.40642,1.47213 -0.40643,2.57701 -0.40643,-1.87555 -0.40643,0.0359 -0.40643,4.34914 -0.40642,-2.62806 -0.40643,-1.89268 -0.40643,-0.62958 -0.40643,0.71601 -0.40643,-0.96145 -0.40642,-1.95482 -0.40643,-0.32784 -0.40643,4.06064 -0.40643,-1.32568 -0.40643,0.74743 -0.40642,2.25699 -0.40643,0.77166 -0.40643,3.40101 -0.40643,-3.8176 -0.40643,-0.86557 -0.40642,0.48269 -0.40643,-1.10852 -0.40643,2.75893 -0.40643,0.59646 -0.40642,-3.13754 -0.40643,0.80311 -0.40643,-1.60417 -0.40643,-1.09958 -0.40643,-0.81268 -0.40642,-2.45427 -0.40643,2.26274 -0.40643,1.70174 -0.40643,-5.51484 -0.40643,1.8811 -0.40642,2.58177 -0.40643,0.92466 -0.40643,0.13706 -0.40643,-2.19643 -0.40643,2.08976 -0.40642,-2.4288 -0.40643,-2.28423 -0.40643,-3.67608 -0.40643,0.36155 -0.40643,-1.92823 -0.40642,-1.04178 -0.40643,-2.18811 -0.40643,2.07523 -0.40643,4.62686 -0.40642,2.12394 -0.40643,2.29173 -0.40643,-0.84196 -0.40643,4.545 -0.40643,3.02205 -0.40642,0.48269 -0.40643,-0.50096 -0.40643,-0.94936 -0.40643,-2.85602 -0.40642,-0.32859 -0.40643,-0.393 -0.40643,1.62652 -0.40643,0.30926 -0.40643,-3.34093 -0.40643,-3.75055 -0.40642,-1.9698 -0.40643,-0.77688 -0.40643,2.0905 -0.40643,0.14152 -0.40642,-1.43874 -0.40643,1.04295 -0.40643,0.0505 -0.40643,2.38247 -0.40643,0.30242 -0.40642,1.19095 -0.40643,1.50663 -0.40643,0.1609 -0.40643,-2.09051 -0.40643,1.28677 -0.40642,-2.81333 -0.40643,-2.55415 -0.40643,-1.88634 -0.40643,0.78254 -0.40643,3.38555 -0.40642,3.22311 -0.40643,-1.89416 -0.40643,-2.00924 -0.40643,1.12341 -0.40642,-0.53137 -0.40643,3.50609 -0.40643,-0.38884 -0.40643,2.18876 -0.40643,-1.55599 -0.40643,-0.17102 -0.40642,-3.70383 -0.40643,1.66661 -0.40643,2.23811 -0.40643,-1.98569 -0.40642,-1.5697 -0.40643,-1.28923 -0.40643,1.9759 -0.40643,-0.0783 -0.40643,-1.26411 -0.40642,-1.40549 -0.40643,0.36461 -0.40643,0.16036 -0.40643,-2.40793 -0.40643,1.83238 -0.40642,-0.35297 -0.40643,2.44441 -0.40643,1.79849 -0.40643,1.678 -0.40643,2.29376 -0.40642,-0.0581 -0.40643,0.57317 -0.40643,-0.61545 -0.40643,0.0679 -0.40643,-1.97063 -0.40642,1.35537 -0.40643,-1.39281 -0.40643,-2.73331 -0.40643,-1.4213 -0.40642,-2.72821 -0.40643,-3.8933 -0.40643,-2.69955 -0.40643,-0.0395 -0.40643,2.75045 -0.40642,-0.69304 -0.40643,-0.32961 -0.40643,-0.8161 -0.40643,-4.45031 -0.40643,-2.84484 -0.40642,-1.49679 -0.40643,4.70394 -0.40643,2.2425 -0.40643,4.55891 -0.40643,-0.34633 -0.40642,0.0888 -0.40643,0.98654 -0.40643,-0.79189 -0.40643,3.11559 -0.40642,3.42137 -0.40643,1.47742 -0.40643,1.33435 -0.40643,1.88998 -0.40643,-4.18799 -0.40642,-0.15965 -0.40643,3.55222 -0.40643,0.48119 -0.40643,-0.15234 -0.40643,-2.46231 -0.40642,2.4794 -0.40643,0.17059 -0.40643,-2.58907 -0.40643,-1.63327 -0.40643,0.1236 -0.40642,-2.20434 -0.40643,-4.22501 -0.40643,0.18027 -0.40643,0.91767 -0.40643,3.89718 -0.40642,-2.74183 -0.40643,-0.0783 -0.40643,0.45924 -0.40643,2.18967 -0.40642,-0.0434 -0.40643,2.47201 -0.40643,0.90425 -0.40643,1.80905 -0.40643,-1.28197 -0.40642,2.1541 -0.40643,0.34131 -0.40643,0.854 -0.40643,-0.45924 -0.40643,-0.34968 -0.40642,-1.72826 -0.40643,-1.75602 -0.40643,-1.46328 -0.40643,-0.62823 -0.40643,1.38257 -0.40642,-4.94401 -0.40643,0.4285 -0.40643,-3.07698 -0.40643,1.43998 -0.40643,-0.69335 -0.40642,1.47742 -0.40643,3.20301 -0.40643,2.78941 -0.40643,-1.18067 -0.40642,-0.1006 -0.40643,4.72873 -0.40643,-2.18699 -0.40643,5.72094 -0.40643,0.91958 -0.40642,-0.4912 -0.40643,0.45383 -0.40643,-2.05596 -0.40643,-1.75935 -0.40643,-3.15464 -0.40642,0.44234 -0.40643,-3.36398 -0.40643,0.20565 -0.40643,-3.72207 -0.40643,-3.70961 -0.40642,-0.51718 -0.40643,-0.47767 -0.40643,-2.70793 -0.40643,3.04416 -0.40643,3.62234 -0.40642,-3.84335 -0.40643,0.33163 -0.40643,1.72141 -0.40643,1.88876 -0.40642,2.87203 -0.40643,0.96042 -0.40643,1.73849 -0.40643,-0.98878 -0.40643,0.39267 -0.40642,1.13869 h -0.40643 l -0.40643,0.99341 -0.40643,1.24676 -0.40643,-5.62611 -0.40642,-0.74565 -0.40643,0.89368 -0.40643,-2.51913 -0.40643,0.0784 -0.40643,-1.80678 -0.40642,0.77672 -0.40643,-0.19442 -0.40643,-2.15873 -0.40643,-1.98419 -0.40642,3.13746 -0.40643,-0.50166 -0.40643,-4.15025 -0.40643,3.71206 -0.40643,2.4713 -0.40642,-1.8361 -0.40643,-3.5013 -0.40643,2.84483 -0.40643,2.41263 -0.40643,-2.73698 -0.40642,-1.5794 -0.40643,-2.17405 -0.40643,3.59436 -0.40643,-3.561 -0.40643,1.28646 -0.40642,5.62664 -0.40643,-0.71023 -0.40643,-0.24007 -0.40643,-1.29569 -0.40643,1.20275 -0.40642,4.26124 -0.40643,2.59736 -0.40643,-2.65657 -0.40643,4.12001 -0.40643,-1.17843 -0.40642,-4.23433 -0.40643,2.08448 -0.40643,0.67352 -0.40643,0.0484 -0.40642,-0.37875 -0.40643,-1.65594 -0.40643,-1.73 -0.40643,0.67078 -0.40643,-2.71363 -0.40642,0.8858 -0.40643,-2.09003 -0.40643,-2.94793 -0.40643,-1.63027 -0.40643,0.61598 -0.40642,1.82641 -0.40643,1.84105 -0.40643,-1.27909 -0.40643,3.31398 -0.40643,0.0295 -0.40642,0.12561 -0.40643,2.69259 -0.40643,2.48997 -0.40643,-0.54933 -0.40643,0.98436 -0.40642,-0.87881 -0.40643,-2.86696 h -0.40643 l -0.40643,-5.78598 -0.40642,1.86999 -0.40643,-1.96171 -0.40643,-0.61185 -0.40643,-1.01178 -0.40643,4.57132 -0.40642,-4.32372 -0.40643,-3.57082 -0.40643,-0.5945 -0.40643,-0.81549 -0.40643,1.47889 -0.40642,-2.80481 -0.40643,0.55902 -0.40643,-2.66642 -0.40643,-1.40968 -0.40643,-3.88924 -0.40642,5.47007 -0.40643,6.63929 -0.40643,1.06406 -0.40643,4.94402 -0.40643,1.54245 -0.40642,0.44658 -0.40643,-1.26926 -0.40643,4.90575 -0.40643,1.20666 -0.40642,-0.24074 -0.40643,-1.11365 -0.40643,-1.60574 -0.40643,0.26215 -0.40643,-0.26365 -0.40642,-0.0272 -0.40643,-0.84261 -0.40643,0.9573 -0.40643,-1.62747 -0.40643,-2.72285 -0.40642,-0.95432 -0.40643,-1.02405 -0.40643,-1.9393 -0.40643,0.6631 -0.40643,-2.71907 -0.40642,0.6728 -0.40643,-0.0247 -0.40643,0.46317 -0.40643,-3.08386 -0.40643,4.37085 -0.40642,1.10553 -0.40643,0.64573 -0.40643,2.33713 -0.40643,0.18027 -0.40642,0.63928 -0.40643,1.54406 -0.40643,-2.09918 -0.40643,0.95879 -0.40643,3.23435 -0.40642,-0.51299 -0.40643,1.57638 -0.40643,-3.23435 -0.40643,-3.36718 -0.40643,-1.21284 -0.40642,-2.28728 -0.40643,-4.16728 -0.40643,5.62432 -0.40643,-1.56362 -0.40643,-1.09382 -0.40642,0.20004 -0.40643,1.88218 -0.40643,0.47103 -0.40643,1.39232 -0.40643,0.82329 -0.40642,3.20177 -0.40643,3.90911 -0.40643,-6.40888 -0.40643,0.39196 -0.40642,0.43648 -0.40643,-3.5557 -0.40643,-2.89205 -0.40643,0.86916 -0.40643,-0.93723 -0.40642,-2.75526 -0.40643,-4.38701 -0.40643,-4.77632 -0.40643,2.92009 -0.40643,-4.88235 -0.40642,3.42839 -0.40643,4.28091 -0.40643,3.65641 -0.40643,2.07242 -0.40643,-1.36566 -0.40642,1.13337 -0.40643,2.19734 -0.40643,1.51095 -0.40643,-0.7622 -0.40643,6.98329 -0.40642,-5.92515 -0.40643,-2.49349 -0.40643,-1.18441 -0.40643,-4.05821 -0.40642,0.31412 -0.40643,-2.95197 -0.40643,-0.0147 -0.40643,0.13707 -0.40643,0.824 -0.40642,-2.41459 -0.40643,3.65409 -0.40643,0.46958 -0.40643,-1.9397 -0.40643,2.30289 -0.40642,1.18483 -0.40643,3.01298 -0.40643,1.98537 -0.40643,-0.34563 -0.40643,2.90545 -0.40642,1.61603 -0.40643,-2.45727 -0.40643,-0.87264 -0.40643,-3.41032 -0.40643,1.97034 -0.40642,1.37869 -0.40643,2.00098 -0.40643,-1.7107 -0.40643,-0.28396 -0.40642,-6.09662 -0.40643,-0.0463 -0.40643,3.41786 -0.40643,1.50174 -0.40643,0.071 -0.40642,-4.37139 -0.40643,-1.84077 -0.40643,-1.69856 -0.40643,2.27105 -0.40643,0.59131 -0.40642,2.20009 -0.40643,-1.25605 -0.40643,-1.46059 -0.40643,-0.13386 h -0.40643 l -0.40642,3.63106 -0.40643,1.88632 -0.40643,2.90921 -0.40643,-2.09753 -0.40643,-0.0988 -0.40642,-2.48334 -0.40643,-0.824 -0.40643,-0.0894 -0.40643,-0.99751 -0.40642,3.63105 -0.40643,-4.53531 -0.40643,-0.52459 -0.40643,-2.16669 -0.40643,-1.76733 -0.40642,1.83883 -0.40643,3.64499 -0.40643,-1.57651 -0.40643,-0.35629 -0.40643,-1.98134 -0.40642,-2.73609 -0.40643,1.49694 -0.40643,2.48361 -0.40643,-1.13207 -0.40642,1.50663 -0.40643,-3.30641 -0.40643,-1.9877 -0.40643,4.27385 -0.40643,-1.64801 -0.40642,4.75578 -0.40643,5.41323 -0.40643,0.14138 -0.40643,-5.25504 -0.40643,-0.5845 -0.40642,-0.73681 -0.40643,1.79907 -0.40643,-0.89496 -0.40643,0.9697 -0.40643,1.49503 -0.40642,-4.36826 -0.40643,-3.34024 -0.40643,0.42498 -0.40643,3.42136 -0.40642,-2.98547 -0.40643,0.5564 -0.40643,-2.34841 -0.40643,1.16893 -0.40643,-6.69398 -0.40642,-1.64801 -0.40643,3.93687 -0.40643,-0.13318 -0.40643,-2.60405 -0.40643,-5.06937 -0.40642,3.20842 -0.40643,-2.64274 -0.40643,1.6294 -0.40643,0.95605 -0.40643,1.13818 -0.40642,0.50912 -0.40643,-4.75236 -0.40643,0.82211 -0.40643,5.20811 -0.40643,0.5648 -0.40642,0.57933 -0.40643,4.62104 -0.40643,-3.32076 -0.40643,-2.27546 -0.40642,0.38267 -0.40643,-4.98724 -0.40643,2.32213 -0.40643,-4.99386 -0.40643,-2.41306 -0.40642,1.56159 -0.40643,0.12855 -0.40643,-3.92967 -0.40643,-0.32021 -0.40643,2.07934 -0.40642,2.18817 -0.40643,5.97227 -0.40643,-3.64715 -0.406428,1.74925 -0.406428,-3.0783 -0.406428,-1.18626 -0.406428,-1.50189 -0.406428,-1.50609 -0.406428,3.81923 -0.406428,-3.96881 -0.406428,0.61888 -0.406428,-6.42345 -0.406428,0.28395 -0.406427,-2.35823 -0.406428,1.57894 -0.406428,0.79836 -0.406428,-3.61863 -0.406428,0.75304 -0.406428,-0.60622 -0.406428,1.77865 -0.406428,-4.92098 -0.406428,5.48897 -0.406428,2.78921 -0.406428,0.33431 -0.406427,1.09867 -0.406428,4.91201 -0.406428,0.37093 -0.406428,0.37831 -0.406428,-1.54274 -0.406428,0.60897 -0.406428,-0.97909 -0.406428,-2.54195 -0.406428,-5.36677 -0.406428,1.22359 -0.406428,-1.22227 -0.406428,-9.07929 -0.406427,-3.83606 -0.406428,0.20611 -0.406428,0.7964 -0.406428,-1.34269 -0.406428,-1.2112 -0.406428,-0.824 -0.406428,4.61455 -0.406428,3.63067 -0.406428,3.31926 -0.406428,2.10859 -0.406428,6.07538 -0.406428,0.36004 -0.406427,0.11377 -0.406428,0.58167 -0.406428,5.49096 -0.406428,3.56269 -0.406428,-3.48686 -0.406428,-7.59394 -0.406428,-10.69383 -0.406428,-3.35031 -0.406428,-2.77937 -0.406428,1.31256 -0.406428,-5.50494 -0.406428,-1.78722 -0.406427,-3.80069 -0.406428,-5.94241 -0.406428,1.60892 -0.406428,2.68187 -0.406428,3.6957 -0.406428,-1.11752 -0.406428,-5.81461 -0.406428,-9.14034 -0.406428,-6.64331 -0.406428,-9.81456 -0.406428,-10.36712 -0.406428,-3.09406 -0.406427,-11.30626 -0.406428,-12.49713 -0.406428,-8.72121 -0.406428,-7.240172 z"
           style="fill:#ff0000;fill-opacity:0.5;fill-rule:nonzero;stroke:none"
           id="path195117" />
      </g>
    </g>
    <g
       id="g195119">
      <path
         d="m 70.718182,44.84 v -3.5"
         style="fill:#000000;fill-opacity:1;fill-rule:nonzero;stroke:#000000;stroke-width:0.8;stroke-linecap:butt;stroke-linejoin:round;stroke-miterlimit:10;stroke-dasharray:none;stroke-opacity:1"
         id="path195121" />
      <g
         id="g195123"
         transform="translate(67.538494,30.24625)">
        <text
           xml:space="preserve"
           transform="scale(1,-1)"
           style="font-variant:normal;font-weight:normal;font-size:10px;font-family:'DejaVu Sans';-inkscape-font-specification:DejaVuSans;writing-mode:lr-tb;fill:#000000;fill-opacity:1;fill-rule:nonzero;stroke:none"
           id="text195127"><tspan
             x="0"
             y="0"
             id="tspan195125">0</tspan></text>
      </g>
      <path
         d="m 152.00376,44.84 v -3.5"
         style="fill:#000000;fill-opacity:1;fill-rule:nonzero;stroke:#000000;stroke-width:0.8;stroke-linecap:butt;stroke-linejoin:round;stroke-miterlimit:10;stroke-dasharray:none;stroke-opacity:1"
         id="path195129" />
      <g
         id="g195131"
         transform="translate(142.4647,30.24625)">
        <text
           xml:space="preserve"
           transform="scale(1,-1)"
           style="font-variant:normal;font-weight:normal;font-size:10px;font-family:'DejaVu Sans';-inkscape-font-specification:DejaVuSans;writing-mode:lr-tb;fill:#000000;fill-opacity:1;fill-rule:nonzero;stroke:none"
           id="text195135"><tspan
             x="0 6.3600001 12.72"
             y="0"
             sodipodi:role="line"
             id="tspan195133">200</tspan></text>
      </g>
      <path
         d="m 233.28935,44.84 v -3.5"
         style="fill:#000000;fill-opacity:1;fill-rule:nonzero;stroke:#000000;stroke-width:0.8;stroke-linecap:butt;stroke-linejoin:round;stroke-miterlimit:10;stroke-dasharray:none;stroke-opacity:1"
         id="path195137" />
      <g
         id="g195139"
         transform="translate(223.75029,30.24625)">
        <text
           xml:space="preserve"
           transform="scale(1,-1)"
           style="font-variant:normal;font-weight:normal;font-size:10px;font-family:'DejaVu Sans';-inkscape-font-specification:DejaVuSans;writing-mode:lr-tb;fill:#000000;fill-opacity:1;fill-rule:nonzero;stroke:none"
           id="text195143"><tspan
             x="0 6.3600001 12.72"
             y="0"
             sodipodi:role="line"
             id="tspan195141">400</tspan></text>
      </g>
      <path
         d="m 314.57493,44.84 v -3.5"
         style="fill:#000000;fill-opacity:1;fill-rule:nonzero;stroke:#000000;stroke-width:0.8;stroke-linecap:butt;stroke-linejoin:round;stroke-miterlimit:10;stroke-dasharray:none;stroke-opacity:1"
         id="path195145" />
      <g
         id="g195147"
         transform="translate(305.03587,30.24625)">
        <text
           xml:space="preserve"
           transform="scale(1,-1)"
           style="font-variant:normal;font-weight:normal;font-size:10px;font-family:'DejaVu Sans';-inkscape-font-specification:DejaVuSans;writing-mode:lr-tb;fill:#000000;fill-opacity:1;fill-rule:nonzero;stroke:none"
           id="text195151"><tspan
             x="0 6.3600001 12.72"
             y="0"
             sodipodi:role="line"
             id="tspan195149">600</tspan></text>
      </g>
      <path
         d="m 395.86051,44.84 v -3.5"
         style="fill:#000000;fill-opacity:1;fill-rule:nonzero;stroke:#000000;stroke-width:0.8;stroke-linecap:butt;stroke-linejoin:round;stroke-miterlimit:10;stroke-dasharray:none;stroke-opacity:1"
         id="path195153" />
      <g
         id="g195155"
         transform="translate(386.32145,30.24625)">
        <text
           xml:space="preserve"
           transform="scale(1,-1)"
           style="font-variant:normal;font-weight:normal;font-size:10px;font-family:'DejaVu Sans';-inkscape-font-specification:DejaVuSans;writing-mode:lr-tb;fill:#000000;fill-opacity:1;fill-rule:nonzero;stroke:none"
           id="text195159"><tspan
             x="0 6.3600001 12.72"
             y="0"
             sodipodi:role="line"
             id="tspan195157">800</tspan></text>
      </g>
      <path
         d="m 477.1461,44.84 v -3.5"
         style="fill:#000000;fill-opacity:1;fill-rule:nonzero;stroke:#000000;stroke-width:0.8;stroke-linecap:butt;stroke-linejoin:round;stroke-miterlimit:10;stroke-dasharray:none;stroke-opacity:1"
         id="path195161" />
      <g
         id="g195163"
         transform="translate(464.42735,30.24625)">
        <text
           xml:space="preserve"
           transform="scale(1,-1)"
           style="font-variant:normal;font-weight:normal;font-size:10px;font-family:'DejaVu Sans';-inkscape-font-specification:DejaVuSans;writing-mode:lr-tb;fill:#000000;fill-opacity:1;fill-rule:nonzero;stroke:none"
           id="text195167"><tspan
             x="0 6.3600001 12.72 19.08"
             y="0"
             sodipodi:role="line"
             id="tspan195165">1000</tspan></text>
      </g>
      <g
         id="g195169"
         transform="translate(246.43906,15.043125)">
        <text
           xml:space="preserve"
           transform="scale(1,-1)"
           style="font-variant:normal;font-weight:normal;font-size:12px;font-family:'DejaVu Sans';-inkscape-font-specification:DejaVuSans;writing-mode:lr-tb;fill:#000000;fill-opacity:1;fill-rule:nonzero;stroke:none"
           id="text195173"><tspan
             x="0 3.54 8.2440004 15.624 20.556 27.912001 32.616001 35.952 43.296001"
             y="0"
             sodipodi:role="line"
             id="tspan195171">Iteration</tspan></text>
      </g>
      <path
         d="M 50.6,71.523827 H 47.1"
         style="fill:#000000;fill-opacity:1;fill-rule:nonzero;stroke:#000000;stroke-width:0.8;stroke-linecap:butt;stroke-linejoin:round;stroke-miterlimit:10;stroke-dasharray:none;stroke-opacity:1"
         id="path195175" />
      <g
         id="g195177"
         transform="translate(27.69375,67.726952)">
        <text
           xml:space="preserve"
           transform="scale(1,-1)"
           style="font-variant:normal;font-weight:normal;font-size:10px;font-family:'DejaVu Sans';-inkscape-font-specification:DejaVuSans;writing-mode:lr-tb;fill:#000000;fill-opacity:1;fill-rule:nonzero;stroke:none"
           id="text195181"><tspan
             x="0 6.3600001 9.54"
             y="0"
             sodipodi:role="line"
             id="tspan195179">0.4</tspan></text>
      </g>
      <path
         d="M 50.6,112.72398 H 47.1"
         style="fill:#000000;fill-opacity:1;fill-rule:nonzero;stroke:#000000;stroke-width:0.8;stroke-linecap:butt;stroke-linejoin:round;stroke-miterlimit:10;stroke-dasharray:none;stroke-opacity:1"
         id="path195183" />
      <g
         id="g195185"
         transform="translate(27.69375,108.92711)">
        <text
           xml:space="preserve"
           transform="scale(1,-1)"
           style="font-variant:normal;font-weight:normal;font-size:10px;font-family:'DejaVu Sans';-inkscape-font-specification:DejaVuSans;writing-mode:lr-tb;fill:#000000;fill-opacity:1;fill-rule:nonzero;stroke:none"
           id="text195189"><tspan
             x="0 6.3600001 9.54"
             y="0"
             sodipodi:role="line"
             id="tspan195187">0.5</tspan></text>
      </g>
      <path
         d="M 50.6,153.92414 H 47.1"
         style="fill:#000000;fill-opacity:1;fill-rule:nonzero;stroke:#000000;stroke-width:0.8;stroke-linecap:butt;stroke-linejoin:round;stroke-miterlimit:10;stroke-dasharray:none;stroke-opacity:1"
         id="path195191" />
      <g
         id="g195193"
         transform="translate(27.69375,150.12727)">
        <text
           xml:space="preserve"
           transform="scale(1,-1)"
           style="font-variant:normal;font-weight:normal;font-size:10px;font-family:'DejaVu Sans';-inkscape-font-specification:DejaVuSans;writing-mode:lr-tb;fill:#000000;fill-opacity:1;fill-rule:nonzero;stroke:none"
           id="text195197"><tspan
             x="0 6.3600001 9.54"
             y="0"
             sodipodi:role="line"
             id="tspan195195">0.6</tspan></text>
      </g>
      <path
         d="M 50.6,195.1243 H 47.1"
         style="fill:#000000;fill-opacity:1;fill-rule:nonzero;stroke:#000000;stroke-width:0.8;stroke-linecap:butt;stroke-linejoin:round;stroke-miterlimit:10;stroke-dasharray:none;stroke-opacity:1"
         id="path195199" />
      <g
         id="g195201"
         transform="translate(27.69375,191.32742)">
        <text
           xml:space="preserve"
           transform="scale(1,-1)"
           style="font-variant:normal;font-weight:normal;font-size:10px;font-family:'DejaVu Sans';-inkscape-font-specification:DejaVuSans;writing-mode:lr-tb;fill:#000000;fill-opacity:1;fill-rule:nonzero;stroke:none"
           id="text195205"><tspan
             x="0 6.3600001 9.54"
             y="0"
             sodipodi:role="line"
             id="tspan195203">0.7</tspan></text>
      </g>
      <path
         d="M 50.6,236.32446 H 47.1"
         style="fill:#000000;fill-opacity:1;fill-rule:nonzero;stroke:#000000;stroke-width:0.8;stroke-linecap:butt;stroke-linejoin:round;stroke-miterlimit:10;stroke-dasharray:none;stroke-opacity:1"
         id="path195207" />
      <g
         id="g195209"
         transform="translate(27.69375,232.52758)">
        <text
           xml:space="preserve"
           transform="scale(1,-1)"
           style="font-variant:normal;font-weight:normal;font-size:10px;font-family:'DejaVu Sans';-inkscape-font-specification:DejaVuSans;writing-mode:lr-tb;fill:#000000;fill-opacity:1;fill-rule:nonzero;stroke:none"
           id="text195213"><tspan
             x="0 6.3600001 9.54"
             y="0"
             sodipodi:role="line"
             id="tspan195211">0.8</tspan></text>
      </g>
      <g
         id="g195215"
         transform="rotate(90,-34.225625,55.419375)">
        <text
           xml:space="preserve"
           transform="scale(1,-1)"
           style="font-variant:normal;font-weight:normal;font-size:12px;font-family:'DejaVu Sans';-inkscape-font-specification:DejaVuSans;writing-mode:lr-tb;fill:#000000;fill-opacity:1;fill-rule:nonzero;stroke:none"
           id="text195219"><tspan
             x="0 7.0328751 11.714875 19.094875 26.714874 30.050875 36.650875 41.354874 44.690876 52.034874 59.642876 63.458874 71.463753 78.063751 84.66375 92.271751 97.203751 104.55975 111.15975 118.26375 122.07975 126.75975 138.15974"
             y="0"
             sodipodi:role="line"
             id="tspan195217">Prediction Accuracy (%)</tspan></text>
      </g>
      <path
         d="M 50.6,44.84 V 277.2"
         style="fill:none;stroke:#000000;stroke-width:0.8;stroke-linecap:square;stroke-linejoin:miter;stroke-miterlimit:10;stroke-dasharray:none;stroke-opacity:1"
         id="path195221" />
      <path
         d="M 493.2,44.84 V 277.2"
         style="fill:none;stroke:#000000;stroke-width:0.8;stroke-linecap:square;stroke-linejoin:miter;stroke-miterlimit:10;stroke-dasharray:none;stroke-opacity:1"
         id="path195223" />
      <path
         d="M 50.6,44.84 H 493.2"
         style="fill:none;stroke:#000000;stroke-width:0.8;stroke-linecap:square;stroke-linejoin:miter;stroke-miterlimit:10;stroke-dasharray:none;stroke-opacity:1"
         id="path195225" />
      <path
         d="M 50.6,277.2 H 493.2"
         style="fill:none;stroke:#000000;stroke-width:0.8;stroke-linecap:square;stroke-linejoin:miter;stroke-miterlimit:10;stroke-dasharray:none;stroke-opacity:1"
         id="path195227" />
      <path
         d="m 426.74687,264.10625 h 10 10"
         style="fill:none;stroke:#ff0000;stroke-width:1.5;stroke-linecap:square;stroke-linejoin:round;stroke-miterlimit:10;stroke-dasharray:none;stroke-opacity:1"
         id="path195229" />
      <g
         id="g195231"
         transform="translate(454.74687,260.60625)">
        <text
           xml:space="preserve"
           transform="scale(1,-1)"
           style="font-variant:normal;font-weight:normal;font-size:10px;font-family:'DejaVu Sans';-inkscape-font-specification:DejaVuSans;writing-mode:lr-tb;fill:#000000;fill-opacity:1;fill-rule:nonzero;stroke:none"
           id="text195235"><tspan
             x="0 6.3499999 14.22 21.700001"
             y="0"
             sodipodi:role="line"
             id="tspan195233">SONG</tspan></text>
      </g>
    </g>
    <g
       id="g195237">
      <g
         id="g195239"
         clip-path="url(#clipPath195243)">
        <path
           d="m 70.718182,75.643838 0.812856,9.338702 0.812855,17.57873 0.406428,5.49336 0.406428,9.06403 0.406428,5.76803 0.406428,3.84534 0.812856,12.36005 0.812856,1.648 0.406428,-0.54933 0.406428,-1.92268 0.406428,-0.54933 0.812855,5.21869 0.406428,4.66935 0.406428,-0.82401 0.406428,2.47201 0.406428,4.94402 0.812856,11.53605 0.406428,5.49335 0.406428,3.84535 0.406428,-3.02134 0.406428,1.92267 0.406427,0.27467 0.406428,0.54933 0.406428,-5.76802 0.406428,-0.27467 0.812856,-3.84535 0.406428,-3.29601 0.406428,0.82401 0.406428,1.37333 h 0.406428 l 0.406428,1.92268 0.406428,1.37334 0.812855,9.61337 0.406428,2.74667 h 0.406428 l 0.406428,3.02135 h 0.406428 l 0.406428,-0.27467 0.812856,1.09867 1.625711,-4.12002 0.406428,0.27467 0.406428,-1.09867 0.406428,-3.57068 0.406428,4.39468 0.406428,-1.92267 0.406428,1.37334 0.406428,0.27467 0.406428,2.47201 0.406428,-0.54934 0.406428,0.54934 0.406427,2.74667 0.406428,1.09867 0.406428,5.49336 0.406428,-2.19734 0.406428,3.29601 0.406428,-5.21869 0.406428,-0.54933 0.406428,3.02134 0.406428,0.82401 0.406428,2.19734 0.406428,-2.74668 0.40643,0.824 0.40643,-4.66935 0.40642,1.92268 0.40643,-1.64801 0.40643,2.47201 0.40643,5.49336 0.40643,-1.64801 0.40642,-2.19734 0.40643,-1.37334 0.40643,2.19734 0.40643,-1.37334 0.40643,4.66935 0.40642,-1.37334 0.81286,3.57068 0.40643,-2.74667 0.40642,0.27467 0.40643,1.09867 0.40643,-1.64801 0.40643,-0.27467 0.40643,4.12002 0.40642,-2.19734 0.40643,-3.84535 0.40643,0.824 0.40643,-1.92267 0.40643,1.37333 0.40642,-3.57068 0.40643,3.29602 0.40643,0.824 0.40643,-0.54934 0.40643,-1.92267 0.40642,1.64801 0.40643,8.24003 0.40643,-2.47201 0.40643,4.39468 0.40643,-1.648 0.40642,1.09867 0.40643,-1.64801 0.81286,6.04269 0.40642,0.824 0.81286,-1.648 0.40643,1.92267 0.40643,-3.84535 0.40642,0.27467 0.40643,2.74668 0.40643,4.12001 0.40643,-2.47201 0.40643,-0.27466 0.40642,-2.47201 0.40643,1.64801 0.40643,-3.57069 0.40643,-0.824 0.40643,1.64801 0.40642,0.824 0.40643,0.54934 0.40643,-2.74668 0.40643,0.54933 0.40642,-0.824 0.40643,1.37334 h 0.40643 l 0.40643,0.824 0.40643,0.54934 0.40642,1.37333 h 0.40643 l 0.40643,0.82401 0.81286,3.57068 0.40642,-1.09867 0.40643,1.09867 0.40643,-0.27467 0.40643,0.824 0.40642,-0.54933 0.40643,-1.09867 0.40643,1.92267 0.40643,-0.54933 0.40643,-3.02135 0.40642,-1.09867 h 0.40643 l 0.40643,1.37334 0.40643,-1.09867 0.40643,1.64801 0.40642,-0.27467 0.40643,1.09867 0.40643,-2.19734 0.40643,-0.27467 0.40643,0.824 0.40642,3.84535 0.40643,-1.09867 0.40643,-3.84535 0.40643,0.824 0.40643,-1.37334 0.40642,4.94402 0.40643,-1.09867 0.40643,2.19734 0.40643,-1.37334 0.81285,-4.94401 0.81286,5.49335 0.40643,0.824 0.40642,-0.824 0.40643,-1.37334 0.40643,1.37334 0.40643,-2.47201 0.40643,-1.09867 0.40642,1.92268 0.40643,-1.64801 0.40643,1.09867 h 0.40643 l 0.40643,-1.64801 0.40642,3.57069 0.40643,-0.82401 0.40643,-0.27466 0.40643,1.648 0.40643,0.54934 0.40642,-0.54934 0.40643,3.29601 0.40643,2.19734 0.81285,6.86669 0.40643,-5.49335 h 0.40643 l 0.40643,-1.37334 0.40643,-2.19734 0.40642,1.37334 0.40643,0.824 0.40643,-3.29601 0.81286,-9.3387 0.40642,-2.74668 0.40643,2.47201 0.40643,-1.92267 0.40643,0.54933 0.40643,3.84535 0.40642,1.64801 0.81286,1.648 0.81286,5.49336 0.40642,0.824 h 0.40643 l 0.40643,4.39468 h 0.40643 l 0.40642,-1.648 0.40643,-1.09867 0.40643,0.27467 0.40643,0.54933 0.40643,-1.92267 h 0.40642 l 0.40643,-0.82401 0.40643,0.54934 0.40643,-3.84535 0.40643,3.57068 0.81285,3.57068 0.40643,-0.824 0.81286,1.648 0.40642,1.64801 0.40643,-0.824 0.81286,5.21868 0.40643,-0.27467 h 0.81285 l 0.40643,0.54934 0.40643,0.27467 0.40642,-1.92268 0.40643,-4.12001 0.40643,0.824 0.40643,-3.57068 0.40643,-1.37334 h 0.81285 l 0.40643,-0.27466 0.40643,0.54933 0.40643,0.824 0.40642,1.09867 0.81286,4.66935 0.40643,1.37334 0.40643,0.54934 0.40642,-1.37334 0.40643,0.824 0.40643,-1.64801 0.40643,2.74668 0.40643,1.92267 0.40642,-0.824 0.40643,-2.19734 0.40643,-3.57068 0.40643,1.37334 0.40642,-0.27467 0.40643,-2.19734 0.40643,-4.94402 0.40643,1.09867 0.81285,-10.9867 0.81286,3.57068 0.40643,3.02134 0.40643,-0.27467 0.40642,3.02135 0.40643,-0.824 0.40643,2.19734 0.40643,-1.09867 0.40643,2.19734 0.40642,3.29601 0.40643,-0.54933 0.40643,1.09867 0.81286,-3.57069 0.40642,-2.472 0.40643,5.49335 h 0.40643 l 0.81285,4.39468 0.40643,-1.648 0.40643,0.54933 0.81286,-4.12001 0.40642,2.74667 0.40643,-0.54933 0.40643,-3.02135 0.40643,-0.27466 0.40643,-2.19735 0.40642,-1.09867 0.40643,0.54934 0.40643,-0.27467 0.81286,4.12002 0.40642,-1.64801 0.40643,5.49336 0.40643,-0.82401 0.40643,1.64801 0.40643,0.54933 0.40642,0.27467 0.40643,-0.27467 0.81286,-1.648 0.40642,3.57068 0.40643,1.64801 0.40643,-4.12002 0.40643,0.824 0.81285,-1.648 0.40643,-1.09867 0.40643,0.27466 0.40643,1.92268 0.40643,1.09867 0.40642,-3.29601 0.40643,-1.37334 0.40643,3.84535 0.40643,-1.37334 0.40643,1.64801 0.40642,0.27466 0.40643,3.02135 h 0.40643 l 0.40643,-2.47201 0.81285,1.92267 0.40643,-2.74668 0.40643,-6.04268 0.40643,1.37333 h 0.40643 l 0.40642,-2.47201 0.40643,-1.37334 h 0.40643 l 0.40643,0.54934 0.40642,-1.92267 0.40643,0.27466 0.40643,-0.824 0.40643,3.29601 0.40643,1.64801 h 0.40642 l 0.40643,3.57068 0.40643,1.09867 h 0.81286 l 0.40642,0.824 0.40643,-0.824 0.40643,1.09867 0.40643,-0.824 0.40643,-1.92268 0.81285,-1.92267 0.40643,-2.74668 0.40643,0.54934 0.40642,-0.82401 0.81286,-3.02134 0.40643,3.84535 0.40643,-0.27467 0.40642,0.54934 0.81286,3.02134 0.40643,-1.09867 h 0.40643 l 0.40642,2.47201 0.40643,0.824 h 0.40643 l 0.40643,-0.27467 0.40643,0.54934 0.40642,0.27466 0.40643,-0.27466 0.40643,-3.57068 0.40643,2.47201 0.40643,-2.47201 0.40642,-0.27467 0.40643,1.09867 0.40643,0.27467 0.81285,-2.47201 0.40643,0.54934 0.40643,-0.27467 0.40643,2.47201 0.40643,0.27467 0.40642,4.94401 0.40643,-0.27466 2.03214,5.76802 0.40643,-1.37334 h 0.40643 l 0.40643,0.824 0.40642,-4.12001 0.40643,0.54933 0.40643,-0.824 0.40643,-0.54934 0.40643,-2.47201 0.81285,-3.29601 0.81286,2.47201 0.40642,0.824 0.40643,-0.824 0.40643,-2.19734 h 0.40643 l 0.40643,2.47201 0.81285,3.57068 h 0.40643 l 0.40643,0.824 0.40643,-0.27467 0.40642,-2.19734 0.40643,2.74668 0.40643,0.824 0.81286,-5.49335 0.81285,1.92267 0.40643,-0.54933 0.81286,-2.47201 0.40642,-1.64801 0.40643,-4.66935 0.40643,-1.92267 0.40643,1.37334 0.40642,-1.92268 0.40643,1.09867 0.40643,-1.92267 0.40643,-0.54934 0.40643,-3.02134 0.40642,0.824 0.40643,2.47201 0.40643,3.84535 0.40643,2.47201 0.40643,0.27467 0.40642,2.47201 0.40643,-5.21869 0.40643,0.27467 0.40643,1.92267 0.40643,2.74668 0.40642,1.648 0.40643,0.27467 0.40643,2.19734 0.40643,0.824 0.40642,-1.648 0.40643,0.824 0.40643,1.64801 0.40643,-0.27467 0.40643,-0.824 0.40642,0.27467 0.40643,-1.64801 0.40643,-0.824 0.40643,-1.64801 0.40643,0.27467 0.40642,1.37334 0.40643,-1.64801 0.40643,0.824 0.40643,-0.824 0.40643,0.27467 0.40642,1.37334 0.40643,-0.27467 0.40643,1.09867 0.81286,-1.92267 0.40642,0.54933 0.40643,1.92267 0.40643,-0.27466 0.40643,-1.37334 0.40642,2.74668 0.40643,-0.54934 0.40643,0.54933 0.40643,-3.29601 0.40643,1.09867 0.40643,0.54934 0.40642,0.824 0.40643,0.27467 0.40643,3.02134 0.40643,0.82401 0.40642,-3.57068 0.40643,-1.64801 0.81286,3.84535 0.40643,1.09867 0.40642,1.64801 0.40643,-0.27467 0.40643,-0.824 0.40643,-0.54934 0.40643,0.824 0.40642,-0.27466 0.40643,-1.64801 0.40643,-4.12002 0.40643,0.27467 0.40643,-4.12002 0.40642,0.82401 0.40643,-1.09867 0.40643,0.824 h 0.40643 l 1.21928,7.6907 0.40643,1.37334 0.40643,-1.09867 0.40643,3.84534 0.40642,-0.824 h 0.40643 l 0.40643,-0.824 0.40643,0.27467 0.40642,-1.64801 0.40643,-2.74668 0.40643,-1.37334 0.40643,0.54934 0.40643,-2.47201 0.40642,-1.09867 0.40643,-4.12002 0.40643,1.09868 0.40643,3.29601 0.40642,0.27467 0.40643,0.54933 0.40643,-0.27467 0.40643,1.37334 0.81285,4.94402 0.40643,-4.39468 0.40643,3.84534 0.40643,-0.27467 0.81285,-4.12001 0.40643,0.27467 0.40643,6.04269 0.81286,-3.02135 0.40642,0.54934 0.40643,3.84535 0.81286,-1.09867 0.40643,-0.27467 0.40642,1.09867 0.40643,-1.37334 0.40643,-4.39468 0.40643,-0.27467 0.40642,-1.64801 0.81286,5.49336 0.40643,-1.64801 h 0.40643 l 0.40642,-1.64801 0.40643,0.27467 0.40643,0.824 0.40643,-1.648 0.81285,3.57068 0.40643,-1.64801 0.81286,0.54934 0.40643,2.74667 0.40642,1.09868 0.81286,-4.12002 0.40643,1.09867 0.40643,-0.824 0.40642,-0.27467 0.40643,-0.54934 0.81286,-3.02134 0.40643,-4.66935 0.40642,1.09867 0.40643,1.64801 0.40643,3.84534 0.40643,1.09867 0.40642,1.64801 0.40643,-0.54934 0.40643,3.29601 0.40643,0.82401 0.40643,1.92267 0.40642,3.57068 h 0.40643 l 0.40643,-3.02134 0.40643,-1.37334 0.40643,1.09867 0.40642,-1.09867 0.81286,-7.14136 0.40643,-0.27467 0.40643,1.64801 0.40642,-0.824 0.40643,-0.27467 0.40643,4.12001 0.40643,1.64801 0.81285,-1.648 0.40643,0.824 0.40643,1.37334 0.40643,-1.09867 0.81285,3.84534 0.40643,0.82401 0.40643,-0.27467 0.40643,-2.74668 0.40642,-1.37334 0.81286,5.49336 0.40643,0.824 0.40643,1.64801 0.40642,-3.02135 0.40643,-1.37334 0.40643,-2.19734 0.40643,-0.27467 0.40643,-0.54933 0.40642,2.74667 0.40643,-1.09867 0.40643,1.09867 0.40643,-0.824 0.40642,-4.12001 0.40643,-1.92268 0.40643,0.824 0.40643,2.74668 0.40643,1.09867 0.40643,1.92268 0.40642,-1.92268 0.40643,-0.824 0.40643,-0.27467 0.40643,-1.09867 0.40642,2.47201 0.40643,-0.27467 0.40643,0.82401 0.40643,-0.54934 0.81285,-1.92267 0.40643,1.37334 0.40643,-1.09867 0.40643,0.824 0.40643,2.47201 0.40642,1.09867 0.40643,2.47201 0.40643,-0.27467 0.40643,-2.47201 0.40642,-4.12002 h 0.40643 l 0.40643,-1.92267 h 0.40643 l 0.81285,-3.57068 0.40643,-1.92267 h 0.40643 l 0.40643,-1.37334 0.40643,1.09867 0.40642,4.66935 h 0.40643 l 0.40643,-0.27467 0.40643,3.02135 0.40643,-0.54934 0.40642,2.74668 0.40643,0.27467 0.40643,-1.09867 0.40643,-0.27467 0.40643,0.27467 0.40642,2.19734 0.40643,-1.09867 0.40643,0.824 0.40643,0.27467 0.40643,1.64801 h 0.40642 l 0.40643,0.824 0.40643,1.37334 0.40643,-0.54934 0.40642,2.47201 0.40643,-1.92267 0.40643,2.19734 0.40643,0.54933 0.40643,-1.648 0.40642,-3.29602 0.40643,-1.648 0.40643,1.648 0.40643,-2.19734 0.40643,1.37334 1.21928,-4.94402 0.40643,1.09867 0.40643,-1.09867 0.40642,1.37334 0.40643,0.54934 0.40643,-0.54934 0.40643,1.92268 0.40642,-1.92268 h 0.40643 l 0.40643,0.824 0.81286,-1.648 0.40642,1.92267 h 0.40643 l 0.40643,-0.54933 0.40643,0.27466 0.81285,2.74668 0.40643,-1.09867 0.40643,-2.47201 0.81286,2.74668 0.40642,0.824 0.40643,1.64801 0.40643,-0.82401 0.40643,-3.02134 0.81285,-2.47201 0.40643,1.64801 0.40643,3.29601 0.40643,-1.09867 0.40642,0.54933 0.40643,-2.19734 0.40643,-1.09867 0.81286,-0.54933 0.40642,-1.64801 0.40643,0.54933 0.40643,-1.09867 0.40643,-1.648 0.40643,-0.27467 0.81285,-4.12002 0.40643,-0.54933 0.40643,1.09867 0.40643,2.74668 0.40642,1.648 0.40643,-1.09867 0.40643,2.19734 0.40643,1.37334 0.40643,-1.37334 0.40642,0.27467 0.40643,4.12002 0.40643,2.47201 0.40643,-1.64801 0.40642,0.27467 0.81286,4.39468 0.81286,-4.94402 0.40642,3.84535 0.40643,0.824 0.40643,-3.84534 0.40643,-0.54934 0.40643,1.64801 0.40642,-1.09868 0.40643,-3.29601 0.40643,0.82401 0.81286,5.21868 0.40642,-1.09867 0.40643,0.824 0.40643,1.92268 0.81286,-1.92268 0.40642,-0.54933 0.40643,1.92267 0.40643,1.37334 1.62571,-6.59203 h 0.40643 l 0.81285,-1.09867 0.40643,2.74668 0.81286,-3.84534 0.40643,-0.54934 0.40642,0.27467 0.40643,0.824 0.40643,2.19734 0.40643,1.37334 0.40643,2.47201 0.40642,1.09867 0.81286,0.54933 0.81286,-4.12001 0.40642,0.54934 0.40643,-0.54934 1.21928,-4.94402 0.40643,0.824 0.40643,-3.84534 0.40643,0.54933 0.81285,4.66935 0.40643,1.09867 0.40643,-0.54933 0.40643,-0.824 h 0.81285 l 0.40643,-2.47201 0.40643,0.54933 0.40643,0.27467 0.81285,-3.29601 0.40643,-0.27467 0.40643,1.64801 0.40643,1.09867 0.40642,0.54933 0.40643,-0.54933 0.40643,0.824 0.40643,-0.27467 0.40643,1.64801 0.40642,2.19734 0.40643,3.02134 h 0.81286 l 0.40643,1.92268 h 0.81285 l 0.81286,3.02134 0.40643,-2.74668 0.40642,-1.37333 0.40643,-2.74668 0.40643,-1.92268 h 0.40643 l 0.40643,-1.92267 h 0.40642 l 0.40643,1.64801 0.40643,-1.37334 h 0.40643 l 0.40642,-0.824 0.40643,0.824 0.40643,4.12002 0.81286,5.21868 h 0.40642 l 0.40643,-1.92267 0.40643,-0.824 0.40643,1.09867 0.40643,0.54933 0.40642,2.74668 0.40643,0.824 0.81286,-5.21869 0.40643,-1.37333 0.40642,-0.27467 0.40643,3.29601 0.40643,2.19734 0.40643,-0.824 0.40643,-2.19734 0.40642,-1.09867 0.40643,-3.84535 0.40643,-1.92268 0.40643,1.37334 0.40642,0.27467 h 0.40643 l 0.40643,-0.27467 0.40643,0.27467 0.81286,3.02134 0.40642,-0.54933 0.40643,3.29601 0.40643,-0.27467 0.40643,0.82401 0.40642,-0.54934 0.40643,-1.648 0.40643,-0.54934 0.40643,-3.57068 0.40643,-1.09867 h 0.40642 l 0.40643,1.09867 0.40643,1.92267 0.40643,0.54934 0.40643,-1.37334 0.40642,-0.824 0.40643,2.74667 0.40643,1.92268 0.40643,3.02134 0.40642,1.09867 0.40643,0.54934 0.40643,-0.54934 0.40643,-0.27466 0.81285,2.47201 0.40643,-0.54934 0.40643,-0.27467 0.40643,-0.54933 0.40643,-5.49336 0.40643,0.27467 0.40642,-0.54934 0.40643,-0.27466 0.40643,-1.92268 0.40643,-1.09867 0.40642,0.54934 0.40643,-0.54934 0.40643,-2.47201 0.40643,-1.09866 0.40643,2.74667 0.40642,-0.824 0.81286,1.648 0.40643,-2.19734 0.40642,0.27467 h 0.40643 l 0.40643,1.92267 0.40643,3.29601 0.40643,0.54934 0.40642,1.37334 0.40643,-0.27467 0.40643,0.82401 0.40643,1.09867 0.40643,3.29601 0.40642,0.27467 0.40643,-1.09867 0.40643,-0.54934 0.40643,-1.37334 0.81285,-4.94402 0.40643,-0.54933 0.40643,2.47201 0.40643,-3.02135 0.40643,-1.92267 0.40642,2.74668 0.40643,0.54933 0.40643,-2.47201 0.40643,0.82401 0.81285,6.86669 0.40643,0.54933 0.40643,-5.21868 0.40643,1.92267 0.40642,1.37334 0.81286,-2.74668 0.40643,3.02135 0.40643,1.09867 0.40642,-4.12002 0.40643,-1.92267 0.40643,-0.54934 0.40643,0.54934 0.40643,0.824 0.40642,-1.37334 0.40643,0.82401 0.40643,0.54933 0.40643,-2.47201 0.40643,-3.84534 0.40642,4.12001 0.40643,1.64801 h 0.40643 l 0.40643,3.84534 0.40643,-0.27466 0.40642,1.92267 0.40643,-1.64801 0.40643,-0.54933 0.40643,0.824 0.40642,2.74668 0.40643,-0.824 0.40643,-1.09868 0.40643,0.54934 h 0.40643 l 0.40642,1.09867 0.40643,-1.648 0.40643,0.27466 0.40643,1.37334 0.81285,0.54934 0.81286,1.92267 0.40643,0.27467 0.40643,-3.02135 h 0.40642 l 0.40643,0.82401 0.40643,-0.27467 h 0.40643 l 0.40642,3.02134 0.81286,-4.66935 0.40643,-1.37334 0.40643,-0.54933 0.40642,-2.74668 0.40643,-0.27467 0.40643,0.54934 0.40643,0.27467 h 0.40643 l 0.40642,-3.29602 0.40643,0.82401 0.81286,4.39468 v 0"
           style="fill:none;stroke:#ff0000;stroke-width:1.5;stroke-linecap:square;stroke-linejoin:round;stroke-miterlimit:10;stroke-dasharray:none;stroke-opacity:1"
           id="path195245" />
      </g>
    </g>
  </g>
</svg>
