<?xml version="1.0" encoding="UTF-8" standalone="no"?>
<!-- Created with Inkscape (http://www.inkscape.org/) -->

<svg
   version="1.1"
   id="svg63894"
   width="480"
   height="384"
   viewBox="0 0 480 384"
   sodipodi:docname="adjoint_zoom.pdf"
   xmlns:inkscape="http://www.inkscape.org/namespaces/inkscape"
   xmlns:sodipodi="http://sodipodi.sourceforge.net/DTD/sodipodi-0.dtd"
   xmlns="http://www.w3.org/2000/svg"
   xmlns:svg="http://www.w3.org/2000/svg">
  <defs
     id="defs63898">
    <clipPath
       clipPathUnits="userSpaceOnUse"
       id="clipPath63980">
      <path
         d="M -1021,-463 H 1794 V 1233 H -1021 Z"
         id="path63978" />
    </clipPath>
    <clipPath
       clipPathUnits="userSpaceOnUse"
       id="clipPath64000">
      <path
         d="M -1021,-463 H 1794 V 1233 H -1021 Z"
         id="path63998" />
    </clipPath>
    <clipPath
       clipPathUnits="userSpaceOnUse"
       id="clipPath64040">
      <path
         d="M 55.73,173.92367 H 349.2 V 275.12734 H 55.73 Z"
         id="path64038" />
    </clipPath>
    <clipPath
       clipPathUnits="userSpaceOnUse"
       id="clipPath64134">
      <path
         d="M -1021,-463 H 1794 V 1233 H -1021 Z"
         id="path64132" />
    </clipPath>
    <clipPath
       clipPathUnits="userSpaceOnUse"
       id="clipPath64168">
      <path
         d="M 55.73,44.84 H 349.2 V 146.04367 H 55.73 Z"
         id="path64166" />
    </clipPath>
    <clipPath
       clipPathUnits="userSpaceOnUse"
       id="clipPath64178">
      <path
         d="M 55.73,44.84 H 349.2 V 146.04367 H 55.73 Z"
         id="path64176" />
    </clipPath>
    <clipPath
       clipPathUnits="userSpaceOnUse"
       id="clipPath64232">
      <path
         d="M -1021,-463 H 1794 V 1233 H -1021 Z"
         id="path64230" />
    </clipPath>
    <clipPath
       clipPathUnits="userSpaceOnUse"
       id="clipPath64244">
      <path
         d="M -1021,-463 H 1794 V 1233 H -1021 Z"
         id="path64242" />
    </clipPath>
    <clipPath
       clipPathUnits="userSpaceOnUse"
       id="clipPath64288">
      <path
         d="M -1021,-463 H 1794 V 1233 H -1021 Z"
         id="path64286" />
    </clipPath>
    <clipPath
       clipPathUnits="userSpaceOnUse"
       id="clipPath64300">
      <path
         d="M -1021,-463 H 1794 V 1233 H -1021 Z"
         id="path64298" />
    </clipPath>
  </defs>
  <sodipodi:namedview
     id="namedview63896"
     pagecolor="#ffffff"
     bordercolor="#000000"
     borderopacity="0.25"
     inkscape:showpageshadow="2"
     inkscape:pageopacity="0.0"
     inkscape:pagecheckerboard="0"
     inkscape:deskcolor="#d1d1d1"
     showgrid="false">
    <inkscape:page
       x="0"
       y="0"
       id="page63900"
       width="480"
       height="384" />
  </sodipodi:namedview>
  <g
     id="g63902"
     inkscape:groupmode="layer"
     inkscape:label="Page 1"
     transform="matrix(1.3333333,0,0,-1.3333333,0,384)">
    <path
       d="M 55.73,173.92367 H 349.2 V 275.12734 H 55.73 Z"
       style="fill:#ffffff;fill-opacity:1;fill-rule:nonzero;stroke:none"
       id="path63906" />
    <path
       d="m 69.069545,173.92367 v -3.5"
       style="fill:#000000;fill-opacity:1;fill-rule:nonzero;stroke:#000000;stroke-width:0.8;stroke-linecap:butt;stroke-linejoin:round;stroke-miterlimit:10;stroke-dasharray:none;stroke-opacity:1"
       id="path63908" />
    <g
       id="g63910"
       transform="translate(65.889858,159.32992)">
      <text
         xml:space="preserve"
         transform="scale(1,-1)"
         style="font-variant:normal;font-weight:normal;font-size:10px;font-family:'DejaVu Sans';-inkscape-font-specification:DejaVuSans;writing-mode:lr-tb;fill:#000000;fill-opacity:1;fill-rule:nonzero;stroke:none"
         id="text63914"><tspan
           x="0"
           y="0"
           id="tspan63912">0</tspan></text>
    </g>
    <path
       d="m 113.5347,173.92367 v -3.5"
       style="fill:#000000;fill-opacity:1;fill-rule:nonzero;stroke:#000000;stroke-width:0.8;stroke-linecap:butt;stroke-linejoin:round;stroke-miterlimit:10;stroke-dasharray:none;stroke-opacity:1"
       id="path63916" />
    <g
       id="g63918"
       transform="translate(103.99563,159.32992)">
      <text
         xml:space="preserve"
         transform="scale(1,-1)"
         style="font-variant:normal;font-weight:normal;font-size:10px;font-family:'DejaVu Sans';-inkscape-font-specification:DejaVuSans;writing-mode:lr-tb;fill:#000000;fill-opacity:1;fill-rule:nonzero;stroke:none"
         id="text63922"><tspan
           x="0 6.3600001 12.72"
           y="0"
           sodipodi:role="line"
           id="tspan63920">500</tspan></text>
    </g>
    <path
       d="m 157.99985,173.92367 v -3.5"
       style="fill:#000000;fill-opacity:1;fill-rule:nonzero;stroke:#000000;stroke-width:0.8;stroke-linecap:butt;stroke-linejoin:round;stroke-miterlimit:10;stroke-dasharray:none;stroke-opacity:1"
       id="path63924" />
    <g
       id="g63926"
       transform="translate(145.2811,159.32992)">
      <text
         xml:space="preserve"
         transform="scale(1,-1)"
         style="font-variant:normal;font-weight:normal;font-size:10px;font-family:'DejaVu Sans';-inkscape-font-specification:DejaVuSans;writing-mode:lr-tb;fill:#000000;fill-opacity:1;fill-rule:nonzero;stroke:none"
         id="text63930"><tspan
           x="0 6.3600001 12.72 19.08"
           y="0"
           sodipodi:role="line"
           id="tspan63928">1000</tspan></text>
    </g>
    <path
       d="m 202.465,173.92367 v -3.5"
       style="fill:#000000;fill-opacity:1;fill-rule:nonzero;stroke:#000000;stroke-width:0.8;stroke-linecap:butt;stroke-linejoin:round;stroke-miterlimit:10;stroke-dasharray:none;stroke-opacity:1"
       id="path63932" />
    <g
       id="g63934"
       transform="translate(189.74625,159.32992)">
      <text
         xml:space="preserve"
         transform="scale(1,-1)"
         style="font-variant:normal;font-weight:normal;font-size:10px;font-family:'DejaVu Sans';-inkscape-font-specification:DejaVuSans;writing-mode:lr-tb;fill:#000000;fill-opacity:1;fill-rule:nonzero;stroke:none"
         id="text63938"><tspan
           x="0 6.3600001 12.72 19.08"
           y="0"
           sodipodi:role="line"
           id="tspan63936">1500</tspan></text>
    </g>
    <path
       d="m 246.93015,173.92367 v -3.5"
       style="fill:#000000;fill-opacity:1;fill-rule:nonzero;stroke:#000000;stroke-width:0.8;stroke-linecap:butt;stroke-linejoin:round;stroke-miterlimit:10;stroke-dasharray:none;stroke-opacity:1"
       id="path63940" />
    <g
       id="g63942"
       transform="translate(234.2114,159.32992)">
      <text
         xml:space="preserve"
         transform="scale(1,-1)"
         style="font-variant:normal;font-weight:normal;font-size:10px;font-family:'DejaVu Sans';-inkscape-font-specification:DejaVuSans;writing-mode:lr-tb;fill:#000000;fill-opacity:1;fill-rule:nonzero;stroke:none"
         id="text63946"><tspan
           x="0 6.3600001 12.72 19.08"
           y="0"
           sodipodi:role="line"
           id="tspan63944">2000</tspan></text>
    </g>
    <path
       d="m 291.3953,173.92367 v -3.5"
       style="fill:#000000;fill-opacity:1;fill-rule:nonzero;stroke:#000000;stroke-width:0.8;stroke-linecap:butt;stroke-linejoin:round;stroke-miterlimit:10;stroke-dasharray:none;stroke-opacity:1"
       id="path63948" />
    <g
       id="g63950"
       transform="translate(278.67655,159.32992)">
      <text
         xml:space="preserve"
         transform="scale(1,-1)"
         style="font-variant:normal;font-weight:normal;font-size:10px;font-family:'DejaVu Sans';-inkscape-font-specification:DejaVuSans;writing-mode:lr-tb;fill:#000000;fill-opacity:1;fill-rule:nonzero;stroke:none"
         id="text63954"><tspan
           x="0 6.3600001 12.72 19.08"
           y="0"
           sodipodi:role="line"
           id="tspan63952">2500</tspan></text>
    </g>
    <path
       d="m 335.86045,173.92367 v -3.5"
       style="fill:#000000;fill-opacity:1;fill-rule:nonzero;stroke:#000000;stroke-width:0.8;stroke-linecap:butt;stroke-linejoin:round;stroke-miterlimit:10;stroke-dasharray:none;stroke-opacity:1"
       id="path63956" />
    <g
       id="g63958"
       transform="translate(323.1417,159.32992)">
      <text
         xml:space="preserve"
         transform="scale(1,-1)"
         style="font-variant:normal;font-weight:normal;font-size:10px;font-family:'DejaVu Sans';-inkscape-font-specification:DejaVuSans;writing-mode:lr-tb;fill:#000000;fill-opacity:1;fill-rule:nonzero;stroke:none"
         id="text63962"><tspan
           x="0 6.3600001 12.72 19.08"
           y="0"
           sodipodi:role="line"
           id="tspan63960">3000</tspan></text>
    </g>
    <path
       d="m 55.73,178.36116 h -3.5"
       style="fill:#000000;fill-opacity:1;fill-rule:nonzero;stroke:#000000;stroke-width:0.8;stroke-linecap:butt;stroke-linejoin:round;stroke-miterlimit:10;stroke-dasharray:none;stroke-opacity:1"
       id="path63964" />
    <g
       id="g63966"
       transform="translate(27.63625,174.56429)">
      <text
         xml:space="preserve"
         transform="matrix(1,0,0,-1,8.3789063,0)"
         style="font-variant:normal;font-weight:normal;font-size:10px;font-family:'DejaVu Sans';-inkscape-font-specification:DejaVuSans;writing-mode:lr-tb;fill:#000000;fill-opacity:1;fill-rule:nonzero;stroke:none"
         id="text63970"><tspan
           x="0 6.3600001"
           y="0"
           sodipodi:role="line"
           id="tspan63968">50</tspan></text>
      <g
         id="g63972"
         transform="scale(0.01)">
        <g
           id="g63974">
          <g
             id="g63976"
             clip-path="url(#clipPath63980)">
            <path
               d="M 106,355 H 732 V 272 H 106 Z"
               style="fill:#000000;fill-opacity:1;fill-rule:nonzero;stroke:none"
               id="path63982" />
          </g>
        </g>
      </g>
    </g>
    <path
       d="m 55.73,202.07898 h -3.5"
       style="fill:#000000;fill-opacity:1;fill-rule:nonzero;stroke:#000000;stroke-width:0.8;stroke-linecap:butt;stroke-linejoin:round;stroke-miterlimit:10;stroke-dasharray:none;stroke-opacity:1"
       id="path63984" />
    <g
       id="g63986"
       transform="translate(27.63625,198.28211)">
      <text
         xml:space="preserve"
         transform="matrix(1,0,0,-1,8.3789063,0)"
         style="font-variant:normal;font-weight:normal;font-size:10px;font-family:'DejaVu Sans';-inkscape-font-specification:DejaVuSans;writing-mode:lr-tb;fill:#000000;fill-opacity:1;fill-rule:nonzero;stroke:none"
         id="text63990"><tspan
           x="0 6.3600001"
           y="0"
           sodipodi:role="line"
           id="tspan63988">25</tspan></text>
      <g
         id="g63992"
         transform="scale(0.01)">
        <g
           id="g63994">
          <g
             id="g63996"
             clip-path="url(#clipPath64000)">
            <path
               d="M 106,355 H 732 V 272 H 106 Z"
               style="fill:#000000;fill-opacity:1;fill-rule:nonzero;stroke:none"
               id="path64002" />
          </g>
        </g>
      </g>
    </g>
    <path
       d="m 55.73,225.7968 h -3.5"
       style="fill:#000000;fill-opacity:1;fill-rule:nonzero;stroke:#000000;stroke-width:0.8;stroke-linecap:butt;stroke-linejoin:round;stroke-miterlimit:10;stroke-dasharray:none;stroke-opacity:1"
       id="path64004" />
    <g
       id="g64006"
       transform="translate(42.370625,221.99993)">
      <text
         xml:space="preserve"
         transform="scale(1,-1)"
         style="font-variant:normal;font-weight:normal;font-size:10px;font-family:'DejaVu Sans';-inkscape-font-specification:DejaVuSans;writing-mode:lr-tb;fill:#000000;fill-opacity:1;fill-rule:nonzero;stroke:none"
         id="text64010"><tspan
           x="0"
           y="0"
           id="tspan64008">0</tspan></text>
    </g>
    <path
       d="m 55.73,249.51462 h -3.5"
       style="fill:#000000;fill-opacity:1;fill-rule:nonzero;stroke:#000000;stroke-width:0.8;stroke-linecap:butt;stroke-linejoin:round;stroke-miterlimit:10;stroke-dasharray:none;stroke-opacity:1"
       id="path64012" />
    <g
       id="g64014"
       transform="translate(36.01125,245.71775)">
      <text
         xml:space="preserve"
         transform="scale(1,-1)"
         style="font-variant:normal;font-weight:normal;font-size:10px;font-family:'DejaVu Sans';-inkscape-font-specification:DejaVuSans;writing-mode:lr-tb;fill:#000000;fill-opacity:1;fill-rule:nonzero;stroke:none"
         id="text64018"><tspan
           x="0 6.3600001"
           y="0"
           sodipodi:role="line"
           id="tspan64016">25</tspan></text>
    </g>
    <path
       d="m 55.73,273.23244 h -3.5"
       style="fill:#000000;fill-opacity:1;fill-rule:nonzero;stroke:#000000;stroke-width:0.8;stroke-linecap:butt;stroke-linejoin:round;stroke-miterlimit:10;stroke-dasharray:none;stroke-opacity:1"
       id="path64020" />
    <g
       id="g64022"
       transform="translate(36.01125,269.43557)">
      <text
         xml:space="preserve"
         transform="scale(1,-1)"
         style="font-variant:normal;font-weight:normal;font-size:10px;font-family:'DejaVu Sans';-inkscape-font-specification:DejaVuSans;writing-mode:lr-tb;fill:#000000;fill-opacity:1;fill-rule:nonzero;stroke:none"
         id="text64026"><tspan
           x="0 6.3600001"
           y="0"
           sodipodi:role="line"
           id="tspan64024">50</tspan></text>
    </g>
    <g
       id="g64028"
       transform="rotate(90,-82.155565,103.29182)">
      <text
         xml:space="preserve"
         transform="scale(1,-1)"
         style="font-variant:normal;font-weight:normal;font-size:12px;font-family:'DejaVu Sans';-inkscape-font-specification:DejaVuSans;writing-mode:lr-tb;fill:#000000;fill-opacity:1;fill-rule:nonzero;stroke:none"
         id="text64032"><tspan
           x="0 7.2861252 14.630125 17.966125 22.670124 30.026125 37.646126 45.026127 48.842125 53.522125 65.210129 73.418121"
           y="0"
           sodipodi:role="line"
           id="tspan64030">Voltage (mV)</tspan></text>
    </g>
    <g
       id="g64034">
      <g
         id="g64036"
         clip-path="url(#clipPath64040)">
        <path
           d="m 69.069545,190.54468 0.08896,-10.0244 0.35584,17.42667 0.08896,10.00745 0.08896,61.72085 0.08896,-8.71883 0.35584,-18.49076 0.35584,-15.24356 0.08896,-48.08166 0.08896,2.4795 0.355839,18.4057 0.17792,66.78569 0.08896,-8.11775 0.35584,-17.22989 0.26688,-8.61238 0.17792,-53.71862 0.08896,3.84409 0.35584,19.83536 0.08896,63.90943 0.08896,-2.94688 0.355839,-20.20496 0.35584,-12.35458 0.17792,-51.01744 0.35584,17.55858 0.08896,9.68937 0.08896,62.07729 0.08896,-8.33436 0.35584,-18.65817 0.35584,-14.76479 0.08896,-48.52844 0.08896,2.27093 0.35584,18.33198 0.17792,67.2269 0.08896,-8.1657 0.35584,-17.34748 0.26688,-8.62988 0.17792,-53.73491 0.08896,3.67705 0.35584,19.80761 0.08896,63.87952 0.08896,-2.59814 0.35584,-20.30606 0.35584,-12.31923 0.17792,-51.24546 0.35584,17.60335 0.08896,9.37317 0.08896,62.62691 0.08896,-8.39305 0.35584,-18.705 0.355839,-14.58481 0.08896,-48.90322 0.08896,2.33463 0.35584,18.28312 0.17792,67.52104 0.08896,-8.31678 0.35584,-17.32949 0.26688,-8.60945 0.17792,-54.11517 0.08896,3.89707 0.355839,19.63414 0.08896,62.40253 0.08896,-0.67282 0.35584,-20.42519 0.35584,-12.23816 0.17792,-51.34289 0.35584,17.39221 0.08896,9.1353 0.08896,63.03793 0.08896,-8.20816 0.355839,-18.83467 0.35584,-14.30324 0.08896,-49.1142 0.08896,2.10394 0.35584,18.2322 0.08896,19.56561 0.08896,48.25507 0.08896,-8.30199 0.35584,-17.42563 0.26688,-8.59664 0.177919,-54.07086 0.08896,3.77711 0.35584,19.4973 0.17792,61.97513 0.35584,-20.47954 0.35584,-12.20355 0.17792,-51.59434 0.35584,17.4033 0.08896,9.05049 0.08896,63.63135 0.08896,-8.49324 0.35584,-18.84521 0.35584,-14.22524 0.08896,-48.98396 0.08896,1.81885 0.35584,18.15309 0.08896,18.76618 0.08896,49.25242 0.08896,-8.28132 0.355839,-17.54453 0.26688,-8.5297 0.17792,-54.21312 0.08896,3.74726 0.35584,19.42058 0.17792,62.29768 0.35584,-20.57964 0.35584,-12.2096 0.177919,-51.59293 0.35584,17.42049 0.08896,8.77855 0.08896,63.64304 0.08896,-8.20894 0.35584,-18.89564 0.35584,-14.11237 0.08896,-48.56483 0.08896,1.20749 0.35584,18.18404 0.08896,17.99393 0.08896,50.11917 0.08896,-8.29639 0.35584,-17.55166 0.26688,-8.57267 0.08896,-16.58337 0.08896,-37.5495 0.08896,3.60286 0.35584,19.39375 0.17792,62.47073 0.35584,-20.6465 0.355839,-12.14751 0.17792,-51.83547 0.35584,17.36648 0.08896,8.79794 0.08896,64.20782 0.08896,-8.45419 0.35584,-18.99582 0.35584,-13.83315 0.08896,-49.29058 0.08896,1.52683 0.355839,18.15777 0.08896,16.64349 0.08896,51.79138 0.08896,-8.34972 0.35584,-17.65134 0.26688,-8.52956 0.08896,-15.0233 0.08896,-39.49727 0.08896,3.78725 0.35584,19.30743 0.17792,62.87828 0.355839,-20.79942 0.355836,-12.10989 0.17792,-51.99663 0.35584,17.32555 0.089,8.60907 0.089,64.63022 0.089,-8.3826 0.35584,-19.11354 0.35584,-13.74981 0.089,-49.61218 0.089,1.60034 0.35584,18.10349 0.089,16.09112 0.089,52.63148 0.089,-8.44495 0.35584,-17.66958 0.26688,-8.52667 0.089,-14.11102 0.089,-40.39274 0.089,3.74531 0.35584,19.22032 0.17792,63.03157 0.35584,-20.82543 0.35584,-12.07783 0.17792,-52.18535 0.35584,17.33916 0.089,8.42451 0.089,64.90728 0.089,-8.30896 0.35584,-19.15377 0.35584,-13.4998 0.089,-48.72917 0.089,0.36212 0.35584,17.99965 0.089,14.89651 0.089,54.22883 0.089,-8.45799 0.35584,-17.8125 0.26688,-8.51174 0.089,-12.70553 0.089,-41.88587 0.089,3.65518 0.35584,19.09927 0.17792,63.51583 0.35584,-21.01426 0.35584,-12.01691 0.17792,-52.3852 0.4448,25.38027 0.089,64.96995 0.089,-7.72895 0.35583,-19.27973 0.35584,-13.26975 0.089,-49.07844 0.089,0.28015 0.35585,17.98909 0.089,13.7933 0.089,55.72742 0.089,-8.57889 0.35584,-17.87394 0.26687,-8.50313 0.089,-11.41087 0.089,-43.15726 0.089,3.43964 0.35584,18.9691 0.17792,63.9907 0.35584,-21.17495 0.35584,-11.98614 0.17792,-52.51322 0.4448,25.1276 0.089,65.35974 0.089,-7.6327 0.35584,-19.43232 0.35584,-13.11156 0.089,-49.19098 0.089,0.10805 0.35584,17.92007 0.089,12.99641 0.089,56.83756 0.089,-8.55596 0.35584,-17.99001 0.26688,-8.5017 0.089,-10.2936 0.089,-44.49421 0.089,3.38041 0.35584,18.95249 0.17792,64.42889 0.35584,-21.32756 0.35584,-11.99181 0.17792,-52.76567 0.4448,25.03073 0.089,65.34033 0.089,-7.18899 0.35584,-19.51938 0.35584,-12.98631 0.17792,-49.34598 0.35584,17.855 0.089,12.54039 0.089,57.60789 0.089,-8.6013 0.35584,-18.06214 0.26688,-8.49224 0.089,-9.675 0.089,-44.96431 0.089,3.16861 0.35584,18.76439 0.17792,64.73457 0.35584,-21.37387 0.35584,-11.93578 0.17792,-52.7682 0.35584,17.05665 0.089,7.57254 0.089,65.6077 0.089,-7.02608 0.35584,-19.5937 0.35584,-12.84875 0.17792,-49.7202 0.35584,17.89157 0.089,11.81585 0.089,58.79864 0.089,-8.76438 0.35584,-18.17905 0.26688,-8.47552 0.089,-8.81626 0.089,-45.88892 0.089,2.99087 0.35584,18.69766 0.17792,65.25522 0.26688,-17.92701 0.4448,-15.55152 0.17792,-53.10451 0.4448,24.44025 0.089,65.83314 0.089,-6.57694 0.35584,-19.77476 0.35584,-12.72706 0.17792,-50.02119 0.35584,17.72365 0.089,11.26335 0.089,59.69296 0.089,-8.64162 0.35584,-18.31071 0.26688,-8.46279 0.089,-8.03708 0.089,-46.56442 0.089,2.7084 0.35583,18.55341 0.17792,65.70127 0.35584,-21.70584 0.35584,-11.8753 0.17792,-53.24163 0.4448,24.17822 0.089,65.65632 0.089,-5.89896 0.35584,-19.90207 0.35584,-12.61157 0.17792,-50.29223 0.35584,17.61837 0.089,10.77012 0.089,60.47119 0.089,-8.61685 0.35584,-18.37894 0.26688,-8.46896 0.089,-7.49944 0.089,-47.05592 0.089,2.46381 0.35584,18.54196 0.17792,66.15153 0.089,-8.07772 0.35584,-17.02705 0.26688,-8.7116 0.17792,-53.29526 0.35584,16.92184 0.089,7.01031 0.089,64.30065 0.089,-4.27071 0.35584,-19.88462 0.35584,-12.50096 0.17792,-50.57351 0.35584,17.71447 0.089,10.2765 0.089,61.41799 0.089,-8.92351 0.35584,-18.42385 0.26688,-8.46324 0.089,-7.09585 0.089,-47.68936 0.089,2.51293 0.35584,18.43896 0.17792,66.54253 0.089,-8.05899 0.35584,-17.20029 0.26688,-8.61427 0.17792,-53.5442 0.089,3.8076 0.35584,19.94313 0.089,64.90885 0.089,-4.22336 0.35584,-20.17011 0.35584,-12.45171 0.17792,-50.69824 0.35584,17.56501 0.089,9.98253 0.089,62.01624 0.089,-8.87698 0.35584,-18.58118 0.35584,-15.17996 0.089,-47.81743 0.089,2.11941 0.35584,18.46629 0.17792,66.7485 0.089,-8.12356 0.35584,-17.21411 0.26688,-8.60052 0.17792,-53.70376 0.089,3.7766 0.35584,19.89901 0.089,64.95147 0.089,-3.91013 0.35584,-20.29993 0.35584,-12.3585 0.17792,-50.95029 0.35584,17.49434 0.089,9.6947 0.089,62.05813 0.089,-8.33522 0.35584,-18.65631 0.35584,-14.79761 0.089,-48.61539 0.089,2.37348 0.35584,18.36399 0.17792,67.15857 0.089,-8.18436 0.35584,-17.28483 0.26688,-8.61068 0.17792,-53.69029 0.089,3.60565 0.35584,19.75001 0.089,63.76111 0.089,-2.38591 0.35584,-20.32899 0.35583,-12.28067 0.17792,-51.35803 0.35584,17.54025 0.089,9.40763 0.089,63.05219 0.089,-8.67432 0.35584,-18.71774 0.35584,-14.43781 0.089,-48.98903 0.0889,2.2145 0.35584,18.26632 0.089,20.4496 0.089,47.20313 0.089,-8.21326 0.35584,-17.49968 0.26688,-8.54693 0.17792,-54.10659 0.089,3.8366 0.35584,19.51205 0.17792,61.91099 0.35584,-20.46721 0.35584,-12.20356 0.17792,-51.57715 0.35584,17.41919 0.089,9.10182 0.089,63.63759 0.089,-8.59859 0.35584,-18.80708 0.35584,-14.1778 0.089,-49.46212 0.089,2.23468 0.35584,18.14092 0.089,18.54024 0.089,49.53549 0.089,-8.31611 0.35584,-17.52945 0.26688,-8.53733 0.17792,-54.25251 0.089,3.79824 0.35584,19.40139 0.17792,62.3171 0.35584,-20.58804 0.35584,-12.14629 0.17792,-51.80235 0.35584,17.38582 0.089,8.84648 0.089,64.29087 0.089,-8.67141 0.35584,-18.94222 0.35584,-13.98658 0.089,-49.29485 0.089,1.74481 0.35584,18.10869 0.089,17.38918 0.089,50.95555 0.089,-8.3721 0.35584,-17.57581 0.26688,-8.58861 0.089,-16.46077 0.089,-37.78867 0.089,3.71027 0.35584,19.36752 0.17792,62.51281 0.35584,-20.63446 0.35584,-12.14894 0.17792,-51.89221 0.35584,17.37666 0.089,8.74784 0.089,64.46692 0.089,-8.62912 0.35584,-18.98292 0.35584,-13.79971 0.089,-49.065 0.089,1.22283 0.35584,18.15239 0.089,16.4395 0.089,52.12458 0.089,-8.42901 0.35584,-17.64751 0.26688,-8.54775 0.089,-14.78835 0.089,-39.5354 0.089,3.5806 0.35584,19.26697 0.17792,62.93236 0.35584,-20.78853 0.35584,-12.0834 0.17792,-51.93483 0.35584,17.30608 0.089,8.3533 0.089,64.68395 0.089,-8.30162 0.35584,-19.08529 0.35584,-13.57812 0.089,-48.71132 0.089,0.52639 0.35584,18.04188 0.089,15.23913 0.089,53.63805 0.089,-8.39095 0.35583,-17.74993 0.26688,-8.53735 0.089,-13.21654 0.089,-41.40726 0.089,3.74844 0.35583,19.15236 0.17792,63.3018 0.35584,-20.91677 0.35584,-12.05564 0.17792,-52.195 0.35584,17.22095 0.089,8.32444 0.089,64.9989 0.089,-8.1712 0.35584,-19.19561 0.35584,-13.41311 0.089,-48.73657 0.089,0.19611 0.35584,18.01404 0.089,14.43165 0.089,54.82101 0.089,-8.5075 0.35584,-17.81939 0.26688,-8.51214 0.089,-12.23396 0.089,-42.48354 0.089,3.68317 0.35584,19.09841 0.17792,63.65184 0.35584,-21.05808 0.35584,-12.01754 0.17792,-52.35814 0.35584,17.21812 0.089,8.09823 0.089,65.38616 0.089,-8.09309 0.35584,-19.28902 0.35584,-13.27554 0.089,-49.09634 0.089,0.28375 0.35584,17.97353 0.089,13.63918 0.089,55.91719 0.089,-8.52005 0.35584,-17.93257 0.26688,-8.50476 0.089,-11.14898 0.089,-43.3339 0.089,3.20441 0.35584,19.06322 0.17792,64.05373 0.35584,-21.18041 0.35584,-11.96728 0.17792,-52.48143 0.35584,17.15564 0.089,7.80069 0.089,65.21228 0.089,-7.3069 0.35584,-19.47441 0.35584,-13.08544 0.089,-49.25024 0.089,0.0115 0.35584,17.97988 0.089,12.78152 0.089,57.0452 0.089,-8.45143 0.35584,-18.05636 0.26688,-8.49273 0.089,-10.05422 0.089,-44.35569 0.089,3.01368 0.35584,18.87012 0.17792,64.55266 0.35584,-21.3618 0.35584,-11.96267 0.17792,-52.61498 0.35584,16.98364 0.089,7.7031 0.089,65.55369 0.089,-7.20706 0.35584,-19.53148 0.35584,-13.00928 0.17792,-49.46216 0.35584,17.86215 0.089,12.4845 0.089,57.7848 0.089,-8.6078 0.35584,-18.11163 0.26688,-8.47605 0.089,-9.61471 0.089,-44.88555 0.089,3.01329 0.35584,18.76478 0.17792,64.76168 0.35584,-21.38299 0.35584,-11.93184 0.17792,-52.77097 0.35584,17.02245 0.089,7.57536 0.089,65.86512 0.089,-7.2555 0.35584,-19.57371 0.35584,-12.85815 0.17792,-49.68703 0.35584,17.77802 0.089,11.84353 0.089,58.55037 0.089,-8.49871 0.35584,-18.14405 0.26688,-8.47924 0.089,-8.78211 0.089,-46.40631 0.089,3.43743 0.35584,18.73419 0.17792,65.25569 0.26688,-17.92544 0.4448,-15.5526 0.17792,-53.14163 0.4448,24.45025 0.089,65.80452 0.089,-6.47892 0.35584,-19.82454 0.35584,-12.72621 0.17792,-50.00203 0.35584,17.70462 0.089,11.20638 0.089,59.66986 0.089,-8.61663 0.35584,-18.26013 0.26688,-8.47139 0.089,-8.04527 0.089,-46.88274 0.089,3.06206 0.35584,18.61956 0.17792,65.68023 0.26688,-18.08508 0.4448,-15.58453 0.17792,-53.06708 0.35584,16.85271 0.089,7.27429 0.089,65.35498 0.089,-5.75255 0.35584,-19.86358 0.35584,-12.68817 0.17792,-50.25937 0.35584,17.78835 0.089,11.01537 0.089,60.26474 0.089,-8.86051 0.35584,-18.31892 0.26688,-8.46216 0.089,-7.76048 0.089,-47.30013 0.089,3.03218 0.35584,18.60153 0.17792,65.89007 0.35584,-21.79865 0.35584,-11.86809 0.17792,-53.19064 0.35584,16.86298 0.089,7.09931 0.089,65.37702 0.089,-5.50392 0.35584,-19.85753 0.35584,-12.53221 0.17792,-50.60234 0.35584,17.70206 0.089,10.56562 0.089,60.98771 0.089,-8.70096 0.35584,-18.45846 0.26688,-8.46726 0.089,-7.18631 0.089,-47.68364 0.089,2.72827 0.35584,18.4901 0.17792,66.33824 0.089,-8.03745 0.35584,-17.15856 0.26688,-8.65773 0.17792,-53.38841 0.089,3.72442 0.35584,20.00829 0.089,65.14039 0.089,-4.5938 0.35584,-20.12808 0.35584,-12.46029 0.17792,-50.60954 0.35584,17.52824 0.089,10.00987 0.089,61.82515 0.089,-8.81394 0.35584,-18.51761 0.35584,-15.24602 0.089,-47.81984 0.089,2.23787 0.35583,18.3615 0.17792,66.81111 0.089,-8.15012 0.35584,-17.19223 0.26689,-8.65469 0.17791,-53.47374 0.089,3.63156 0.35584,19.90937 0.089,64.42988 0.089,-3.60353 0.35584,-20.13502 0.35584,-12.38516 0.17792,-50.97784 0.35584,17.48364 0.089,9.73946 0.089,62.34954 0.089,-8.61482 0.35584,-18.62253 0.35584,-14.85404 0.089,-48.63022 0.089,2.44679 0.35584,18.32177 0.17792,67.25105 0.089,-8.2657 0.35584,-17.27055 0.26688,-8.62184 0.17792,-53.93319 0.089,3.86307 0.35584,19.71134 0.089,63.60302 0.089,-2.18376 0.35584,-20.31491 0.35584,-12.30715 0.17792,-51.12385 0.35584,17.42176 0.089,9.32648 0.089,63.2027 0.089,-8.83019 0.35584,-18.75356 0.35584,-14.48051 0.089,-48.82425 0.089,2.08117 0.35584,18.27751 0.089,20.67395 0.089,46.94088 0.089,-8.27095 0.35584,-17.38509 0.26688,-8.5884 0.17792,-54.05388 0.089,3.8401 0.35584,19.54728 0.089,62.20289 0.089,-0.40701 0.35584,-20.43205 0.35584,-12.22806 0.17792,-51.52378 0.35584,17.46185 0.089,9.17563 0.089,63.49788 0.089,-8.65757 0.35584,-18.77759 0.35584,-14.21765 0.089,-49.00112 0.089,1.8577 0.35584,18.17816 0.089,18.91934 0.089,49.06026 0.089,-8.27585 0.35584,-17.52117 0.26688,-8.55079 0.17792,-54.23633 0.089,3.82867 0.35584,19.43457 0.17792,62.20416 0.35584,-20.55237 0.35584,-12.16317 0.17792,-51.7646 0.35584,17.42951 0.089,8.91402 0.089,64.001 0.089,-8.52885 0.35584,-18.94521 0.35584,-13.93855 0.089,-49.39015 0.089,1.80279 0.35584,18.18911 0.089,17.24541 0.089,51.00387 0.089,-8.31304 0.35584,-17.60289 0.26688,-8.54373 0.089,-15.94404 0.089,-38.41686 0.089,3.78839 0.35584,19.33342 0.17792,62.58515 0.35584,-20.65366 0.35583,-12.12926 0.17792,-51.92292 0.35584,17.38681 0.089,8.58175 0.089,64.72287 0.089,-8.69092 0.35584,-19.0092 0.35584,-13.75836 0.089,-49.15195 0.089,1.19926 0.35584,18.12012 0.089,16.18655 0.089,52.47947 0.089,-8.4004 0.35584,-17.68586 0.26688,-8.54526 0.089,-14.51685 0.089,-39.86114 0.089,3.60901 0.35584,19.257 0.17792,63.0209 0.35584,-20.84641 0.35584,-12.07789 0.17792,-52.06266 0.35584,17.28995 0.089,8.45922 0.089,64.81612 0.089,-8.29743 0.35584,-19.18696 0.35584,-13.52135 0.089,-49.60893 0.089,1.39304 0.35584,17.95759 0.089,15.05065 0.089,53.8499 0.089,-8.38519 0.35584,-17.73126 0.26688,-8.52448 0.089,-12.95683 0.089,-41.68268 0.089,3.7305 0.35584,19.1355 0.17792,63.37844 0.35584,-20.931 0.35584,-12.02331 0.17792,-52.21378 0.35584,17.24956 0.089,8.10244 0.089,64.7767 0.089,-7.63993 0.35584,-19.31487 0.35584,-13.37208 0.089,-49.05813 0.089,0.42784 0.35584,17.99173 0.089,14.13813 0.089,55.22458 0.089,-8.53723 0.35584,-17.84759 0.26688,-8.49817 0.089,-11.73376 0.089,-43.02561 0.089,3.62965 0.35584,19.01968 0.17792,63.87352 0.35584,-21.10571 0.35584,-12.0022 0.17792,-52.51446 0.4448,25.21264 0.089,65.16653 0.089,-7.53945 0.35584,-19.3805 0.35584,-13.14929 0.17792,-49.09633 0.35584,17.94708 0.089,13.24724 0.089,56.60957 0.089,-8.57615 0.35584,-17.98166 0.26688,-8.50223 0.089,-10.50222 0.089,-44.32019 0.089,3.4431 0.35584,18.92356 0.17792,64.44852 0.35584,-21.33162 0.35584,-11.95426 0.17792,-52.71027 0.4448,24.93204 0.089,65.30705 0.089,-7.17349 0.35584,-19.45694 0.35584,-13.03376 0.17792,-49.32547 0.35584,17.86798 0.089,12.55018 0.089,57.6017 0.089,-8.63043 0.35583,-18.07827 0.26688,-8.47914 0.089,-9.71752 0.089,-44.96338 0.089,3.16771 0.35584,18.87633 0.17792,64.71094 0.35584,-21.42163 0.35584,-11.9277 0.17792,-52.72027 0.35584,16.96545 0.089,7.59953 0.089,65.78089 0.089,-7.10097 0.35584,-19.67447 0.35584,-12.8543 0.17792,-49.68292 0.35584,17.85322 0.089,11.85618 0.089,58.66463 0.089,-8.68369 0.35584,-18.15935 0.26688,-8.47617 0.089,-8.86263 0.089,-45.85653 0.089,2.97125 0.35584,18.81655 0.17792,65.16772 0.26688,-17.91878 0.4448,-15.62462 0.17792,-52.95663 0.4448,24.58027 0.089,65.75767 0.089,-6.84842 0.35584,-19.69807 0.35584,-12.7782 0.17792,-49.93828 0.35584,17.81654 0.089,11.50057 0.089,59.22015 0.089,-8.63221 0.35584,-18.19475 0.26688,-8.46961 0.089,-8.43122 0.089,-46.38209 0.089,2.98896 0.35584,18.63986 0.17792,65.50813 0.26688,-18.00974 0.4448,-15.54104 0.17792,-53.22739 0.4448,24.38298 0.089,65.76324 0.089,-6.35103 0.35584,-19.7604 0.35584,-12.64521 0.17792,-50.29472 0.35584,17.77911 0.089,10.95267 0.089,60.29661 0.089,-8.73217 0.35584,-18.38283 0.26688,-8.45181 0.089,-7.6729 0.089,-47.11607 0.089,2.72609 0.35584,18.61922 0.17792,65.95355 0.26688,-18.15386 0.4448,-15.59505 0.17792,-53.24131 0.35584,16.85256 0.089,7.24657 0.089,65.27096 0.089,-5.45896 0.35584,-19.88757 0.35584,-12.59017 0.17792,-50.3405 0.35584,17.67822 0.089,10.50433 0.089,61.03034 0.089,-8.94898 0.35584,-18.36091 0.26688,-8.46318 0.089,-7.36908 0.089,-47.38876 0.089,2.59165 0.35584,18.47437 0.17792,66.34795 0.089,-8.00019 0.35584,-17.18098 0.26688,-8.6981 0.17792,-53.34482 0.089,3.78695 0.35583,20.1131 0.089,64.95407 0.089,-4.66561 0.35584,-20.0649 0.35585,-12.52868 0.17791,-50.53469 0.35584,17.63223 0.089,10.2188 0.089,61.47592 0.089,-8.87078 0.35584,-18.42606 0.26688,-8.4619 0.089,-6.98354 0.089,-47.81681 0.089,2.50093 0.35584,18.42993 0.17792,66.60383 0.089,-8.05816 0.35584,-17.23027 0.26688,-8.60229 0.17792,-53.81023 0.089,4.02908 0.35584,19.91761 0.089,64.35635 0.089,-3.67696 0.35584,-20.07751 0.35584,-12.42321 0.17792,-50.79175 0.35584,17.53769 0.089,9.80047 0.089,62.10824 0.089,-8.68521 0.35584,-18.59334 0.35584,-15.04767 0.089,-48.37023 0.089,2.47069 0.35584,18.35835 0.17792,67.02106 0.089,-8.18804 0.35584,-17.24855 0.26688,-8.61788 0.17792,-53.76065 0.089,3.83201 0.35584,19.73913 0.089,63.88095 0.089,-2.74873 0.35584,-20.20414 0.35584,-12.32326 0.17792,-51.25331 0.35584,17.59586 0.089,9.49186 0.089,62.58631 0.089,-8.47691 0.35584,-18.65528 0.35584,-14.58128 0.089,-48.40461 0.089,1.83853 0.35584,18.34314 0.17792,67.40762 0.089,-8.22334 0.35584,-17.37976 0.26688,-8.59954 0.17792,-53.70389 0.089,3.49225 0.35584,19.65871 0.089,62.88544 0.089,-1.20578 0.35584,-20.40038 0.35584,-12.25339 0.17792,-51.39625 0.35584,17.4606 0.089,9.15721 0.089,63.81331 0.089,-9.01 0.35584,-18.82828 0.35584,-14.243 0.089,-49.26071 0.089,2.16529 0.35584,18.22321 0.089,19.13767 0.089,48.77987 0.089,-8.24759 0.35584,-17.54196 0.26688,-8.55887 0.17792,-53.90402 0.089,3.45647 0.35584,19.51466 0.17792,62.14784 0.35584,-20.53477 0.35584,-12.18861 0.17792,-51.7255 0.35584,17.46685 0.089,8.91548 0.089,64.01387 0.089,-8.63222 0.35584,-18.89555 0.35584,-14.06039 0.089,-49.24553 0.089,1.82136 0.35583,18.1553 0.089,17.81072 0.0889,50.40809 0.089,-8.35371 0.35584,-17.56652 0.26688,-8.53083 0.089,-16.26524 0.089,-38.05738 0.089,3.79664 0.35584,19.35907 0.17792,62.54505 0.35584,-20.70555 0.35584,-12.15488 0.17792,-51.79574 0.35584,17.34068 0.089,8.69382 0.089,64.16099 0.089,-8.21161 0.35584,-19.09822 0.35584,-13.76148 0.089,-49.07001 0.089,1.19593 0.35584,18.14805 0.089,16.34414 0.089,52.21762 0.089,-8.42188 0.35584,-17.6436 0.26688,-8.55432 0.089,-14.83723 0.089,-39.56851 0.089,3.70992 0.35584,19.26246 0.17792,62.86668 0.35584,-20.76681 0.35584,-12.09726 0.17792,-52.02669 0.35584,17.31789 0.089,8.57212 0.089,64.73567 0.089,-8.46041 0.35584,-19.08596 0.35584,-13.6561 0.089,-49.03249 0.089,0.89604 0.35584,18.13019 0.089,15.61458 0.089,53.08362 0.089,-8.27856 0.35584,-17.79804 0.26688,-8.51607 0.089,-13.60641 0.089,-40.90843 0.089,3.69139 0.35584,19.18431 0.17792,63.19151 0.35584,-20.88475 0.35584,-12.05728 0.17792,-52.24636 0.4448,25.60719 0.089,64.79089 0.089,-7.95467 0.35584,-19.18448 0.35584,-13.42871 0.089,-49.0364 0.089,0.51823 0.35584,18.03653 0.089,14.47982 0.089,54.74069 0.089,-8.46614 0.35584,-17.86033 0.26688,-8.54462 0.089,-12.59698 0.089,-41.88311 0.089,3.51981 0.35584,19.11304 0.17792,63.50658 0.35584,-20.98705 0.35584,-12.00558 0.17792,-52.31204 0.35584,17.17631 0.089,8.10242 0.089,64.98875 0.089,-7.71086 0.35584,-19.29647 0.35584,-13.3794 0.089,-49.39247 0.089,0.70721 0.35584,17.98133 0.089,14.08908 0.089,55.32573 0.089,-8.48683 0.35584,-17.8738 0.26688,-8.52022 0.089,-11.64319 0.089,-43.10149 0.089,3.57299 0.35584,19.06668 0.17792,63.89377 0.35584,-21.11639 0.35583,-11.99092 0.17792,-52.4954 0.35584,17.2423 0.089,7.92609 0.089,65.55298 0.089,-8.01646 0.35584,-19.29293 0.35584,-13.16143 0.17793,-49.00871 0.35583,17.95241 0.089,13.25112 0.089,56.53028 0.089,-8.6129 0.35584,-17.9635 0.26688,-8.5047 0.089,-10.65673 0.089,-44.14822 0.089,3.47953 0.35584,18.95918 0.17792,64.26535 0.35584,-21.2473 0.35584,-11.9972 0.17792,-52.65026 0.4448,25.0915 0.089,65.37438 0.089,-7.46821 0.35584,-19.42849 0.35584,-13.14204 0.089,-49.54583 0.089,0.37128 0.35584,17.89656 0.089,13.10202 0.089,56.71912 0.089,-8.50406 0.35584,-17.93396 0.26688,-8.49914 0.089,-10.28203 0.089,-44.39535 0.089,3.34331 0.35584,18.8469 0.17792,64.43565 0.35584,-21.28816 0.35584,-11.94723 0.17792,-52.63596 0.35584,17.10787 0.089,7.66138 0.089,65.35857 0.089,-7.1025 0.35584,-19.51413 0.35584,-12.97424 0.17792,-49.43932 0.35584,17.8187 0.089,12.33069 0.089,57.96472 0.089,-8.6406 0.35584,-18.07936 0.26688,-8.48258 0.089,-9.35336 0.089,-45.12581 0.089,2.93532 0.35584,18.71799 0.17792,64.94972 0.35584,-21.4749 0.35584,-11.90637 0.17792,-53.0269 0.4448,24.67577 0.089,65.76546 0.089,-6.84876 0.35584,-19.70626 0.35584,-12.86758 0.17792,-49.76321 0.35584,17.81572 0.089,11.73378 0.089,58.99552 0.089,-8.79646 0.35584,-18.17931 0.26688,-8.48713 0.089,-8.77166 0.089,-45.84451 0.089,2.94401 0.35584,18.71182 0.17792,65.27614 0.26688,-17.96207 0.4448,-15.61837 0.17792,-52.95725 0.35584,17.05536 0.089,7.38648 0.089,65.83489 0.089,-6.79515 0.35584,-19.68364 0.35584,-12.74314 0.17792,-49.9784 0.35584,17.73164 0.089,11.35317 0.089,59.61433 0.089,-8.82554 0.35583,-18.16963 0.26688,-8.46654 0.089,-8.18572 0.089,-46.6914 0.089,2.96317 0.35585,18.70116 0.17791,65.60864 0.35584,-21.74282 0.26688,-8.66822 v 0"
           style="fill:none;stroke:#000000;stroke-width:1.5;stroke-linecap:square;stroke-linejoin:round;stroke-miterlimit:10;stroke-dasharray:none;stroke-opacity:1"
           id="path64042" />
      </g>
    </g>
    <g
       id="g64044">
      <path
         d="M 55.73,173.92367 V 275.12734"
         style="fill:none;stroke:#000000;stroke-width:0.8;stroke-linecap:square;stroke-linejoin:miter;stroke-miterlimit:10;stroke-dasharray:none;stroke-opacity:1"
         id="path64046" />
      <path
         d="M 349.2,173.92367 V 275.12734"
         style="fill:none;stroke:#000000;stroke-width:0.8;stroke-linecap:square;stroke-linejoin:miter;stroke-miterlimit:10;stroke-dasharray:none;stroke-opacity:1"
         id="path64048" />
      <path
         d="M 55.73,173.92367 H 349.2"
         style="fill:none;stroke:#000000;stroke-width:0.8;stroke-linecap:square;stroke-linejoin:miter;stroke-miterlimit:10;stroke-dasharray:none;stroke-opacity:1"
         id="path64050" />
      <path
         d="M 55.73,275.12734 H 349.2"
         style="fill:none;stroke:#000000;stroke-width:0.8;stroke-linecap:square;stroke-linejoin:miter;stroke-miterlimit:10;stroke-dasharray:none;stroke-opacity:1"
         id="path64052" />
      <path
         d="M 55.73,44.84 H 349.2 V 146.04367 H 55.73 Z"
         style="fill:#ffffff;fill-opacity:1;fill-rule:nonzero;stroke:none"
         id="path64054" />
      <path
         d="m 69.069545,44.84 v -3.5"
         style="fill:#000000;fill-opacity:1;fill-rule:nonzero;stroke:#000000;stroke-width:0.8;stroke-linecap:butt;stroke-linejoin:round;stroke-miterlimit:10;stroke-dasharray:none;stroke-opacity:1"
         id="path64056" />
      <g
         id="g64058"
         transform="translate(65.889858,30.24625)">
        <text
           xml:space="preserve"
           transform="scale(1,-1)"
           style="font-variant:normal;font-weight:normal;font-size:10px;font-family:'DejaVu Sans';-inkscape-font-specification:DejaVuSans;writing-mode:lr-tb;fill:#000000;fill-opacity:1;fill-rule:nonzero;stroke:none"
           id="text64062"><tspan
             x="0"
             y="0"
             id="tspan64060">0</tspan></text>
      </g>
      <path
         d="m 113.5347,44.84 v -3.5"
         style="fill:#000000;fill-opacity:1;fill-rule:nonzero;stroke:#000000;stroke-width:0.8;stroke-linecap:butt;stroke-linejoin:round;stroke-miterlimit:10;stroke-dasharray:none;stroke-opacity:1"
         id="path64064" />
      <g
         id="g64066"
         transform="translate(103.99563,30.24625)">
        <text
           xml:space="preserve"
           transform="scale(1,-1)"
           style="font-variant:normal;font-weight:normal;font-size:10px;font-family:'DejaVu Sans';-inkscape-font-specification:DejaVuSans;writing-mode:lr-tb;fill:#000000;fill-opacity:1;fill-rule:nonzero;stroke:none"
           id="text64070"><tspan
             x="0 6.3600001 12.72"
             y="0"
             sodipodi:role="line"
             id="tspan64068">500</tspan></text>
      </g>
      <path
         d="m 157.99985,44.84 v -3.5"
         style="fill:#000000;fill-opacity:1;fill-rule:nonzero;stroke:#000000;stroke-width:0.8;stroke-linecap:butt;stroke-linejoin:round;stroke-miterlimit:10;stroke-dasharray:none;stroke-opacity:1"
         id="path64072" />
      <g
         id="g64074"
         transform="translate(145.2811,30.24625)">
        <text
           xml:space="preserve"
           transform="scale(1,-1)"
           style="font-variant:normal;font-weight:normal;font-size:10px;font-family:'DejaVu Sans';-inkscape-font-specification:DejaVuSans;writing-mode:lr-tb;fill:#000000;fill-opacity:1;fill-rule:nonzero;stroke:none"
           id="text64078"><tspan
             x="0 6.3600001 12.72 19.08"
             y="0"
             sodipodi:role="line"
             id="tspan64076">1000</tspan></text>
      </g>
      <path
         d="m 202.465,44.84 v -3.5"
         style="fill:#000000;fill-opacity:1;fill-rule:nonzero;stroke:#000000;stroke-width:0.8;stroke-linecap:butt;stroke-linejoin:round;stroke-miterlimit:10;stroke-dasharray:none;stroke-opacity:1"
         id="path64080" />
      <g
         id="g64082"
         transform="translate(189.74625,30.24625)">
        <text
           xml:space="preserve"
           transform="scale(1,-1)"
           style="font-variant:normal;font-weight:normal;font-size:10px;font-family:'DejaVu Sans';-inkscape-font-specification:DejaVuSans;writing-mode:lr-tb;fill:#000000;fill-opacity:1;fill-rule:nonzero;stroke:none"
           id="text64086"><tspan
             x="0 6.3600001 12.72 19.08"
             y="0"
             sodipodi:role="line"
             id="tspan64084">1500</tspan></text>
      </g>
      <path
         d="m 246.93015,44.84 v -3.5"
         style="fill:#000000;fill-opacity:1;fill-rule:nonzero;stroke:#000000;stroke-width:0.8;stroke-linecap:butt;stroke-linejoin:round;stroke-miterlimit:10;stroke-dasharray:none;stroke-opacity:1"
         id="path64088" />
      <g
         id="g64090"
         transform="translate(234.2114,30.24625)">
        <text
           xml:space="preserve"
           transform="scale(1,-1)"
           style="font-variant:normal;font-weight:normal;font-size:10px;font-family:'DejaVu Sans';-inkscape-font-specification:DejaVuSans;writing-mode:lr-tb;fill:#000000;fill-opacity:1;fill-rule:nonzero;stroke:none"
           id="text64094"><tspan
             x="0 6.3600001 12.72 19.08"
             y="0"
             sodipodi:role="line"
             id="tspan64092">2000</tspan></text>
      </g>
      <path
         d="m 291.3953,44.84 v -3.5"
         style="fill:#000000;fill-opacity:1;fill-rule:nonzero;stroke:#000000;stroke-width:0.8;stroke-linecap:butt;stroke-linejoin:round;stroke-miterlimit:10;stroke-dasharray:none;stroke-opacity:1"
         id="path64096" />
      <g
         id="g64098"
         transform="translate(278.67655,30.24625)">
        <text
           xml:space="preserve"
           transform="scale(1,-1)"
           style="font-variant:normal;font-weight:normal;font-size:10px;font-family:'DejaVu Sans';-inkscape-font-specification:DejaVuSans;writing-mode:lr-tb;fill:#000000;fill-opacity:1;fill-rule:nonzero;stroke:none"
           id="text64102"><tspan
             x="0 6.3600001 12.72 19.08"
             y="0"
             sodipodi:role="line"
             id="tspan64100">2500</tspan></text>
      </g>
      <path
         d="m 335.86045,44.84 v -3.5"
         style="fill:#000000;fill-opacity:1;fill-rule:nonzero;stroke:#000000;stroke-width:0.8;stroke-linecap:butt;stroke-linejoin:round;stroke-miterlimit:10;stroke-dasharray:none;stroke-opacity:1"
         id="path64104" />
      <g
         id="g64106"
         transform="translate(323.1417,30.24625)">
        <text
           xml:space="preserve"
           transform="scale(1,-1)"
           style="font-variant:normal;font-weight:normal;font-size:10px;font-family:'DejaVu Sans';-inkscape-font-specification:DejaVuSans;writing-mode:lr-tb;fill:#000000;fill-opacity:1;fill-rule:nonzero;stroke:none"
           id="text64110"><tspan
             x="0 6.3600001 12.72 19.08"
             y="0"
             sodipodi:role="line"
             id="tspan64108">3000</tspan></text>
      </g>
      <g
         id="g64112"
         transform="translate(172.22281,15.043125)">
        <text
           xml:space="preserve"
           transform="scale(1,-1)"
           style="font-variant:normal;font-weight:normal;font-size:12px;font-family:'DejaVu Sans';-inkscape-font-specification:DejaVuSans;writing-mode:lr-tb;fill:#000000;fill-opacity:1;fill-rule:nonzero;stroke:none"
           id="text64116"><tspan
             x="0 6.9726248 10.308625 21.996626 29.376625 33.192623 37.872623 49.560623 55.812626"
             y="0"
             sodipodi:role="line"
             id="tspan64114">Time (ms)</tspan></text>
      </g>
      <path
         d="m 55.73,51.750926 h -3.5"
         style="fill:#000000;fill-opacity:1;fill-rule:nonzero;stroke:#000000;stroke-width:0.8;stroke-linecap:butt;stroke-linejoin:round;stroke-miterlimit:10;stroke-dasharray:none;stroke-opacity:1"
         id="path64118" />
      <g
         id="g64120"
         transform="translate(27.63625,47.954051)">
        <text
           xml:space="preserve"
           transform="matrix(1,0,0,-1,8.3789063,0)"
           style="font-variant:normal;font-weight:normal;font-size:10px;font-family:'DejaVu Sans';-inkscape-font-specification:DejaVuSans;writing-mode:lr-tb;fill:#000000;fill-opacity:1;fill-rule:nonzero;stroke:none"
           id="text64124"><tspan
             x="0 6.3600001"
             y="0"
             sodipodi:role="line"
             id="tspan64122">10</tspan></text>
        <g
           id="g64126"
           transform="scale(0.01)">
          <g
             id="g64128">
            <g
               id="g64130"
               clip-path="url(#clipPath64134)">
              <path
                 d="M 106,355 H 732 V 272 H 106 Z"
                 style="fill:#000000;fill-opacity:1;fill-rule:nonzero;stroke:none"
                 id="path64136" />
            </g>
          </g>
        </g>
      </g>
      <path
         d="m 55.73,78.855318 h -3.5"
         style="fill:#000000;fill-opacity:1;fill-rule:nonzero;stroke:#000000;stroke-width:0.8;stroke-linecap:butt;stroke-linejoin:round;stroke-miterlimit:10;stroke-dasharray:none;stroke-opacity:1"
         id="path64138" />
      <g
         id="g64140"
         transform="translate(42.370625,75.058443)">
        <text
           xml:space="preserve"
           transform="scale(1,-1)"
           style="font-variant:normal;font-weight:normal;font-size:10px;font-family:'DejaVu Sans';-inkscape-font-specification:DejaVuSans;writing-mode:lr-tb;fill:#000000;fill-opacity:1;fill-rule:nonzero;stroke:none"
           id="text64144"><tspan
             x="0"
             y="0"
             id="tspan64142">0</tspan></text>
      </g>
      <path
         d="m 55.73,105.95971 h -3.5"
         style="fill:#000000;fill-opacity:1;fill-rule:nonzero;stroke:#000000;stroke-width:0.8;stroke-linecap:butt;stroke-linejoin:round;stroke-miterlimit:10;stroke-dasharray:none;stroke-opacity:1"
         id="path64146" />
      <g
         id="g64148"
         transform="translate(36.01125,102.16283)">
        <text
           xml:space="preserve"
           transform="scale(1,-1)"
           style="font-variant:normal;font-weight:normal;font-size:10px;font-family:'DejaVu Sans';-inkscape-font-specification:DejaVuSans;writing-mode:lr-tb;fill:#000000;fill-opacity:1;fill-rule:nonzero;stroke:none"
           id="text64152"><tspan
             x="0 6.3600001"
             y="0"
             sodipodi:role="line"
             id="tspan64150">10</tspan></text>
      </g>
      <path
         d="m 55.73,133.0641 h -3.5"
         style="fill:#000000;fill-opacity:1;fill-rule:nonzero;stroke:#000000;stroke-width:0.8;stroke-linecap:butt;stroke-linejoin:round;stroke-miterlimit:10;stroke-dasharray:none;stroke-opacity:1"
         id="path64154" />
      <g
         id="g64156"
         transform="translate(36.01125,129.26723)">
        <text
           xml:space="preserve"
           transform="scale(1,-1)"
           style="font-variant:normal;font-weight:normal;font-size:10px;font-family:'DejaVu Sans';-inkscape-font-specification:DejaVuSans;writing-mode:lr-tb;fill:#000000;fill-opacity:1;fill-rule:nonzero;stroke:none"
           id="text64160"><tspan
             x="0 6.3600001"
             y="0"
             sodipodi:role="line"
             id="tspan64158">20</tspan></text>
      </g>
    </g>
    <g
       id="g64162">
      <g
         id="g64164"
         clip-path="url(#clipPath64168)">
        <path
           d="m 69.069545,77.595498 0.35584,-2.104123 0.08896,0.769913 0.17792,3.573147 0.26688,1.904431 0.17792,3.617808 0.17792,21.911066 0.26688,-29.951824 0.35584,-2.438957 0.177919,3.38037 0.08896,-0.211051 0.26688,-0.698257 0.08896,-0.500281 0.08896,-1.195646 0.17792,-8.162221 0.17792,10.603907 0.35584,-1.252124 0.08896,0.05534 0.17792,2.006519 0.26688,0.756618 0.177919,1.168572 0.08896,2.072006 0.08896,5.615102 0.08896,-0.04911 0.17792,-10.515718 0.35584,-1.407726 0.08896,0.508968 0.17792,2.255668 0.26688,1.382379 0.17792,2.706675 0.17792,17.690811 0.26688,-23.483735 0.355839,-1.919652 0.17792,2.412473 0.08896,-0.303646 0.26688,-1.211866 0.17792,-2.546136 0.17792,-11.835107 0.17792,16.193505 0.35584,-0.549707 0.08896,0.07291 0.17792,0.658402 0.266879,0.05645 0.17792,0.159601 0.08896,0.275228 0.17792,0.722405 0.17792,-1.511746 0.35584,-0.698781 0.08896,0.336906 0.17792,1.112577 0.26688,0.772005 0.17792,1.528121 0.177919,9.516916 0.26688,-12.876741 0.35584,-1.20873 0.17792,1.502002 0.08896,-0.299901 0.26688,-0.824727 0.08896,-0.537917 0.08896,-1.263332 0.17792,-8.395468 0.17792,11.164698 0.444799,-1.255484 0.17792,1.896037 0.26688,0.352114 0.17792,0.630356 0.08896,1.12425 0.17792,3.2385 0.17792,-6.039045 0.35584,-1.185273 0.08896,0.39888 0.17792,1.960394 0.266879,1.19333 0.17792,2.23127 0.17792,14.797827 0.35584,-20.163893 0.26688,-1.375076 0.17792,2.516729 0.08896,-0.09731 0.26688,-0.582755 0.17792,-0.970957 0.17792,-5.282338 0.177919,6.580714 0.4448,-1.34967 0.17792,1.985655 0.26688,0.284969 0.17792,0.523202 0.08896,0.929974 0.17792,2.68807 0.17792,-5.049769 0.35584,-1.141517 0.08896,0.378287 0.177919,1.956469 0.26688,1.417193 0.17792,2.467227 0.17792,15.378252 0.35584,-21.161596 0.26688,-1.27491 0.17792,2.30503 0.08896,-0.09038 0.26688,-0.276261 0.08896,-0.190043 0.08896,-0.468065 0.17792,-4.121324 0.17792,4.785426 0.4448,-1.44977 0.26688,2.105156 0.26688,0.307846 0.08896,0.253068 0.08896,0.708001 0.17792,2.072323 0.17792,-3.978394 0.355839,-1.1681 0.08896,0.366808 0.17792,1.972211 0.26688,1.183253 0.17792,2.119005 0.17792,13.286983 0.35584,-18.093756 0.26688,-0.891038 0.17792,1.397196 0.08896,-0.163121 0.35584,-1.142597 0.08896,-0.968934 0.17792,-7.189662 0.17792,9.590086 0.4448,-0.643416 0.17792,0.552612 0.35584,-0.673857 0.08896,-0.426912 0.08896,-1.153784 0.177919,-4.128376 0.17792,6.620108 0.35584,-0.191195 0.62272,1.31766 0.08896,0.640283 0.17792,6.71465 0.08896,-2.606132 0.17792,-6.168063 0.355839,-0.705339 0.17792,0.805332 0.08896,-0.125789 0.26688,-0.55297 0.08896,-0.368925 0.08896,-0.847164 0.17792,-7.113893 0.17792,8.91383 0.4448,-1.032931 0.17792,1.143222 0.355839,-0.459099 0.08896,-0.295255 0.08896,-0.820114 0.177918,-3.271559 0.17792,4.868552 0.35584,-0.55315 0.089,0.25096 0.17792,0.958118 0.26688,0.818072 0.17792,1.433596 0.17792,8.986239 0.089,-3.780231 0.17792,-8.443278 0.35584,-1.136094 0.17792,1.508513 0.089,-0.103137 0.26688,-0.322964 0.17792,-0.718598 0.17792,-4.192487 0.17792,5.120708 0.4448,-1.173393 0.17792,1.254335 0.35584,-0.730701 0.089,-0.461755 0.089,-1.23962 0.17792,-5.00174 0.17792,7.631384 0.35584,-0.322199 0.62272,1.710035 0.089,0.72883 0.089,2.372666 0.089,5.476104 0.089,-2.520643 0.17792,-7.686664 0.35584,-0.725457 0.17792,1.040954 0.089,-0.0247 0.35584,0.02508 0.26688,-0.02931 0.26688,-0.651727 0.35584,-1.172148 0.17792,1.588346 0.35584,-0.8392 0.089,-0.499692 0.089,-1.307362 0.17792,-5.77167 0.17792,8.542282 0.35584,-0.479781 0.089,0.210071 0.17792,0.782966 0.26688,0.667738 0.17791,1.257163 0.089,2.651941 0.089,6.230905 0.089,-2.599314 0.17791,-9.000718 0.35585,-0.936185 0.4448,2.137412 0.17792,0.778846 0.089,1.071608 0.17791,8.604985 0.17792,-11.777483 0.4448,-1.868985 0.17792,2.302883 0.089,-0.143454 0.26688,-0.290054 0.089,-0.230545 0.089,-0.629505 0.17792,-3.297105 0.17792,4.335916 0.35584,-0.972692 0.089,0.237043 0.17792,1.707037 0.26688,1.033606 0.17792,1.952044 0.089,3.980039 0.089,9.546031 0.089,-3.690434 0.17792,-14.147967 0.35584,-1.536746 0.089,0.84722 0.17792,2.41294 0.26688,1.758336 0.17792,3.392526 0.17792,17.701394 0.26688,-25.522528 0.35584,-3.010568 0.26688,4.74958 0.26688,0.179189 0.17792,0.478253 0.17792,1.003849 0.17792,-2.353895 0.35584,-1.603778 0.089,0.246699 0.17792,2.829477 0.26688,1.433744 0.17792,2.636966 0.089,5.429358 0.089,13.244004 0.089,-4.674934 0.17792,-19.979652 0.35584,-2.254403 0.089,1.137172 0.17792,3.633379 0.26688,2.472541 0.17792,4.754625 0.17792,26.296632 0.26688,-36.572569 0.35584,-2.91596 0.17792,4.404271 0.089,-0.07387 0.35584,-0.399819 0.089,-0.392296 0.17792,-2.552975 0.17792,2.98213 0.35584,-1.399927 0.089,0.224191 0.17792,2.462539 0.26688,1.126641 0.17792,2.10345 0.089,4.245361 0.089,10.586257 0.089,-2.978895 0.17792,-16.593476 0.35584,-1.640006 0.089,0.9526 0.26688,4.693575 0.17792,2.587145 0.17792,7.348833 0.17792,41.45662 0.26688,-56.9581 0.35584,-4.363741 0.26688,7.115298 0.26688,0.700029 0.089,0.538501 0.089,1.355792 0.17792,6.334128 0.17792,-10.462836 0.26688,-1.972506 0.089,-0.762108 0.089,0.232409 0.17792,5.011717 0.26688,2.316225 0.17792,4.226086 0.089,8.275032 0.089,21.133354 0.089,-4.80929 0.17792,-34.122343 0.35584,-3.463675 0.089,1.418214 0.17792,5.687955 0.26688,3.266299 0.17792,6.607265 0.17792,39.284655 0.26688,-53.097666 0.35583,-3.556756 0.17793,5.397918 0.089,-0.02667 0.4448,-0.305721 0.17792,-1.645895 0.17792,1.281862 0.35584,-1.884289 0.089,0.162558 0.17792,3.331094 0.26688,1.633191 0.17792,2.796768 0.089,5.39374 0.089,13.984166 0.089,-2.58421 0.17792,-23.324418 0.35584,-2.705654 0.089,1.010832 0.17792,4.378242 0.26688,2.670831 0.17792,5.377403 0.17792,33.292454 0.26688,-44.282575 0.35584,-2.855371 0.17792,4.19331 0.089,-0.156127 0.26688,-0.312593 0.089,-0.225929 0.089,-0.555005 0.17792,-3.696539 0.17792,4.501242 0.35584,-1.552723 0.089,0.07618 0.17792,2.562499 0.26688,0.905627 0.17792,1.476632 0.089,2.787884 0.089,7.423874 0.089,-0.844366 0.17792,-12.93663 0.35584,-1.559282 0.089,0.71121 0.17792,2.794278 0.26688,1.819162 0.17792,3.487955 0.17792,20.993927 0.26688,-28.679824 0.35584,-2.20921 0.17792,3.151964 0.089,-0.201366 0.26688,-0.613225 0.089,-0.435222 0.089,-1.055189 0.17792,-7.406354 0.17792,9.449038 0.35584,-1.221101 0.089,0.07923 0.17792,2.040441 0.26688,0.860782 0.17792,1.479077 0.089,2.702511 0.089,7.361773 0.089,-0.618165 0.17792,-12.952746 0.35584,-1.618544 0.089,0.70287 0.17792,2.925724 0.26688,2.314999 0.17792,4.339495 0.17792,27.229852 0.26688,-36.395409 0.35584,-2.407091 0.17792,3.245848 0.089,-0.232171 0.26688,-0.807412 0.089,-0.577447 0.089,-1.424091 0.17792,-9.754402 0.17792,12.837529 0.35584,-0.972746 0.089,0.07076 0.17792,1.570391 0.26688,0.587671 0.17792,1.037858 0.089,1.847674 0.089,5.068838 0.089,-0.128416 0.17792,-9.310208 0.35584,-1.315944 0.089,0.491162 0.17792,2.112094 0.26688,1.301255 0.17792,2.579676 0.17792,17.021931 0.26688,-22.602633 0.35584,-1.983942 0.17792,2.554802 0.089,-0.207525 0.26688,-0.821391 0.089,-0.561419 0.089,-1.340308 0.17792,-8.516538 0.17792,11.626864 0.35584,-0.726321 0.089,0.06018 0.17792,0.974724 0.26688,0.11664 0.17792,0.274628 0.089,0.506033 0.17792,1.394979 0.17791,-2.701651 0.35584,-0.840516 0.089,0.364591 0.17792,1.411692 0.26688,1.044837 0.17792,2.016916 0.17792,12.944518 0.26689,-17.380747 0.35583,-1.581129 0.17792,2.098598 0.089,-0.212357 0.26688,-0.693679 0.089,-0.497876 0.089,-1.163171 0.17792,-8.724882 0.17792,11.183488 0.4448,-1.022284 0.17792,1.424976 0.26688,0.08947 0.17792,0.205713 0.089,0.362318 0.17792,0.994624 0.17792,-2.033791 0.35584,-0.862862 0.089,0.335296 0.17792,1.480654 0.26688,0.994616 0.17792,1.800913 0.17792,11.360625 0.35584,-15.887499 0.26688,-1.224673 0.17792,2.141822 0.089,-0.119558 0.26688,-0.450083 0.089,-0.315477 0.089,-0.740762 0.17792,-6.129086 0.17792,7.532348 0.4448,-1.228636 0.17792,1.684456 0.26688,0.06872 0.17792,0.184755 0.089,0.306027 0.17792,0.894343 0.17792,-1.854791 0.35584,-0.933525 0.089,0.3328 0.17792,1.658944 0.26688,1.058837 0.17792,1.960539 0.17792,12.237427 0.35584,-16.935172 0.26688,-1.086977 0.17792,1.919246 0.089,-0.101119 0.35584,-0.506201 0.089,-0.449742 0.17792,-3.707869 0.17792,4.468305 0.4448,-1.339148 0.26688,1.795169 0.35584,0.177012 0.089,0.193143 0.089,0.55071 0.089,-0.01446 0.17792,-1.291112 0.35584,-0.971347 0.089,0.327976 0.17792,1.730939 0.26688,1.094833 0.17792,2.032307 0.17792,12.679271 0.089,-5.368589 0.17792,-11.765707 0.35584,-1.311255 0.17792,1.783549 0.089,-0.105919 0.26688,-0.536599 0.17792,-0.914027 0.17792,-4.899618 0.17792,6.386241 0.4448,-0.784095 0.17792,0.60999 0.26688,-0.976159 0.17792,-1.218615 0.089,-2.088207 0.17792,-8.012542 0.17792,12.763027 0.26688,-0.01997 0.17792,0.243173 0.089,-0.09835 0.17792,-0.0052 0.26688,0.363699 0.089,0.342539 0.089,1.128604 0.089,2.673288 0.089,-1.115067 0.17792,-3.732417 0.35584,-0.317124 0.17792,0.408138 0.089,-0.05748 0.44479,-0.202743 0.17792,-1.177701 0.089,0.430819 0.089,0.527637 0.4448,-1.637348 0.17792,1.960821 0.089,-0.117759 0.26688,-0.390166 0.089,-0.305877 0.089,-0.842841 0.17792,-3.702331 0.17792,5.324002 0.35584,-0.671773 0.089,0.24831 0.17792,1.167305 0.26688,0.867034 0.17792,1.573982 0.089,3.348621 0.089,7.767354 0.089,-3.55247 0.17792,-10.999955 0.35584,-1.057538 0.4448,2.422719 0.17792,0.86527 0.089,1.191806 0.17792,8.625943 0.17792,-12.613873 0.26688,-1.971108 0.17792,-1.270491 0.26688,4.676968 0.26688,0.630659 0.089,0.502235 0.089,1.337975 0.17792,5.115622 0.17792,-8.785918 0.35584,-1.991426 0.089,0.369006 0.17792,3.626521 0.26688,1.977923 0.17792,3.524076 0.089,6.891089 0.089,16.107298 0.089,-7.27881 0.17792,-23.608722 0.35584,-2.483532 0.089,1.451029 0.26688,6.062551 0.17792,3.104917 0.17792,8.720659 0.17792,47.246268 0.17792,-64.65534 0.4448,-5.936051 0.26688,9.121608 0.26688,2.221246 0.089,1.595949 0.089,3.977492 0.17792,16.402956 0.17792,-27.197297 0.26688,-2.680221 0.089,-1.056004 0.089,0.447192 0.17792,6.616775 0.26688,3.077003 0.17792,5.489534 0.089,11.287358 0.089,27.34111 0.089,-10.86956 0.17792,-40.226958 0.35584,-4.540608 0.089,2.098542 0.17792,6.775615 0.26688,3.44278 0.17792,6.965836 0.17792,38.266983 0.26688,-52.710403 0.35584,-3.342833 0.26688,5.4089 0.26688,0.369133 0.089,0.284074 0.089,0.721412 0.17792,2.418924 0.17792,-4.799008 0.35584,-1.929837 0.089,0.266893 0.17792,3.471032 0.26688,1.63098 0.17792,2.861288 0.089,5.351219 0.089,13.064866 0.089,-4.85832 0.17792,-19.99249 0.35584,-1.987465 0.089,0.999095 0.17792,3.22163 0.26688,2.13118 0.17792,4.586015 0.17792,27.120805 0.26688,-36.51015 0.35584,-2.478516 0.17792,3.541199 0.089,-0.1676 0.26688,-0.705436 0.089,-0.463961 0.089,-1.152415 0.17792,-6.093275 0.17792,8.536179 0.35584,-0.926697 0.089,0.19667 0.17791,1.6181 0.26688,0.945648 0.17792,1.722591 0.089,3.473011 0.089,8.605617 0.089,-2.497865 0.17792,-13.507328 0.35584,-1.568038 0.089,0.73484 0.17792,2.331827 0.26688,1.522482 0.17792,2.777909 0.17792,14.961903 0.26688,-21.858498 0.35584,-3.382671 0.17792,5.059585 0.089,-0.110403 0.26688,-0.30094 0.089,-0.225294 0.089,-0.590491 0.17792,-4.025498 0.17792,4.835206 0.35584,-1.430805 0.089,0.149578 0.17792,2.553834 0.26688,1.226441 0.17792,2.264224 0.089,4.425876 0.089,11.236865 0.089,-2.569214 0.17792,-18.208099 0.35584,-1.98536 0.089,0.846563 0.17792,3.148577 0.17792,1.150715 0.17792,2.23988 0.089,2.740606 0.17792,23.873738 0.26688,-32.723823 0.35584,-3.034382 0.17792,4.368676 0.089,-0.179133 0.26688,-0.555625 0.089,-0.385191 0.089,-0.93017 0.17792,-5.647889 0.17792,7.546235 0.35584,-1.152305 0.089,0.136393 0.17792,1.962594 0.26688,0.837801 0.17792,1.526837 0.089,2.839605 0.089,7.371761 0.089,-1.547018 0.17792,-12.131473 0.35584,-1.334329 0.089,0.680349 0.17792,2.319796 0.26688,1.66579 0.17792,3.535574 0.17792,20.726077 0.26688,-28.559448 0.35584,-2.984472 0.17792,4.146855 0.089,-0.230007 0.26688,-1.049977 0.089,-0.672424 0.089,-1.580168 0.17792,-9.520727 0.17792,13.180149 0.35584,-0.773205 0.089,0.124928 0.17792,1.235654 0.26688,0.565866 0.17792,0.961682 0.089,1.751258 0.089,4.68691 0.089,-0.498095 0.17792,-8.20998 0.35584,-1.019142 0.089,0.48565 0.17792,1.660181 0.26688,1.262068 0.17792,2.570482 0.17792,16.16045 0.26688,-21.627599 0.35584,-1.817893 0.17792,2.249056 0.089,-0.445268 0.35584,-2.950299 0.089,-2.670765 0.17792,-16.237707 0.17792,22.826092 0.35584,-0.09032 0.17792,0.1248 0.26688,-0.157385 0.35584,-0.07242 0.17792,-0.106085 0.17792,0.09314 0.35584,-0.460872 0.62272,2.137292 0.089,0.857661 0.17792,8.174388 0.26688,-10.888562 0.35583,-0.790823 0.17792,0.328159 0.35584,-2.773226 0.089,-1.439068 0.089,-3.412731 0.17792,-20.657681 0.17792,29.334133 0.17792,0.09265 0.26688,0.392196 0.26688,-1.178354 0.26688,-0.632805 0.089,-0.473117 0.089,-1.290622 0.089,-3.673929 0.089,0.02987 0.17792,6.51337 0.26688,-0.127185 0.4448,0.43746 0.26688,0.552714 0.089,0.504607 0.17792,4.95297 0.26688,-6.623086 0.35584,-0.639404 0.17792,0.503886 0.4448,-2.530016 0.089,-1.970576 0.17792,-12.568324 0.17792,17.297015 0.35584,-0.669801 0.089,0.06485 0.17792,0.850471 0.26688,0.07218 0.17792,0.186559 0.089,0.318854 0.17792,0.812494 0.17792,-1.742652 0.35584,-0.764651 0.089,0.37226 0.17792,1.312666 0.26688,1.29159 0.17792,2.369454 0.17792,15.9561 0.26688,-21.086712 0.35584,-1.795118 0.17792,2.262975 0.089,-0.225904 0.26688,-0.862797 0.089,-0.601132 0.089,-1.370065 0.17792,-9.371183 0.17792,12.500819 0.4448,-0.927235 0.17792,1.292385 0.26688,0.103482 0.17792,0.212466 0.089,0.384995 0.17792,1.027721 0.17792,-2.089807 0.35584,-0.819496 0.089,0.335437 0.17792,1.415168 0.26688,1.009891 0.17792,2.049355 0.17792,13.918617 0.35584,-18.663241 0.26688,-1.202546 0.17792,1.835342 0.089,-0.245602 0.26688,-1.086102 0.089,-0.744749 0.089,-1.703208 0.17792,-12.827974 0.17792,16.980971 0.4448,-0.314604 0.17792,0.04967 0.35584,-0.73725 0.089,-0.477367 0.089,-1.26854 0.17792,-4.298814 0.17792,7.12483 0.26688,-0.129712 0.17792,0.226345 0.53376,0.81412 0.089,0.547125 0.17792,5.745859 0.089,-2.326513 0.17792,-5.188398 0.35584,-0.660941 0.17792,0.686001 0.089,-0.180153 0.35584,-1.310756 0.089,-1.169242 0.17792,-9.094049 0.17792,11.830053 0.4448,-0.679258 0.17792,0.60014 0.35584,-0.721403 0.089,-0.401373 0.089,-1.055467 0.17791,-4.003676 0.17792,6.327779 0.35584,-0.416975 0.089,0.241596 0.17792,0.729693 0.26688,0.777828 0.17792,1.390283 0.17792,9.117103 0.089,-3.661948 0.17792,-8.480536 0.35584,-0.972208 0.17792,1.06176 0.089,-0.24158 0.35584,-1.776124 0.089,-1.422331 0.17792,-10.766511 0.17792,14.60968 0.26688,-0.09221 0.17792,0.04549 0.4448,-1.79134 0.17792,-1.746758 0.089,-2.993957 0.17792,-11.901214 0.17792,18.770119 0.17792,0.21093 0.26688,0.526938 0.17792,-1.258277 0.35584,-0.394367 0.089,-0.276724 0.17792,-2.328371 0.35584,3.394932 0.17792,0.184517 0.089,0.180247 0.089,-0.06594 0.17792,-0.711931 0.35584,-0.331933 0.089,-0.279705 0.17792,-2.502266 0.17792,2.893575 0.4448,-1.34744 0.17792,1.391177 0.35584,-0.986917 0.089,-0.570557 0.089,-1.493067 0.17792,-6.354524 0.17792,9.687304 0.35584,-0.305833 0.62272,1.462551 0.089,0.577139 0.089,1.736998 0.089,4.108865 0.089,-1.759702 0.17792,-6.005308 0.35584,-0.593652 0.35584,0.926689 0.26688,0.185061 0.089,0.194936 0.17792,1.140874 0.17792,-2.117573 0.4448,-1.750901 0.17792,1.951752 0.089,-0.202669 0.26688,-0.706115 0.089,-0.562319 0.089,-1.494165 0.17792,-6.889417 0.17792,10.039723 0.35584,-0.479971 0.089,0.197837 0.17792,0.778168 0.26688,0.595368 0.17792,1.088605 0.089,2.250794 0.089,5.351643 0.089,-2.021275 0.17792,-7.975223 0.35584,-0.817731 0.71168,3.882966 0.17792,7.808314 0.26688,-11.611828 0.35584,-1.948136 0.17792,3.110313 0.089,-0.06937 0.35584,0.144177 0.17792,0.445338 0.089,-0.278691 0.17792,-0.939005 0.35584,-1.589155 0.089,0.24493 0.17792,2.772566 0.26688,1.379837 0.17792,2.32825 0.089,4.360102 0.089,10.642293 0.089,-4.199473 0.17792,-16.155035 0.35584,-1.792024 0.089,0.990328 0.17792,3.146456 0.35583,4.726906 0.089,3.831458 0.17792,31.894255 0.26688,-43.972425 0.35584,-3.698709 0.26688,6.014038 0.26689,0.494724 0.089,0.373112 0.089,0.954041 0.17792,3.769311 0.17792,-6.762094 0.35584,-2.152768 0.089,0.26108 0.17792,3.909861 0.26688,2.095837 0.17792,3.661429 0.089,7.211457 0.089,18.237486 0.089,-5.77193 0.17792,-27.852196 0.35584,-2.736348 0.089,1.321352 0.17792,4.607536 0.26688,2.766045 0.17792,5.737436 0.17792,33.602795 0.26688,-45.968974 0.35584,-3.62973 0.17792,5.601281 0.089,-0.01724 0.35584,0.171665 0.17792,0.505875 0.089,-0.300605 0.17792,-1.123619 0.35584,-1.871483 0.089,0.239128 0.17792,3.334745 0.17792,1.037218 0.17792,1.858573 0.089,2.077033 0.089,6.219564 0.089,15.793009 0.089,-4.34868 0.17792,-24.83441 0.35584,-2.711326 0.089,1.137917 0.17792,4.314721 0.26688,2.71237 0.17792,5.135471 0.17792,30.090847 0.26688,-41.278176 0.35584,-3.449913 0.17792,5.195344 0.089,-0.07569 0.35584,-0.326441 0.089,-0.366133 0.17792,-2.903368 0.17792,3.116435 0.35584,-1.673896 0.089,0.140852 0.17792,2.983925 0.26688,1.278087 0.17792,2.177925 0.089,4.196523 0.089,11.107476 0.089,-2.343269 0.17792,-18.064637 0.35584,-1.890324 0.089,0.847433 0.17792,3.212968 0.26688,2.368332 0.17792,4.450786 0.17792,26.647911 0.26688,-36.27238 0.35584,-2.817067 0.17792,4.032383 0.089,-0.198617 0.26688,-0.617011 0.089,-0.415648 0.089,-0.989333 0.17792,-6.08596 0.17792,8.088366 0.35584,-1.276947 0.089,0.108288 0.17792,2.202401 0.26688,0.919123 0.17792,1.560499 0.089,2.77617 0.089,7.39592 0.089,-1.226543 0.17792,-12.638699 0.35584,-1.46057 0.089,0.724588 0.17792,2.695751 0.26688,2.193286 0.17792,3.997299 0.17792,24.459941 0.26688,-33.239558 0.35584,-2.468197 0.17792,3.872534 0.089,-0.07675 0.26688,0.08296 0.17792,0.249956 0.089,0.399434 0.089,-0.228052 0.17792,-1.30891 0.26688,-1.406065 0.089,-0.558375 0.089,0.08078 0.17791,3.413855 0.35584,2.137979 0.089,1.39854 0.089,3.910242 0.089,10.681957 0.089,-1.569747 0.17792,-18.213783 0.35585,-1.975098 0.089,0.806934 0.17792,3.460381 0.26688,2.243111 0.17792,4.161923 0.17792,25.721509 0.26688,-34.923577 0.35584,-2.735618 0.17792,3.963057 0.089,-0.173636 0.35584,-0.955819 0.089,-0.950729 0.17792,-6.86143 0.17792,8.56563 0.35584,-1.479691 0.089,0.03895 0.17792,2.476906 0.26688,0.894399 0.17792,1.469498 0.089,2.542563 0.089,7.050519 0.089,-0.407881 0.17792,-12.714625 0.35584,-1.542143 0.089,0.606521 0.17792,2.575972 0.26688,1.57573 0.17792,2.977961 0.17792,18.890353 0.26688,-25.50249 0.35584,-2.168255 0.17792,3.185869 0.089,-0.125115 0.35584,-0.441551 0.089,-0.414648 0.17792,-3.350962 0.17792,3.76462 0.4448,-1.698319 0.17792,2.866372 0.17792,0.587585 0.26688,2.162392 0.089,2.892731 0.17792,8.210354 0.17792,-15.108174 0.35584,-1.734148 0.089,0.560407 0.17792,2.850732 0.26688,1.562829 0.17792,3.029267 0.17792,19.899494 0.26688,-26.350086 0.35584,-1.855738 0.17792,2.40901 0.089,-0.253104 0.26688,-0.923147 0.089,-0.59839 0.089,-1.402033 0.17792,-8.858046 0.17792,12.281439 0.4448,-0.414376 0.17792,0.406679 0.4448,-0.390499 0.089,-0.374203 0.17792,-1.361895 0.17792,2.029309 0.35584,-0.583379 0.089,0.315292 0.17792,1.033895 0.26688,1.115861 0.17792,2.064491 0.17792,14.009641 0.35584,-18.989121 0.26688,-1.342446 0.17792,2.592432 0.17792,-0.04859 0.53376,-0.08958 0.62272,-1.338855 0.17792,1.483315 0.35584,0.07297 0.17792,0.238887 0.17792,0.544296 0.17792,-1.16269 0.35584,-0.794015 0.089,0.315504 0.17792,1.380666 0.26688,1.127948 0.17792,1.993136 0.17792,12.663933 0.35584,-17.407527 0.26687,-1.130763 0.17793,1.939738 0.0889,-0.155753 0.26688,-0.455208 0.089,-0.331402 0.089,-0.777586 0.17792,-6.461354 0.17792,8.035416 0.4448,-1.084266 0.17792,1.320641 0.4448,-0.595749 0.089,-0.596614 0.17792,-2.286629 0.17792,3.41977 0.35584,-0.518467 0.089,0.250476 0.17792,0.877469 0.26688,0.727543 0.17792,1.411058 0.17792,9.255692 0.089,-3.65459 0.17792,-8.600812 0.35584,-0.944343 0.17792,1.127566 0.089,-0.140614 0.26688,-0.545845 0.17792,-1.132164 0.17792,-6.163189 0.17792,7.977411 0.4448,-0.853691 0.17792,0.803579 0.26688,-0.974308 0.17792,-1.213294 0.089,-2.139949 0.17792,-8.279544 0.17792,13.007018 0.26688,2.71e-4 0.17792,0.237913 0.17792,-0.204339 0.26688,0.232418 0.17792,0.462377 0.089,0.923029 0.089,2.198823 0.089,-0.944256 0.17792,-3.112246 0.35584,-0.241033 0.17792,0.357093 0.62272,-0.361435 0.089,-0.528252 0.089,0.112815 0.089,0.285388 0.4448,-1.516641 0.17792,1.795374 0.089,-0.122504 0.26688,-0.428746 0.089,-0.33755 0.089,-0.908713 0.17792,-3.948552 0.17792,5.755625 0.35584,-0.579824 0.089,0.233193 0.17792,0.972302 0.26688,0.687802 0.17792,1.275416 0.089,2.678873 0.089,6.194888 0.089,-2.861604 0.17792,-8.819282 0.35584,-0.902706 0.35584,1.600975 0.17792,0.27187 0.17792,0.819255 0.17792,4.122427 0.17792,-5.986083 0.4448,-1.624747 0.17792,1.817452 0.089,-0.153717 0.26688,-0.529414 0.089,-0.401015 0.089,-1.027738 0.17792,-4.661883 0.17792,6.853231 0.35584,-0.620719 0.089,0.223344 0.17792,1.044517 0.26688,0.725028 0.17792,1.288837 0.089,2.474231 0.089,5.710766 0.089,-2.739466 0.17792,-8.317022 0.35584,-0.941776 0.4448,2.1169 0.17792,0.714769 0.089,0.900507 0.17792,6.354721 0.17792,-9.534507 0.26688,-1.587703 0.17792,-1.001349 0.17792,3.368206 0.089,-0.03728 0.4448,-0.06976 0.17792,-0.612757 0.089,0.17354 0.089,0.08433 0.35585,-1.27688 0.089,0.277002 0.17792,2.292844 0.26689,1.223332 0.17791,2.254187 0.089,4.622389 0.089,11.045287 0.089,-4.409518 0.17792,-16.293723 0.35584,-1.587203 0.089,0.961497 0.17792,2.683159 0.26688,2.247238 0.17792,4.615046 0.17792,23.803769 0.17792,-33.574275 0.26688,-3.029923 0.17792,-2.123773 0.26688,7.870323 0.35584,3.677018 0.089,3.836521 0.17792,15.853309 0.17792,-25.932622 0.26688,-2.540908 0.089,-0.991211 0.089,0.419405 0.17792,6.32376 0.26688,2.953616 0.17792,5.03507 0.089,9.469342 0.089,22.282278 0.089,-9.90598 0.17792,-33.484977 0.35584,-4.068093 0.089,1.84271 0.17792,5.975284 0.26688,3.806697 0.17792,6.873119 0.17792,36.63618 0.26688,-51.759092 0.35584,-4.680319 0.26688,8.270221 0.26688,1.579655 0.089,1.128123 0.089,2.773185 0.17792,11.91931 0.17792,-19.724225 0.26688,-2.300288 0.089,-0.898907 0.089,0.348468 0.17792,5.721671 0.26688,2.901099 0.17792,4.69229 0.089,9.034424 0.089,22.365315 0.089,-7.92004 0.17792,-34.331202 0.35584,-3.656607 0.089,1.734233 0.17792,5.913919 0.26688,3.344815 0.17792,6.862266 0.17792,38.403256 0.26688,-52.725151 0.35584,-3.400541 0.17792,5.271726 0.089,-0.0821 0.4448,-0.826549 0.17792,-2.691178 0.17792,3.013446 0.35584,-1.445363 0.089,0.190292 0.17792,2.574273 0.26688,1.230172 0.17792,2.091299 0.089,3.875066 0.089,9.68532 0.089,-2.969197 0.17792,-15.405559 0.35584,-1.579094 0.089,0.887182 0.17792,2.909243 0.26688,2.644834 0.17792,5.460461 0.17792,31.980228 0.26688,-43.222084 0.35584,-3.030939 0.17792,4.684137 0.089,-0.07454 0.4448,-0.05515 0.089,-0.22166 0.089,-0.673577 0.089,0.129253 0.089,0.19444 0.35584,-1.756629 0.089,0.213617 0.17792,3.130563 0.26688,1.448824 0.17792,2.460603 0.089,4.729102 0.089,11.9742 0.089,-3.009063 0.17792,-19.536292 0.35584,-2.268592 0.089,1.036827 0.17792,3.91574 0.26687,2.841346 0.17792,5.378308 0.17792,30.958386 0.26688,-42.787902 0.35584,-3.688549 0.17792,5.691553 0.089,-0.05602 0.26688,-0.06417 0.26688,0.06387 0.089,0.33113 v 0"
           style="fill:none;stroke:#1f77b4;stroke-width:1.5;stroke-linecap:square;stroke-linejoin:round;stroke-miterlimit:10;stroke-dasharray:none;stroke-opacity:1"
           id="path64170" />
      </g>
    </g>
    <g
       id="g64172">
      <g
         id="g64174"
         clip-path="url(#clipPath64178)">
        <path
           d="m 69.069545,100.27876 0.35584,0.17514 0.08896,-0.28268 0.17792,-0.738721 0.35584,-0.272656 0.08896,-0.247342 0.17792,-2.531953 0.26688,4.326492 0.35584,0.18993 0.266879,-0.8486 0.35584,0.0886 0.08896,0.12564 0.17792,0.92003 0.17792,-1.533823 0.4448,0.01295 0.17792,-0.4631 0.444799,-0.18789 0.08896,-0.23406 0.08896,-0.66265 0.08896,0.107763 0.17792,1.464895 0.35584,0.09869 0.4448,-0.731273 0.17792,-0.142319 0.08896,-0.19182 0.17792,-2.062143 0.26688,3.39636 0.355839,0.14132 0.26688,-0.614741 0.35584,0.154263 0.08896,0.183086 0.17792,1.325432 0.17792,-2.328468 0.4448,-0.04462 0.17792,-0.161846 0.533759,-0.07264 0.17792,-0.07874 0.17792,0.197081 0.35584,0.01622 0.35584,-0.367576 0.26688,-0.105829 0.08896,-0.107853 0.177919,-1.108112 0.26688,1.859494 0.35584,0.06488 0.26688,-0.384962 0.35584,0.104098 0.08896,0.130839 0.17792,0.942484 0.17792,-1.615489 0.444799,0.02715 0.17792,-0.447382 0.4448,-0.105818 0.08896,-0.128964 0.08896,-0.367309 0.08896,0.03412 0.17792,0.833903 0.35584,0.07383 0.4448,-0.630526 0.177919,-0.116338 0.08896,-0.157348 0.17792,-1.724996 0.26688,2.865042 0.35584,0.124992 0.26688,-0.642785 0.4448,0.125811 0.17792,0.595645 0.177919,-0.962234 0.4448,0.03808 0.17792,-0.47128 0.4448,-0.08963 0.08896,-0.107253 0.17792,-0.278628 0.17792,0.694855 0.35584,0.06939 0.533759,-0.684193 0.17792,-0.249602 0.17792,-1.78391 0.26688,3.018221 0.35584,0.111627 0.26688,-0.592056 0.444799,0.07137 0.17792,0.469421 0.17792,-0.707804 0.4448,0.0512 0.17792,-0.4929 0.4448,-0.0718 0.08896,-0.0826 0.17792,-0.215696 0.17792,0.542406 0.355839,0.0726 0.4448,-0.624993 0.26688,-0.25937 0.17792,-1.541568 0.26688,2.591391 0.35584,0.06257 0.266879,-0.369747 0.35584,0.08462 0.08896,0.09833 0.17792,0.808906 0.17792,-1.386857 0.4448,-0.01927 0.26688,-0.146447 0.35584,0.07155 0.08896,0.124601 0.177919,0.423969 0.17792,-0.950154 0.4448,-0.10524 0.26688,-0.07603 0.35584,-0.14008 0.17792,-0.789207 0.35584,1.284081 0.266879,-9.55e-4 0.26688,-0.221468 0.35584,0.06383 0.08896,0.0874 0.17792,0.812146 0.17792,-1.296093 0.4448,0.01837 0.17792,-0.291747 0.533759,0.133987 0.17792,0.34169 0.17792,-0.705179 0.35584,0.0013 0.4448,-0.339018 0.26688,-0.176515 0.17792,-1.043921 0.35584,1.800493 0.26688,0.03598 0.26688,-0.395497 0.4448,0.08124 0.17792,0.475426 0.17792,-0.753953 0.4448,0.03514 0.17792,-0.322454 0.4448,0.08598 0.089,0.1341 0.17792,0.526405 0.17792,-1.09468 0.4448,-0.09819 0.17792,-0.111691 0.4448,-0.172624 0.089,-0.2751 0.089,-0.646611 0.089,0.42322 0.17792,1.068232 0.35584,0.01292 0.26688,-0.279312 0.97856,0.07125 0.26688,0.0095 0.17792,-0.403873 0.4448,0.101813 0.089,0.140792 0.17792,0.617072 0.17792,-1.226786 0.35584,-0.0065 0.4448,-0.283721 0.26687,-0.160517 0.089,-0.306985 0.089,-0.735989 0.089,0.446702 0.17791,1.252233 0.35585,0.03512 0.26688,-0.428314 0.35584,-0.113776 0.089,-0.117809 0.17791,-0.994835 0.17792,1.675766 0.4448,0.107618 0.26688,-0.566185 0.4448,0.09728 0.17792,0.357832 0.17792,-0.634626 0.35584,0.05259 0.089,-0.110737 0.17792,-0.367919 0.35584,-0.160275 0.089,-0.134267 0.089,-0.457356 0.089,-1.125047 0.089,0.648432 0.17792,1.974765 0.35584,0.09973 0.35584,-0.790807 0.26688,-0.215049 0.089,-0.240384 0.17792,-2.023383 0.17792,3.561719 0.4448,0.296784 0.26688,-1.155995 0.4448,-0.08371 0.17792,-0.107293 0.17792,0.310965 0.35584,0.13054 0.089,-0.143899 0.17792,-0.616052 0.35584,-0.202809 0.089,-0.181303 0.089,-0.622432 0.089,-1.560929 0.089,0.841988 0.17792,2.793658 0.35584,0.180396 0.35584,-1.155689 0.26688,-0.300664 0.089,-0.334521 0.17792,-3.01666 0.26688,5.239214 0.35584,0.218714 0.26688,-1.082029 0.4448,0.06047 0.17792,0.280762 0.17792,-0.447066 0.35584,0.106945 0.089,-0.127997 0.17792,-0.537611 0.35584,-0.164983 0.089,-0.143697 0.089,-0.485695 0.089,-1.248108 0.089,0.575527 0.17792,2.319684 0.35584,0.11054 0.35584,-1.004957 0.17792,-0.22413 0.17792,-0.750281 0.17792,-4.769837 0.26688,8.182644 0.35584,0.371343 0.26688,-1.705721 0.35584,-0.124194 0.089,-0.152005 0.17792,-0.695139 0.17792,1.455391 0.35584,0.271646 0.089,-0.194987 0.17792,-1.101469 0.26688,-0.197336 0.17792,-0.422016 0.089,-0.941484 0.089,-2.489285 0.089,1.00425 0.17792,4.784223 0.35584,0.326931 0.35584,-1.719303 0.17792,-0.198978 0.17792,-0.67201 0.17792,-4.537479 0.26688,7.651804 0.35583,0.293687 0.26688,-1.335267 0.53376,0.08196 0.089,0.118121 0.17792,-0.209202 0.35584,0.170072 0.089,-0.137323 0.17792,-0.736968 0.35584,-0.224407 0.089,-0.188124 0.089,-0.613049 0.089,-1.647792 0.089,0.586537 0.17792,3.263742 0.35584,0.242732 0.4448,-1.390139 0.17792,-0.279472 0.089,-0.384417 0.17792,-3.862318 0.26688,6.388616 0.35584,0.225585 0.26688,-1.039797 0.4448,0.08763 0.17792,0.411376 0.17792,-0.665379 0.35584,0.130986 0.089,-0.101374 0.17792,-0.579647 0.35584,-0.131508 0.089,-0.09691 0.089,-0.31614 0.089,-0.875474 0.089,0.242294 0.17792,1.80478 0.35584,0.10938 0.4448,-0.891385 0.17792,-0.17549 0.089,-0.239392 0.17792,-2.42547 0.26688,4.139339 0.35584,0.163108 0.26688,-0.787425 0.35584,0.08213 0.089,0.111471 0.17792,0.834753 0.17792,-1.367586 0.4448,0.004 0.17792,-0.464203 0.35584,-0.132865 0.089,-0.09925 0.089,-0.306897 0.089,-0.869325 0.089,0.210728 0.17792,1.806882 0.35584,0.119303 0.4448,-0.948656 0.17792,-0.216707 0.089,-0.301876 0.17792,-3.158476 0.26688,5.26747 0.35584,0.187741 0.26688,-0.818081 0.35584,0.107168 0.089,0.150543 0.17792,1.098362 0.17792,-1.851104 0.4448,-0.01332 0.17792,-0.360851 0.4448,-0.164651 0.089,-0.210069 0.089,-0.599856 0.089,0.106165 0.17792,1.294764 0.35584,0.08764 0.4448,-0.689656 0.17792,-0.132443 0.089,-0.184881 0.17792,-1.986031 0.26688,3.265784 0.35584,0.147168 0.26688,-0.654014 0.35584,0.107365 0.089,0.139982 0.17792,0.952865 0.17792,-1.67543 0.4448,-0.02812 0.17792,-0.234015 0.53376,-0.113651 0.17792,-0.146359 0.17791,0.364786 0.35584,0.03326 0.4448,-0.475788 0.17792,-0.105255 0.089,-0.141241 0.17792,-1.507905 0.26689,2.517131 0.35583,0.105007 0.26688,-0.537386 0.35584,0.09157 0.089,0.122311 0.17792,0.990207 0.17792,-1.617098 0.4448,0.0068 0.17792,-0.344006 0.53376,-0.08837 0.17792,-0.106398 0.17792,0.270024 0.35584,0.03658 0.4448,-0.488617 0.26688,-0.218729 0.17792,-1.319077 0.26688,2.250686 0.35584,0.105817 0.26688,-0.552919 0.4448,0.127881 0.17792,0.69843 0.17792,-1.099054 0.4448,0.02981 0.17792,-0.407257 0.53376,-0.07807 0.17792,-0.09709 0.17792,0.244317 0.35584,0.04515 0.4448,-0.529343 0.26688,-0.237131 0.17792,-1.419296 0.26688,2.413048 0.35584,0.08795 0.26688,-0.498663 0.4448,0.07318 0.17792,0.419018 0.17792,-0.660808 0.4448,0.04275 0.17792,-0.436281 0.97856,0.06478 0.26688,0.03108 0.53376,-0.589523 0.17792,-0.205487 0.17792,-1.47102 0.35584,2.526809 0.26688,0.04841 0.26688,-0.463573 0.4448,0.115432 0.17792,0.551622 0.17792,-0.930659 0.4448,-0.0012 0.17792,-0.173333 0.4448,0.172465 0.089,0.226439 0.17792,0.839854 0.17792,-1.820347 1.06752,-0.165525 0.17792,-0.45188 0.089,0.188914 0.17792,0.51188 0.35584,-0.03455 0.26688,-0.117694 0.53375,0.03847 0.089,0.09243 0.26688,-0.129259 0.35584,0.05025 0.17792,-0.489699 0.53376,0.141854 0.17792,0.393534 0.17792,-0.771606 0.35584,0.01598 0.53376,-0.423658 0.17792,-0.161065 0.089,-0.386061 0.089,-0.915086 0.089,0.599049 0.17792,1.533571 0.35584,0.0475 0.26688,-0.480468 0.35584,-0.124034 0.089,-0.130492 0.17792,-0.987572 0.17792,1.780408 0.4448,0.24668 0.26688,-1.103337 0.35584,-0.115364 0.089,-0.151643 0.17792,-0.547813 0.17792,1.219466 0.35584,0.174681 0.089,-0.190121 0.17792,-0.778177 0.35584,-0.275728 0.089,-0.235594 0.089,-0.783928 0.089,-1.887547 0.089,1.239354 0.17792,3.30406 0.35584,0.199836 0.35584,-1.392522 0.26688,-0.538585 0.089,-0.61851 0.17792,-5.40099 0.17792,9.266361 0.35584,0.609711 0.089,-0.07576 0.26688,-2.075595 0.26688,-0.191821 0.089,-0.156304 0.089,-0.435624 0.17792,-1.754602 0.17792,3.817765 0.35584,0.390764 0.089,-0.290949 0.17792,-1.433481 0.35584,-0.421721 0.089,-0.372664 0.089,-1.289906 0.089,-3.218525 0.089,1.897125 0.17792,5.63795 0.35584,0.440282 0.35584,-2.129289 0.17792,-0.218482 0.17792,-0.707458 0.17792,-4.386502 0.26688,7.566712 0.35584,0.256542 0.26688,-1.303301 0.4448,-0.154849 0.17792,-0.257277 0.17792,0.654568 0.35584,0.169992 0.089,-0.164664 0.17792,-0.756292 0.35584,-0.232802 0.089,-0.187901 0.089,-0.605261 0.089,-1.530854 0.089,0.869297 0.17792,2.797889 0.35584,0.152011 0.35584,-1.012358 0.26688,-0.281198 0.089,-0.336611 0.17792,-3.134257 0.26688,5.235684 0.35584,0.174612 0.26688,-0.876224 0.35584,0.09012 0.089,0.120983 0.17792,0.664568 0.17792,-1.231717 0.35584,0.04922 0.089,-0.09888 0.17791,-0.352005 0.35584,-0.139452 0.089,-0.118425 0.089,-0.398353 0.089,-1.015129 0.089,0.477103 0.17792,1.884167 0.35584,0.108974 0.35584,-0.761805 0.26688,-0.185513 0.089,-0.195123 0.17792,-1.715341 0.26688,3.110064 0.35584,0.271582 0.26688,-1.242629 0.4448,0.09333 0.17792,0.449997 0.17792,-0.71153 0.35584,0.111536 0.089,-0.113652 0.17792,-0.560958 0.35584,-0.181497 0.089,-0.154118 0.089,-0.505384 0.089,-1.32482 0.089,0.534244 0.17792,2.545462 0.35584,0.157173 0.35584,-0.974168 0.26688,-0.277524 0.089,-0.290304 0.17792,-2.760665 0.26688,4.698539 0.35584,0.240794 0.26688,-1.083675 0.35584,0.06435 0.089,0.09614 0.17792,0.623497 0.17792,-1.094159 0.35584,0.07912 0.089,-0.09629 0.17792,-0.436914 0.35584,-0.129417 0.089,-0.102434 0.089,-0.322945 0.089,-0.868699 0.089,0.332119 0.17792,1.692733 0.35584,0.08287 0.35584,-0.72119 0.26688,-0.220145 0.089,-0.251159 0.17792,-2.397913 0.26688,4.10064 0.35584,0.240459 0.26688,-1.032668 0.35584,0.132794 0.089,0.165868 0.17792,1.054217 0.17792,-1.894094 0.4448,-0.04145 0.17792,-0.27927 0.4448,-0.152991 0.089,-0.199286 0.089,-0.554242 0.089,0.147417 0.17792,1.14179 0.35584,0.0524 0.35584,-0.533067 0.26688,-0.164937 0.089,-0.184153 0.17792,-1.880489 0.26688,3.113075 0.35584,0.125646 0.17792,-0.589798 0.089,0.02893 0.35584,0.244989 0.089,0.283185 0.17792,1.809422 0.17792,-3.268419 1.86816,-0.132519 0.35584,-0.267867 0.35584,-0.181574 0.17792,-0.952802 0.26688,1.568702 0.44479,-0.04859 0.17792,-0.02668 0.35584,0.30387 0.089,0.361419 0.17792,2.302301 0.17792,-4.197108 0.53376,0.01142 0.17792,0.09371 0.35584,0.08176 0.089,0.139265 0.089,0.427504 0.089,-0.0755 0.17792,-0.933712 0.71168,-0.142581 0.35584,-0.1133 0.17792,-0.58075 0.26688,0.949474 0.35584,0.0037 0.26688,-0.136447 0.35584,0.167088 0.089,0.206738 0.17792,1.407353 0.17792,-2.487987 0.4448,-0.03311 0.17792,-0.206798 0.53376,-0.08002 0.17792,-0.08682 0.17792,0.228617 0.35584,0.02327 0.4448,-0.464231 0.17792,-0.123164 0.089,-0.169117 0.17792,-1.863804 0.26688,3.056523 0.35584,0.130535 0.26688,-0.58348 0.35584,0.114436 0.089,0.14276 0.17792,1.055729 0.17792,-1.804063 0.4448,-0.0023 0.17792,-0.312472 0.53376,-0.09269 0.17792,-0.10954 0.17792,0.278479 0.35584,0.03095 0.4448,-0.467624 0.17792,-0.105949 0.089,-0.145979 0.17792,-1.628033 0.26688,2.659707 0.35584,0.105936 0.26688,-0.479009 0.35584,0.140894 0.089,0.179236 0.17792,1.457174 0.17792,-2.443712 1.06752,0.0033 0.089,0.136907 0.17792,0.437133 0.17792,-1.020244 0.80064,-0.157632 0.26688,-0.107682 0.17792,-0.676461 0.35584,1.098482 0.26688,-0.0065 0.26688,-0.189097 0.35584,0.100959 0.089,0.121686 0.17792,1.034251 0.17792,-1.709548 0.4448,-0.01579 0.17792,-0.164856 0.4448,0.07918 0.089,0.111882 0.17791,0.413187 0.17792,-0.910663 0.35584,-0.01551 0.44481,-0.275409 0.26687,-0.172923 0.17792,-1.063538 0.35584,1.787325 0.26688,0.02352 0.26688,-0.282784 0.35584,0.136838 0.089,0.145914 0.17792,1.217249 0.17792,-2.10305 0.71168,0.07372 0.26688,0.102743 0.089,0.107983 0.089,0.328417 0.17792,1.257392 0.17792,-2.667101 0.4448,-0.137156 0.17792,0.271445 0.53376,0.128031 0.089,0.17587 0.35584,-0.523535 0.35584,-0.07418 0.17792,0.136115 0.4448,0.03906 0.17792,0.280817 0.17792,-0.433531 0.4448,0.0566 0.17792,-0.36018 0.4448,0.118851 0.089,0.160107 0.17792,0.676236 0.17792,-1.388429 0.4448,-0.09649 0.17792,-0.100978 0.4448,-0.142222 0.089,-0.200205 0.089,-0.484535 0.089,0.300734 0.17792,0.831575 0.35584,-0.0032 0.26688,-0.245803 0.53376,-0.127477 0.089,-0.06243 0.17792,0.284792 0.4448,0.09964 0.26688,-0.484678 0.35584,0.09818 0.089,0.161865 0.17792,0.742818 0.17792,-1.439973 0.4448,-0.083 0.17792,-0.16743 0.4448,-0.169996 0.089,-0.259652 0.089,-0.63166 0.089,0.356924 0.17792,1.108325 0.35584,0.02399 0.35584,-0.401582 0.26688,-0.102335 0.089,-0.109299 0.17792,-0.895407 0.17792,1.591984 0.4448,0.160175 0.26688,-0.761573 0.80064,0.06305 0.35584,0.12813 0.089,-0.141877 0.17792,-0.602373 0.35584,-0.198567 0.089,-0.152772 0.089,-0.493544 0.089,-1.247584 0.089,0.738037 0.17792,2.256475 0.35584,0.12735 0.35584,-0.989595 0.26687,-0.348733 0.089,-0.405559 0.17792,-3.666619 0.26688,6.303523 0.35584,0.294661 0.26688,-1.444211 0.35584,-0.09128 0.089,-0.107827 0.17792,-0.407879 0.17792,0.932665 0.35584,0.198022 0.089,-0.174228 0.17792,-0.852008 0.26688,-0.183531 0.17792,-0.364808 0.089,-0.821301 0.089,-2.150245 0.089,1.070981 0.17792,3.902237 0.35584,0.235856 0.35584,-1.409327 0.17792,-0.170658 0.17792,-0.582805 0.17792,-3.866574 0.26688,6.601452 0.35584,0.294445 0.26688,-1.371937 0.62272,-0.05167 0.17792,0.133222 0.35584,0.165623 0.089,-0.154065 0.17792,-0.729559 0.26688,-0.160113 0.17792,-0.319049 0.089,-0.708928 0.089,-1.863237 0.089,0.843671 0.17792,3.477881 0.35584,0.238901 0.35584,-1.325408 0.26688,-0.334084 0.089,-0.36472 0.17792,-3.465488 0.26688,5.931929 0.35584,0.279302 0.26688,-1.281677 0.4448,0.05005 0.17792,0.326889 0.17792,-0.469206 0.35584,0.142243 0.089,-0.123475 0.17792,-0.657065 0.35584,-0.182325 0.089,-0.142059 0.089,-0.475372 0.089,-1.309357 0.089,0.500406 0.17792,2.526981 0.35584,0.146296 0.35584,-0.990152 0.26688,-0.288692 0.089,-0.307688 0.17792,-3.074076 0.26688,5.22776 0.35584,0.220682 0.26688,-1.001201 0.35584,0.07645 0.089,0.102316 0.17792,0.673621 0.17792,-1.172664 0.35584,0.09413 0.089,-0.09646 0.17792,-0.491677 0.35584,-0.134159 0.089,-0.102346 0.089,-0.313131 0.089,-0.869967 0.089,0.292264 0.17792,1.762692 0.35584,0.09642 0.4448,-0.892264 0.17792,-0.19806 0.089,-0.275643 0.17792,-2.822933 0.26688,4.796683 0.35584,0.183232 0.26688,-0.957952 0.62272,-0.06665 0.17792,0.159947 0.35584,0.181785 0.089,-0.123047 0.17791,-0.764398 0.35584,-0.189127 0.089,-0.141513 0.089,-0.439379 0.089,-1.25727 0.089,0.394603 0.17792,2.546993 0.35585,0.157752 0.44479,-1.102329 0.17793,-0.206521 0.0889,-0.286187 0.17792,-2.971189 0.26688,5.048772 0.35584,0.218046 0.26688,-0.986193 0.35584,0.06901 0.089,0.100059 0.17792,0.775117 0.17792,-1.244946 0.4448,0.03255 0.17792,-0.563926 0.35584,-0.12995 0.089,-0.09583 0.089,-0.286015 0.089,-0.830256 0.089,0.179557 0.17792,1.773613 0.35584,0.112162 0.4448,-0.827279 0.17792,-0.148382 0.089,-0.207721 0.17792,-2.190185 0.26688,3.681727 0.35584,0.160406 0.26688,-0.79971 0.4448,0.0663 0.17792,0.378027 0.17792,-0.563256 0.4448,0.05904 0.17792,-0.655968 0.35584,-0.148907 0.089,-0.105944 0.089,-0.324512 0.089,-0.94526 0.089,0.122454 0.17792,2.112833 0.35584,0.137589 0.089,-0.21814 0.17792,-0.59911 0.35584,-0.231554 0.089,-0.210697 0.17792,-2.316558 0.26688,3.823777 0.35584,0.133735 0.26688,-0.613317 0.35584,0.116488 0.089,0.146031 0.17792,0.989872 0.17792,-1.766504 0.4448,-0.04583 0.26688,-0.108825 0.4448,0.05186 0.17792,0.134661 0.17792,-0.303344 0.35584,0.0027 0.4448,-0.375982 0.17792,-0.108542 0.089,-0.147101 0.17792,-1.638322 0.26688,2.693642 0.35584,0.119264 0.26688,-0.659923 1.06752,0.07102 0.17792,-0.04834 0.17792,-0.360735 1.06752,0.06095 0.17792,-3.53e-4 0.4448,-0.463287 0.26688,-0.243885 0.17792,-1.472037 0.26688,2.478961 0.35583,0.09435 0.26688,-0.501788 0.4448,0.13297 0.17792,0.736502 0.17792,-1.170055 0.4448,0.01875 0.17792,-0.329431 0.53376,0.09948 0.17792,0.234898 0.17792,-0.499833 0.35584,-0.0034 0.4448,-0.31362 0.26688,-0.177561 0.17792,-1.08113 0.35584,1.804037 0.26688,0.01946 0.26688,-0.301681 0.4448,0.139493 0.17792,0.697559 0.17792,-1.159778 0.4448,0.0027 0.17792,-0.215126 0.4448,0.172321 0.089,0.234203 0.17792,0.870186 0.17792,-1.854287 1.06752,-0.147858 0.17792,-0.370215 0.089,0.158951 0.17792,0.425414 0.4448,-0.109849 0.26688,-0.0366 0.8896,0.05701 0.26688,0.0072 0.17792,-0.449482 0.4448,0.05906 0.089,0.09732 0.17792,0.419141 0.17792,-0.831674 0.35584,0.005 0.4448,-0.333565 0.26688,-0.158591 0.089,-0.308949 0.089,-0.729768 0.089,0.481371 0.17792,1.22683 0.35584,0.03176 0.26688,-0.388319 0.4448,-0.129179 0.17792,-0.475978 0.17792,0.842388 0.4448,0.08347 0.17792,-0.460165 0.4448,0.07413 0.089,0.108627 0.17792,0.497076 0.17792,-0.988454 0.35584,0.01025 0.53376,-0.381749 0.17792,-0.131951 0.089,-0.282789 0.089,-0.669849 0.089,0.45902 0.17792,1.155821 0.35584,0.03607 0.26688,-0.42552 0.35584,-0.106942 0.089,-0.09743 0.17792,-0.724559 0.17792,1.344342 0.4448,0.183206 0.26688,-0.824369 0.97855,0.0511 0.17793,0.03394 0.089,-0.133783 0.17792,-0.490013 0.35584,-0.177695 0.089,-0.153754 0.089,-0.529046 0.089,-1.299417 0.089,0.770036 0.17792,2.277413 0.35584,0.101854 0.35584,-0.866149 0.26688,-0.282498 0.089,-0.331154 0.17792,-2.720842 0.17792,4.792501 0.4448,0.455216 0.26688,-1.804616 0.35584,-0.333581 0.089,-0.423762 0.17792,-1.700553 0.17792,3.641086 0.35584,0.367217 0.089,-0.27685 0.17792,-1.370521 0.26688,-0.232264 0.17792,-0.494818 0.089,-1.069318 0.089,-2.603544 0.089,1.699209 0.17792,4.690357 0.35584,0.389333 0.35584,-1.908472 0.26688,-0.440611 0.089,-0.484136 0.17792,-4.186914 0.17792,7.287423 0.4448,0.508828 0.26688,-1.916239 0.26688,-0.140209 0.089,-0.111392 0.089,-0.304058 0.17792,-1.283781 0.17792,2.764063 0.35584,0.326199 0.089,-0.243086 0.17792,-1.247513 0.26688,-0.240985 0.17792,-0.459627 0.089,-1.02176 0.089,-2.623576 0.089,1.434228 0.17792,4.811063 0.35584,0.34165 0.35584,-1.820963 0.17792,-0.199102 0.089,-0.203121 0.089,-0.490316 0.17792,-4.411706 0.26688,7.576138 0.35584,0.269932 0.26688,-1.285541 0.4448,0.06194 0.17792,0.299746 0.17792,-0.451849 0.35584,0.112383 0.089,-0.123201 0.17792,-0.562637 0.35584,-0.17418 0.089,-0.1375 0.089,-0.437898 0.089,-1.135934 0.089,0.562272 0.17792,2.152498 0.35584,0.105509 0.35584,-0.902958 0.26688,-0.33507 0.089,-0.392383 0.17792,-3.693417 0.26688,6.206343 0.35584,0.232104 0.26688,-1.148532 0.8896,0.05344 0.26688,0.115631 0.089,-0.142925 0.17792,-0.68519 0.35584,-0.205124 0.089,-0.16092 0.089,-0.535546 0.089,-1.407312 0.089,0.607619 0.17792,2.731569 0.35584,0.187041 0.35584,-1.188901 0.26687,-0.340203 0.089,-0.3758 0.17792,-3.565001 0.26688,6.149346 0.35584,0.302457 0.26688,-1.398092 0.62272,-0.07335 v 0"
           style="fill:none;stroke:#ff7f0e;stroke-width:1.5;stroke-linecap:square;stroke-linejoin:round;stroke-miterlimit:10;stroke-dasharray:none;stroke-opacity:1"
           id="path64180" />
      </g>
    </g>
    <g
       id="g64182">
      <path
         d="M 55.73,44.84 V 146.04367"
         style="fill:none;stroke:#000000;stroke-width:0.8;stroke-linecap:square;stroke-linejoin:miter;stroke-miterlimit:10;stroke-dasharray:none;stroke-opacity:1"
         id="path64184" />
      <path
         d="M 349.2,44.84 V 146.04367"
         style="fill:none;stroke:#000000;stroke-width:0.8;stroke-linecap:square;stroke-linejoin:miter;stroke-miterlimit:10;stroke-dasharray:none;stroke-opacity:1"
         id="path64186" />
      <path
         d="M 55.73,44.84 H 349.2"
         style="fill:none;stroke:#000000;stroke-width:0.8;stroke-linecap:square;stroke-linejoin:miter;stroke-miterlimit:10;stroke-dasharray:none;stroke-opacity:1"
         id="path64188" />
      <path
         d="M 55.73,146.04367 H 349.2"
         style="fill:none;stroke:#000000;stroke-width:0.8;stroke-linecap:square;stroke-linejoin:miter;stroke-miterlimit:10;stroke-dasharray:none;stroke-opacity:1"
         id="path64190" />
      <path
         d="m 143.965,116.6218 h 10 10"
         style="fill:none;stroke:#ff7f0e;stroke-width:1.5;stroke-linecap:square;stroke-linejoin:round;stroke-miterlimit:10;stroke-dasharray:none;stroke-opacity:1"
         id="path64248" />
      <g
         id="g64250"
         transform="translate(171.965,113.1218)">
        <text
           xml:space="preserve"
           transform="matrix(1,0,0,-1,0,0.40625)"
           style="font-variant:normal;font-weight:normal;font-size:10px;font-family:'DejaVu Sans';-inkscape-font-specification:DejaVuSans;writing-mode:lr-tb;fill:#000000;fill-opacity:1;fill-rule:nonzero;stroke:none"
           id="text64254"><tspan
             x="0 7.7490234 11.860352 17.988281 24.335938 27.114258 33.266602 39.604492 43.525391 46.704102"
             y="0"
             sodipodi:role="line"
             id="tspan64252">Gradient, </tspan></text>
        <text
           xml:space="preserve"
           transform="matrix(1,0,0,-1,55.053711,0.40625)"
           style="font-style:italic;font-variant:normal;font-size:10px;font-family:'DejaVu Sans';-inkscape-font-specification:DejaVuSans-Oblique;writing-mode:lr-tb;fill:#000000;fill-opacity:1;fill-rule:nonzero;stroke:none"
           id="text64258"><tspan
             x="0"
             y="0"
             id="tspan64256">L</tspan></text>
        <text
           xml:space="preserve"
           transform="matrix(1,0,0,-1,60.625,0.40625)"
           style="font-variant:normal;font-weight:normal;font-size:10px;font-family:'DejaVu Sans';-inkscape-font-specification:DejaVuSans;writing-mode:lr-tb;fill:#000000;fill-opacity:1;fill-rule:nonzero;stroke:none"
           id="text64262"><tspan
             x="0"
             y="0"
             id="tspan64260">(</tspan></text>
        <text
           xml:space="preserve"
           transform="matrix(1,0,0,-1,64.526367,0.40625)"
           style="font-style:italic;font-variant:normal;font-size:10px;font-family:'DejaVu Sans';-inkscape-font-specification:DejaVuSans-Oblique;writing-mode:lr-tb;fill:#000000;fill-opacity:1;fill-rule:nonzero;stroke:none"
           id="text64266"><tspan
             x="0"
             y="0"
             id="tspan64264">t</tspan></text>
        <text
           xml:space="preserve"
           transform="matrix(1,0,0,-1,68.447266,0.40625)"
           style="font-variant:normal;font-weight:normal;font-size:10px;font-family:'DejaVu Sans';-inkscape-font-specification:DejaVuSans;writing-mode:lr-tb;fill:#000000;fill-opacity:1;fill-rule:nonzero;stroke:none"
           id="text64270"><tspan
             x="0 3.9013672"
             y="0"
             sodipodi:role="line"
             id="tspan64268">)/</tspan></text>
        <text
           xml:space="preserve"
           transform="matrix(1,0,0,-1,80.888672,0.40625)"
           style="font-style:italic;font-variant:normal;font-size:10px;font-family:'DejaVu Sans';-inkscape-font-specification:DejaVuSans-Oblique;writing-mode:lr-tb;fill:#000000;fill-opacity:1;fill-rule:nonzero;stroke:none"
           id="text64274"><tspan
             x="0"
             y="0"
             id="tspan64272">I</tspan></text>
        <text
           xml:space="preserve"
           transform="matrix(1,0,0,-1,83.837891,-1.234375)"
           style="font-variant:normal;font-weight:normal;font-size:7px;font-family:'DejaVu Sans';-inkscape-font-specification:DejaVuSans;writing-mode:lr-tb;fill:#000000;fill-opacity:1;fill-rule:nonzero;stroke:none"
           id="text64278"><tspan
             x="0"
             y="0"
             id="tspan64276">0</tspan></text>
        <g
           id="g64280"
           transform="matrix(0.01,0,0,0.01,49.882812,0.40625)">
          <g
             id="g64282">
            <g
               id="g64284"
               clip-path="url(#clipPath64288)">
              <path
                 d="m 213,-13 c -46,0 -83,13 -113,40 -36,33 -54,79 -54,139 0,62 15,117 47,165 32,49 78,74 136,74 38,0 72,-12 102,-35 17,-14 32,-33 44,-57 4,26 6,55 6,85 0,44 -5,78 -15,104 -24,56 -66,84 -127,84 -23,0 -52,-7 -88,-21 v 82 c 38,10 73,15 107,15 87,0 149,-40 187,-120 17,-38 26,-85 26,-141 0,-37 -5,-77 -13,-119 C 438,175 401,96 348,45 306,6 261,-13 213,-13 Z m -83,164 c 0,-32 7,-57 21,-75 15,-19 34,-28 58,-28 21,0 40,7 57,22 23,20 43,47 61,80 14,26 24,54 32,84 -30,70 -69,105 -119,105 -43,0 -74,-29 -93,-85 -12,-36 -17,-70 -17,-103 z"
                 style="fill:#000000;fill-opacity:1;fill-rule:nonzero;stroke:none"
                 id="path64290" />
            </g>
          </g>
        </g>
        <g
           id="g64292"
           transform="matrix(0.01,0,0,0.01,75.717773,0.40625)">
          <g
             id="g64294">
            <g
               id="g64296"
               clip-path="url(#clipPath64300)">
              <path
                 d="m 213,-13 c -46,0 -83,13 -113,40 -36,33 -54,79 -54,139 0,62 15,117 47,165 32,49 78,74 136,74 38,0 72,-12 102,-35 17,-14 32,-33 44,-57 4,26 6,55 6,85 0,44 -5,78 -15,104 -24,56 -66,84 -127,84 -23,0 -52,-7 -88,-21 v 82 c 38,10 73,15 107,15 87,0 149,-40 187,-120 17,-38 26,-85 26,-141 0,-37 -5,-77 -13,-119 C 438,175 401,96 348,45 306,6 261,-13 213,-13 Z m -83,164 c 0,-32 7,-57 21,-75 15,-19 34,-28 58,-28 21,0 40,7 57,22 23,20 43,47 61,80 14,26 24,54 32,84 -30,70 -69,105 -119,105 -43,0 -74,-29 -93,-85 -12,-36 -17,-70 -17,-103 z"
                 style="fill:#000000;fill-opacity:1;fill-rule:nonzero;stroke:none"
                 id="path64302" />
            </g>
          </g>
        </g>
      </g>
    </g>
  </g>
</svg>
